Roboto-ThinItalic.ufo
<glyph name="exclam" format="1">
  <advance width="385.09"/>
  <unicode hex="0021"/>
  <outline>
    <contour>
      <point x="362.8985265552152" y="1455.7284421985055" type="line"/>
      <point x="309.08707998232717" y="1455.725153012075" type="line"/>
      <point x="127.8516796126457" y="401.27155315544763" type="line"/>
      <point x="181.66312618553349" y="401.27484234187892" type="line"/>
    </contour>
    <contour>
      <point x="46.58402117075714" y="50.53798898821011" type="curve" smooth="yes"/>
      <point x="42.090862560359682" y="21.563454054354704"/>
      <point x="63.874854758940828" y="-5.4679670041070256"/>
      <point x="93.540157887420619" y="-5.6568808459922373" type="curve" smooth="yes"/>
      <point x="121.8207427627746" y="-5.836976559709548"/>
      <point x="151.52941130830368" y="19.534978776868662"/>
      <point x="155.91002436627787" y="47.440346088077561" type="curve" smooth="yes"/>
      <point x="160.46833544841911" y="76.477684785307673"/>
      <point x="137.92471535998047" y="104.51130495851115"/>
      <point x="108.16492754762744" y="104.6561699979091" type="curve" smooth="yes"/>
      <point x="79.673069070685443" y="104.79486299621972"/>
      <point x="50.88199302406872" y="78.253844671632692"/>
    </contour>
  </outline>
</glyph>
<glyph name="quotedbl" format="1">
  <advance width="505.37"/>
  <unicode hex="0022"/>
  <outline>
    <contour>
      <point x="350.21226538184305" y="1535.7393972809548" type="line"/>
      <point x="295.42626890854956" y="1535.7425124978108" type="line"/>
      <point x="273.50090070220915" y="1394.6405894824265" type="line"/>
      <point x="227.04886949904261" y="1122.3035466673375" type="line"/>
      <point x="277.08925627160517" y="1122.3235677174359" type="line"/>
      <point x="327.73591507404552" y="1388.3943509794576" type="line"/>
    </contour>
    <contour>
      <point x="545.18246530989495" y="1535.7396355188596" type="line"/>
      <point x="491.36585411940735" y="1535.742023835802" type="line"/>
      <point x="469.44349721178037" y="1394.6368676629602" type="line"/>
      <point x="422.0071487404648" y="1122.3112606547443" type="line"/>
      <point x="472.05582458334072" y="1122.3264060112895" type="line"/>
      <point x="522.70602599857648" y="1388.3944596784213" type="line"/>
    </contour>
  </outline>
</glyph>
<glyph name="numbersign" format="1">
  <advance width="1087.37"/>
  <unicode hex="0023"/>
  <outline>
    <contour>
      <point x="542.9374818506459" y="0.0" type="line"/>
      <point x="599.45311172322556" y="0.0" type="line"/>
      <point x="743.33629854693595" y="409.79743683962562" type="line"/>
      <point x="1028.3513720879323" y="410.2544064402266" type="line"/>
      <point x="1035.2859500997331" y="461.74128815047072" type="line"/>
      <point x="761.28352715843573" y="462.16457715684561" type="line"/>
      <point x="945.10793260444643" y="985.81991867244153" type="line"/>
      <point x="1200.8976391819645" y="986.27047766308817" type="line"/>
      <point x="1208.1727401178891" y="1039.7396543570437" type="line"/>
      <point x="963.89261125644543" y="1040.1581088204337" type="line"/>
      <point x="1108.3118245456687" y="1455.1955697229039" type="line"/>
      <point x="1051.8009393069333" y="1455.247917200222" type="line"/>
      <point x="905.62358243931988" y="1040.1908814309729" type="line"/>
      <point x="555.84278169595109" y="1040.1621056842298" type="line"/>
      <point x="699.93792558648488" y="1455.1983203924869" type="line"/>
      <point x="643.42778590406078" y="1455.2516506991444" type="line"/>
      <point x="497.94191645202375" y="1040.2030178755765" type="line"/>
      <point x="197.96895785494729" y="1039.747989622718" type="line"/>
      <point x="190.6615351779534" y="986.27465584308538" type="line"/>
      <point x="479.41545517190229" y="985.82992497393673" type="line"/>
      <point x="296.23600909261421" y="462.18032179148611" type="line"/>
      <point x="24.090512034396596" y="461.74644887015205" type="line"/>
      <point x="17.165285726015256" y="410.26137968705098" type="line"/>
      <point x="278.26358418053417" y="409.83666526405187" type="line"/>
      <point x="136.50691689379062" y="0.0" type="line"/>
      <point x="193.01245728225399" y="0.0" type="line"/>
      <point x="336.52144507157885" y="409.81152157029709" type="line"/>
      <point x="685.4634604436942" y="409.83832304264274" type="line"/>
    </contour>
    <contour>
      <point x="354.05473462783721" y="462.15543354936364" type="line"/>
      <point x="537.57290532435059" y="985.83050405695383" type="line"/>
      <point x="887.32572315362677" y="985.84298595441248" type="line"/>
      <point x="703.10887046060452" y="462.16977148271616" type="line"/>
    </contour>
  </outline>
</glyph>
<glyph name="dollar" format="1">
  <advance width="1087.37"/>
  <unicode hex="0024"/>
  <outline>
    <contour>
      <point x="932.57952809416463" y="345.88650796319962" type="curve" smooth="yes"/>
      <point x="967.44652533629892" y="581.81389361376932"/>
      <point x="788.64754783896728" y="680.82468255689923"/>
      <point x="595.52881267510941" y="753.97589178548753" type="curve" smooth="yes"/>
      <point x="420.53612494015226" y="820.26115770291142"/>
      <point x="258.57944585232087" y="900.2710001086391"/>
      <point x="296.3775228789363" y="1112.0388180392031" type="curve" smooth="yes"/>
      <point x="330.93416100018919" y="1305.6461236383986"/>
      <point x="504.19280151098263" y="1423.7643068026953"/>
      <point x="694.98728154452863" y="1423.7330427120521" type="curve" smooth="yes"/>
      <point x="917.21858998339212" y="1423.6966272991453"/>
      <point x="1008.0480926784849" y="1248.9995399321076"/>
      <point x="980.74535534809445" y="1047.2354326223269" type="curve"/>
      <point x="1034.4128439883946" y="1047.1430884797508" type="line"/>
      <point x="1063.8893167606095" y="1276.3236469476235"/>
      <point x="970.45560778321772" y="1456.8491302148952"/>
      <point x="726.05207571311848" y="1475.9350589311555" type="curve"/>
      <point x="757.01251482842451" y="1662.7669593301309" type="line"/>
      <point x="702.19690276046629" y="1662.7683156033174" type="line"/>
      <point x="671.2886145488693" y="1476.4330224970402" type="line"/>
      <point x="456.30816930225893" y="1461.3521725488297"/>
      <point x="274.7531496457338" y="1332.4907692729359"/>
      <point x="241.72585252109366" y="1110.1115743254909" type="curve" smooth="yes"/>
      <point x="206.06008120914916" y="869.96702112156856"/>
      <point x="384.04236148170583" y="777.89320909535502"/>
      <point x="578.76542438704837" y="702.01574554796764" type="curve" smooth="yes"/>
      <point x="746.72909161038979" y="636.56557828544908"/>
      <point x="914.76894612334559" y="550.02794502045163"/>
      <point x="877.95688536282955" y="343.96585754812378" type="curve" smooth="yes"/>
      <point x="843.96160154712106" y="153.67118230971059"/>
      <point x="660.84764853479555" y="33.592286826750353"/>
      <point x="475.41534799855651" y="32.165716087075495" type="curve" smooth="yes"/>
      <point x="244.14454117156302" y="30.386499817815505"/>
      <point x="109.89299252243165" y="179.57935477876103"/>
      <point x="140.26726385592593" y="408.74351868747789" type="curve"/>
      <point x="86.62474935253617" y="408.86610907619769" type="line"/>
      <point x="55.118756015806184" y="152.62805915795923"/>
      <point x="198.66229006678847" y="-7.4340759009469455"/>
      <point x="453.07307887155264" y="-20.401968446645753" type="curve"/>
      <point x="421.99046602445492" y="-207.77634254240107" type="line"/>
      <point x="476.80810448801071" y="-207.77073446374752" type="line"/>
      <point x="507.93192181711811" y="-20.016827597201363" type="line"/>
      <point x="720.63411893607292" y="-2.3544270352793433"/>
      <point x="899.99169106899967" y="125.38105003798486"/>
    </contour>
  </outline>
</glyph>
<glyph name="percent" format="1">
  <advance width="1481.19"/>
  <unicode hex="0025"/>
  <outline>
    <contour>
      <point x="196.64987681019949" y="1099.0506981091958" type="line" smooth="yes"/>
      <point x="175.22736708101695" y="950.64198460582543"/>
      <point x="250.35870204489339" y="799.76232708593579"/>
      <point x="416.2832945330573" y="800.24748378185018" type="curve" smooth="yes"/>
      <point x="581.69421146314289" y="800.73113851152323"/>
      <point x="697.64512968890767" y="947.32049157068843"/>
      <point x="725.38823319307392" y="1098.8423380635513" type="curve" smooth="yes"/>
      <point x="738.03434868593422" y="1175.9492284306095" type="line" smooth="yes"/>
      <point x="759.29132383494368" y="1322.8675667149132"/>
      <point x="687.78201609839914" y="1477.1179229591137"/>
      <point x="521.65384707943394" y="1476.7595997470125" type="curve" smooth="yes"/>
      <point x="354.52032668807783" y="1476.3991080842798"/>
      <point x="237.35428337657018" y="1329.4484421877353"/>
      <point x="209.29274987378955" y="1176.1579333771422" type="curve" smooth="yes"/>
    </contour>
    <contour>
      <point x="265.21400587478041" y="1175.98082744411" type="line" smooth="yes"/>
      <point x="290.85063658877107" y="1300.5916932123309"/>
      <point x="384.54964699377604" y="1421.841655787973"/>
      <point x="522.01456015443148" y="1421.5724374638819" type="curve" smooth="yes"/>
      <point x="659.905349890455" y="1421.3023850813011"/>
      <point x="703.04820109425475" y="1293.3970583918219"/>
      <point x="683.64773389177799" y="1176.0028380267195" type="curve" smooth="yes"/>
      <point x="669.47799808465209" y="1099.0087485538845" type="line" smooth="yes"/>
      <point x="643.79791644224588" y="974.58564631847992"/>
      <point x="553.24014518048568" y="855.59512061889745"/>
      <point x="415.89748595911146" y="855.44140209727948" type="curve" smooth="yes"/>
      <point x="278.11907061747434" y="855.28719586276179"/>
      <point x="231.42141820537387" y="980.29995203531917"/>
      <point x="251.02527774150849" y="1098.9930195828983" type="curve" smooth="yes"/>
    </contour>
    <contour>
      <point x="1216.3629059276716" y="1267.0000575417689" type="line"/>
      <point x="1173.9150158820789" y="1299.4331279106082" type="line"/>
      <point x="288.92171760103855" y="163.99959329949377" type="line"/>
      <point x="331.36960764663206" y="131.56652293065451" type="line"/>
    </contour>
    <contour>
      <point x="787.90171895367587" y="279.05072343638039" type="line" smooth="yes"/>
      <point x="766.51044655198609" y="131.06761322258984"/>
      <point x="840.20726344457353" y="-21.191024704984159"/>
      <point x="1006.3927684116197" y="-20.755109349290414" type="curve" smooth="yes"/>
      <point x="1172.6654846176043" y="-20.318965232861792"/>
      <point x="1288.7593595056517" y="126.53409258035012"/>
      <point x="1316.6416286102806" y="278.84236062291313" type="curve" smooth="yes"/>
      <point x="1329.458618740249" y="356.94967280833055" type="line" smooth="yes"/>
      <point x="1350.8435486180772" y="504.66637287288631"/>
      <point x="1278.2062964790739" y="657.1900466551499"/>
      <point x="1111.9365954665604" y="656.75599419091191" type="curve" smooth="yes"/>
      <point x="945.65298705512714" y="656.32190542095657"/>
      <point x="828.65776225581146" y="509.68012108204584"/>
      <point x="800.71556717494605" y="357.15856350938714" type="curve" smooth="yes"/>
    </contour>
    <contour>
      <point x="856.62325082769939" y="356.97978118886414" type="line" smooth="yes"/>
      <point x="882.56148416493954" y="484.17848022927592"/>
      <point x="972.07597533929243" y="601.80264587044257"/>
      <point x="1112.3042981986202" y="601.59587948016929" type="curve" smooth="yes"/>
      <point x="1253.9257528739904" y="601.38705891973336"/>
      <point x="1295.2654808603572" y="478.42893022904548"/>
      <point x="1275.0446472084361" y="357.01363975132972" type="curve" smooth="yes"/>
      <point x="1260.7065976057575" y="279.02580880205983" type="line" smooth="yes"/>
      <point x="1235.1785103361026" y="154.03243422723688"/>
      <point x="1144.0779475439017" y="34.1478947205973"/>
      <point x="1006.0285578438156" y="34.421172512997074" type="curve" smooth="yes"/>
      <point x="867.62028888799728" y="34.695160730346629"/>
      <point x="822.61308128689768" y="160.07801128524829"/>
      <point x="842.2744240663535" y="278.99353853407513" type="curve" smooth="yes"/>
    </contour>
  </outline>
</glyph>
<glyph name="ampersand" format="1">
  <advance width="1209.59"/>
  <unicode hex="0026"/>
  <outline>
    <contour>
      <point x="1004.4672472083354" y="0.0" type="line"/>
      <point x="1068.1723700455204" y="0.0" type="line"/>
      <point x="915.95613053566717" y="215.03700954030467" type="line"/>
      <point x="1022.3813757309501" y="334.23556878550852"/>
      <point x="1084.4442309439664" y="474.35868380953241"/>
      <point x="1110.2954479686957" y="631.59480456975905" type="curve"/>
      <point x="1055.3891311430848" y="631.67304618009189" type="line"/>
      <point x="1030.0765929016577" y="492.35637214870133"/>
      <point x="974.28860839189906" y="366.51479173942096"/>
      <point x="882.97524976006719" y="257.90584217300534" type="curve"/>
      <point x="510.34634584672165" y="794.04215206042863" type="line"/>
      <point x="680.57735067419799" y="917.94110686069587" type="line" smooth="yes"/>
      <point x="776.86012081207639" y="989.68873543624272"/>
      <point x="890.82159514054342" y="1087.1177421166299"/>
      <point x="909.9238207346865" y="1212.8567006158946" type="curve" smooth="yes"/>
      <point x="933.07817382217502" y="1365.2684825622714"/>
      <point x="829.40760456895691" y="1476.6404663716819"/>
      <point x="677.77950607333037" y="1476.7657405607699" type="curve" smooth="yes"/>
      <point x="497.20923195860053" y="1476.914926594807"/>
      <point x="362.80004679044566" y="1341.0716669451692"/>
      <point x="336.88754513187695" y="1167.1354855359771" type="curve" smooth="yes"/>
      <point x="317.1048359351264" y="1034.3451845086945"/>
      <point x="374.84932898642239" y="914.46471950205375"/>
      <point x="441.02991018209684" y="803.51606028909202" type="curve"/>
      <point x="382.21987452040628" y="761.89063285990937" type="line" smooth="yes"/>
      <point x="245.91515391804077" y="661.57961444021544"/>
      <point x="98.007245520960595" y="528.64172072709869"/>
      <point x="71.968301061365466" y="352.08519368141913" type="curve" smooth="yes"/>
      <point x="36.772581240052524" y="113.44133973541258"/>
      <point x="217.21934940357175" y="-20.085687516673854"/>
      <point x="440.44474241350554" y="-19.820167402304641" type="curve" smooth="yes"/>
      <point x="610.48977782985514" y="-19.617903776993622"/>
      <point x="757.15732910288909" y="67.55106107348422"/>
      <point x="881.71787045257872" y="176.06329082430884" type="curve"/>
    </contour>
    <contour>
      <point x="392.52123640709374" y="1169.0719562451063" type="curve" smooth="yes"/>
      <point x="417.28150089200494" y="1310.4683178942237"/>
      <point x="530.39526666510415" y="1423.370577505038"/>
      <point x="678.2679698539755" y="1422.5965306346952" type="curve" smooth="yes"/>
      <point x="797.84069230266107" y="1421.9706213925308"/>
      <point x="875.28056739295891" y="1331.5288050402373"/>
      <point x="853.8400287532121" y="1213.0376443812752" type="curve" smooth="yes"/>
      <point x="834.13454621700544" y="1104.1352732098946"/>
      <point x="739.27191227802507" y="1022.1333550709239"/>
      <point x="654.72138260473082" y="960.04002170282547" type="curve" smooth="yes"/>
      <point x="481.18649736011059" y="834.74693473252762" type="line"/>
      <point x="419.27215888950343" y="934.45550520535744"/>
      <point x="371.5716289520613" y="1049.4367934654856"/>
    </contour>
    <contour>
      <point x="126.23558189668167" y="351.97629184425989" type="curve" smooth="yes"/>
      <point x="152.08818858460862" y="509.20427485566267"/>
      <point x="293.72983562555254" y="631.87038155142591"/>
      <point x="413.27467956654863" y="722.64558392225081" type="curve" smooth="yes"/>
      <point x="470.27582859944334" y="763.88171121431117" type="line"/>
      <point x="478.73890008059266" y="750.91118096703747"/>
      <point x="487.21894854029568" y="737.95714186122996"/>
      <point x="495.94357087058893" y="725.15986396929793" type="curve" smooth="yes"/>
      <point x="849.13389435876354" y="217.62104597032609" type="line"/>
      <point x="736.7013210996663" y="114.0915235569948"/>
      <point x="596.93561587195416" y="33.694874786124224"/>
      <point x="439.90172887274252" y="34.174631477876581" type="curve" smooth="yes"/>
      <point x="250.79901161978484" y="34.752362156039801"/>
      <point x="92.833921445236939" y="148.83717456271685"/>
    </contour>
  </outline>
</glyph>
<glyph name="quotesingle" format="1">
  <advance width="329.8"/>
  <unicode hex="0027"/>
  <outline>
    <contour>
      <point x="340.50222938733248" y="1535.742421275088" type="line"/>
      <point x="285.71212828188726" y="1535.745729977084" type="line"/>
      <point x="259.98628951403441" y="1369.6146467823949" type="line"/>
      <point x="213.41878287124621" y="1122.3548852850611" type="line"/>
      <point x="263.53396848599596" y="1122.3730012316782" type="line"/>
      <point x="314.09308316577346" y="1362.3904484113812" type="line"/>
    </contour>
  </outline>
</glyph>
<glyph name="parenleft" format="1">
  <advance width="588.79"/>
  <unicode hex="0028"/>
  <outline>
    <contour>
      <point x="137.52182606139775" y="566.00064905862109" type="line" smooth="yes"/>
      <point x="89.392857400094442" y="244.09943445861103"/>
      <point x="88.823207324736586" y="-249.18488949887248"/>
      <point x="380.71489589353274" y="-469.48052922407061" type="curve"/>
      <point x="404.68344283585503" y="-428.47966992986761" type="line"/>
      <point x="139.46142792520402" y="-222.68226706797384"/>
      <point x="146.268734718573" y="270.28236327540702"/>
      <point x="191.45799999172095" y="564.00148640155737" type="curve" smooth="yes"/>
      <point x="195.5789220039261" y="589.99919359179069" type="line" smooth="yes"/>
      <point x="251.52106521899196" y="932.6020321427136"/>
      <point x="411.18388282099687" y="1378.3635209645277"/>
      <point x="717.2161388115295" y="1578.4045927943157" type="curve"/>
      <point x="703.81484548899903" y="1623.0775201097083" type="line"/>
      <point x="368.12044928456771" y="1425.3941599378295"/>
      <point x="197.92542733360307" y="948.37420846346072"/>
      <point x="140.59548318467643" y="586.00182318460315" type="curve" smooth="yes"/>
    </contour>
  </outline>
</glyph>
<glyph name="parenright" format="1">
  <advance width="604.31"/>
  <unicode hex="0029"/>
  <outline>
    <contour>
      <point x="446.11375364468233" y="585.99982761441913" type="line" smooth="yes"/>
      <point x="493.50302090009779" y="903.41542708391671"/>
      <point x="490.21286502524219" y="1404.9606148272101"/>
      <point x="203.09537206464995" y="1622.4833657032891" type="curve"/>
      <point x="179.12670192941948" y="1581.485338476288" type="line"/>
      <point x="444.83218668836588" y="1376.830554265387"/>
      <point x="437.58245354567816" y="883.01282285561956"/>
      <point x="392.50152324780629" y="589.99761659172805" type="curve" smooth="yes"/>
      <point x="388.38060609000132" y="563.99991017886305" type="line" smooth="yes"/>
      <point x="332.3184718890983" y="220.66187605465035"/>
      <point x="172.37315554871759" y="-224.16375685701868"/>
      <point x="-133.40887723158306" y="-425.41163922303684" type="curve"/>
      <point x="-120.00176518536483" y="-470.08140457715223" type="line"/>
      <point x="220.17262833573062" y="-270.55662328667734"/>
      <point x="385.11875100950908" y="199.51113953659285"/>
      <point x="443.03937316442023" y="565.99886717309926" type="curve" smooth="yes"/>
    </contour>
  </outline>
</glyph>
<glyph name="asterisk" format="1">
  <advance width="830.3199999999999"/>
  <unicode hex="002A"/>
  <outline>
    <contour>
      <point x="169.37984378609411" y="695.17384937243787" type="line"/>
      <point x="211.75081117731571" y="661.61550720749665" type="line"/>
      <point x="489.28935290317384" y="984.73766414270108" type="line"/>
      <point x="668.21056747145894" y="663.78634182729854" type="line"/>
      <point x="717.25191916717267" y="695.23691617263864" type="line"/>
      <point x="528.67498054412579" y="1011.8818811134569" type="line"/>
      <point x="903.63384497921095" y="1149.7469728811002" type="line"/>
      <point x="890.8243554815233" y="1204.0877966002522" type="line"/>
      <point x="527.48131696382177" y="1063.9146967363547" type="line"/>
      <point x="601.66989338620203" y="1455.6723976651506" type="line"/>
      <point x="545.86069769542928" y="1455.6923432181661" type="line"/>
      <point x="476.64850482258566" y="1060.8443555538381" type="line"/>
      <point x="146.98842899641318" y="1194.1915926390341" type="line"/>
      <point x="122.40899247379012" y="1142.0511156835596" type="line"/>
      <point x="452.28284754693414" y="1019.1407952460801" type="line"/>
    </contour>
  </outline>
</glyph>
<glyph name="plus" format="1">
  <advance width="1116.47"/>
  <unicode hex="002B"/>
  <outline>
    <contour>
      <point x="1049.3519118567058" y="649.24666438828569" type="line"/>
      <point x="1056.5381044267083" y="701.7499673353891" type="line"/>
      <point x="591.00651757738149" y="702.07255200011116" type="line"/>
      <point x="677.53318221363531" y="1205.7269543495531" type="line"/>
      <point x="622.75181897576863" y="1205.7237465959909" type="line"/>
      <point x="535.73033407206344" y="702.08120371500581" type="line"/>
      <point x="87.050962154705203" y="701.75154871032669" type="line"/>
      <point x="79.866521663834149" y="649.24930262128828" type="line"/>
      <point x="526.96141356649184" y="648.92493612815235" type="line"/>
      <point x="440.61491934057119" y="146.27130983703088" type="line"/>
      <point x="495.39626950515128" y="146.27456682004126" type="line"/>
      <point x="582.2473677259195" y="648.91917796594873" type="line"/>
    </contour>
  </outline>
</glyph>
<glyph name="comma" format="1">
  <advance width="371.51"/>
  <unicode hex="002C"/>
  <outline>
    <contour>
      <point x="136.03612348268359" y="214" type="move" name="_bottom"/>
    </contour>
    <contour>
      <point x="77.190313478090829" y="25" type="move" name="_right"/>
    </contour>
    <contour>
      <point x="151.82052455729837" y="158.65987791978745" type="line"/>
      <point x="98.082644091259922" y="158.71035819212929" type="line"/>
      <point x="74.789893272726019" y="25.056653370757964" type="line" smooth="yes"/>
      <point x="56.461130276818508" y="-71.825370594460907"/>
      <point x="11.277401560676118" y="-148.04102511291771"/>
      <point x="-54.269583199484991" y="-220.51590240916846" type="curve"/>
      <point x="-20.300646802527297" y="-254.65747557578169" type="line"/>
      <point x="61.003955993319963" y="-177.93194079978269"/>
      <point x="110.38660506171593" y="-83.17905560138739"/>
      <point x="130.02885426448074" y="26.852127579495654" type="curve" smooth="yes"/>
    </contour>
  </outline>
</glyph>
<glyph name="hyphen" format="1">
  <advance width="588.79"/>
  <unicode hex="002D"/>
  <outline>
    <contour>
      <point x="531.19860035956242" y="692.74771263281787" type="line"/>
      <point x="73.877631413907906" y="692.75034216681252" type="line"/>
      <point x="66.47438730799449" y="639.25228736718145" type="line"/>
      <point x="523.79535625364872" y="639.2496578331868" type="line"/>
    </contour>
  </outline>
</glyph>
<glyph name="slash" format="1">
  <advance width="758.54"/>
  <unicode hex="002F"/>
  <outline>
    <contour>
      <point x="836.81968370247193" y="1454.777657569108" type="line"/>
      <point x="776.67723534842935" y="1454.9543191191726" type="line"/>
      <point x="-85.090311115718904" y="-123.7782726552778" type="line"/>
      <point x="-24.947862761676731" y="-123.95493420534314" type="line"/>
    </contour>
  </outline>
</glyph>
<glyph name="zero" format="1">
  <advance width="1087.37"/>
  <unicode hex="0030"/>
  <outline>
    <contour>
      <point x="1012.5462267360197" y="862.01480928956539" type="line" smooth="yes"/>
      <point x="1054.5352682619975" y="1116.606269143248"/>
      <point x="1024.9487202391263" y="1477.0937897375518"/>
      <point x="690.4110504986578" y="1476.8922992758353" type="curve" smooth="yes"/>
      <point x="361.92992262342841" y="1476.6944566407381"/>
      <point x="214.67361585151158" y="1138.4284976804518"/>
      <point x="165.80466987955896" y="862.03090388149383" type="curve" smooth="yes"/>
      <point x="119.74296968044031" y="593.98485807394309" type="line" smooth="yes"/>
      <point x="77.82725401077397" y="339.60652029670422"/>
      <point x="109.50614014602712" y="-20.029063013745546"/>
      <point x="443.0177744349819" y="-19.895075210317735" type="curve" smooth="yes"/>
      <point x="772.09867212778727" y="-19.762867448732695"/>
      <point x="917.54217251866419" y="317.05922387308522"/>
      <point x="966.47821838383334" y="593.96949910568117" type="curve" smooth="yes"/>
    </contour>
    <contour>
      <point x="912.22588057477572" y="596.01340511931949" type="line" smooth="yes"/>
      <point x="867.8346989936116" y="351.30313395720668"/>
      <point x="737.0713227408703" y="33.979126700780412"/>
      <point x="442.40089094464065" y="34.185956830010859" type="curve" smooth="yes"/>
      <point x="143.52172426596212" y="34.395741083869041"/>
      <point x="137.16050219615329" y="378.11870332550438"/>
      <point x="174.09985771860681" y="596.00707552707615" type="curve" smooth="yes"/>
      <point x="220.40512528166374" y="861.98690995256288" type="line" smooth="yes"/>
      <point x="265.04818086298985" y="1108.1076538024322"/>
      <point x="395.24366108293077" y="1422.9841606984189"/>
      <point x="691.02910861668681" y="1422.8200727762819" type="curve" smooth="yes"/>
      <point x="991.97934429359907" y="1422.6531196714195"/>
      <point x="995.78933713065339" y="1081.6445510611497"/>
      <point x="958.52242097077237" y="861.99412659346638" type="curve" smooth="yes"/>
    </contour>
  </outline>
</glyph>
<glyph name="one" format="1">
  <advance width="1087.37"/>
  <unicode hex="0031"/>
  <outline>
    <contour>
      <point x="787.32174849502462" y="1459.6461831466518" type="line"/>
      <point x="774.02804887090019" y="1459.5577840783528" type="line"/>
      <point x="299.92799120718132" y="1290.1516910308139" type="line"/>
      <point x="291.69602577415429" y="1231.7092627048537" type="line"/>
      <point x="722.65803621002431" y="1385.344032397488" type="line"/>
      <point x="483.23470063788545" y="0.0" type="line"/>
      <point x="537.04649542972436" y="0.0" type="line"/>
    </contour>
  </outline>
</glyph>
<glyph name="two" format="1">
  <advance width="1087.37"/>
  <unicode hex="0032"/>
  <outline>
    <contour>
      <point x="908.0533842852501" y="53.793056312160807" type="line"/>
      <point x="135.67766673089022" y="54.377188724490765" type="line"/>
      <point x="622.04818822455513" y="545.99284164564415" type="line" smooth="yes"/>
      <point x="766.88043320993461" y="692.96839405775211"/>
      <point x="962.4066594973682" y="869.48758462349338"/>
      <point x="994.60530715195875" y="1084.9463886319106" type="curve" smooth="yes"/>
      <point x="1029.6663478471219" y="1319.5590337500441"/>
      <point x="887.98222239177653" y="1476.8980541513181"/>
      <point x="652.38183038156285" y="1475.837758132423" type="curve" smooth="yes"/>
      <point x="407.17326489479285" y="1474.7342214890148"/>
      <point x="223.07513709937396" y="1277.0729459266033"/>
      <point x="182.86895899096351" y="1045.493880460863" type="curve"/>
      <point x="236.82929831321758" y="1045.4213131637894" type="line"/>
      <point x="277.46662900462263" y="1247.1213869079363"/>
      <point x="436.74737455373128" y="1420.889990485691"/>
      <point x="652.96485726252001" y="1421.7802256159607" type="curve" smooth="yes"/>
      <point x="857.82774672438291" y="1422.6237103277549"/>
      <point x="973.06780223252656" y="1286.4619697347405"/>
      <point x="939.28205727279339" y="1085.0336846362945" type="curve" smooth="yes"/>
      <point x="907.29827775318222" y="894.34859341571132"/>
      <point x="737.43568937680675" y="734.24754629828647"/>
      <point x="608.23701929928188" y="604.02380176196004" type="curve" smooth="yes"/>
      <point x="62.260771264729684" y="54.164583600294996" type="line"/>
      <point x="55.538740433285923" y="0.0" type="line"/>
      <point x="901.3966481058502" y="0.0" type="line"/>
    </contour>
  </outline>
</glyph>
<glyph name="three" format="1">
  <advance width="1087.37"/>
  <unicode hex="0033"/>
  <outline>
    <contour>
      <point x="533.97426273678707" y="713.96591445176" type="line" smooth="yes"/>
      <point x="744.05865919566224" y="711.44863929367079"/>
      <point x="929.73916167532002" y="621.18800688811871"/>
      <point x="889.87896352629184" y="381.97299449335463" type="curve" smooth="yes"/>
      <point x="853.75155711679554" y="165.15977295022338"/>
      <point x="679.23442048791389" y="33.886821689280566"/>
      <point x="463.14612255233101" y="34.17703948932305" type="curve" smooth="yes"/>
      <point x="246.7160899034792" y="34.46771625682296"/>
      <point x="94.027206607079648" y="186.61418490251091"/>
      <point x="122.01966405630763" y="404.79289402713539" type="curve"/>
      <point x="68.479267294820303" y="404.89758499466899" type="line"/>
      <point x="39.071806401682039" y="154.07445794195561"/>
      <point x="215.03555899926008" y="-20.241606729868749"/>
      <point x="463.71968954358056" y="-19.914862084037097" type="curve" smooth="yes"/>
      <point x="707.2387473354263" y="-19.594903797526033"/>
      <point x="909.02537624191245" y="141.82615741321337"/>
      <point x="944.59880476427827" y="385.89709607694817" type="curve" smooth="yes"/>
      <point x="970.72798372432874" y="565.1706016172601"/>
      <point x="876.52582392813599" y="695.08156329285475"/>
      <point x="705.86726711761094" y="743.90591018535008" type="curve"/>
      <point x="861.820271313994" y="796.79810592291108"/>
      <point x="996.57258598874569" y="910.37530763132293"/>
      <point x="1022.2208570560193" y="1080.8857438969069" type="curve" smooth="yes"/>
      <point x="1056.987094254793" y="1312.0126785946452"/>
      <point x="912.03096701657546" y="1476.01986440463"/>
      <point x="679.54141311118008" y="1475.8503346886457" type="curve" smooth="yes"/>
      <point x="439.73661873354939" y="1475.6754707517523"/>
      <point x="245.48916942121201" y="1308.3284701984719"/>
      <point x="203.81352822614929" y="1074.5520752358195" type="curve"/>
      <point x="257.84441259780613" y="1074.4382807754303" type="line"/>
      <point x="299.71184150760888" y="1278.8503685037158"/>
      <point x="468.98732268977056" y="1422.0723084383737"/>
      <point x="680.10652349208203" y="1421.7821258514866" type="curve" smooth="yes"/>
      <point x="880.99544947780259" y="1421.5060047407683"/>
      <point x="1003.1539481848721" y="1284.6650088436895"/>
      <point x="968.4100720853304" y="1084.9948615574283" type="curve" smooth="yes"/>
      <point x="932.38630324894996" y="877.96927786150945"/>
      <point x="729.40491419581178" y="773.39910154703068"/>
      <point x="535.04037457039749" y="769.996848446576" type="curve" smooth="yes"/>
      <point x="429.64039490532559" y="769.72529418657371" type="line"/>
      <point x="422.66770776966507" y="714.2529102476467" type="line"/>
    </contour>
  </outline>
</glyph>
<glyph name="four" format="1">
  <advance width="1087.37"/>
  <unicode hex="0034"/>
  <outline>
    <contour>
      <point x="49.339379847646953" y="427.22655451065248" type="line"/>
      <point x="45.200357796891595" y="397.51233671085907" type="line"/>
      <point x="728.76072184359941" y="396.92732709926713" type="line"/>
      <point x="660.66767084951414" y="0.0" type="line"/>
      <point x="714.48168593536559" y="0.0" type="line"/>
      <point x="782.8690839885121" y="396.91351672952038" type="line"/>
      <point x="1028.0367350071358" y="397.2488333152898" type="line"/>
      <point x="1035.3273653751974" y="450.74123784539933" type="line"/>
      <point x="792.15832008740199" y="451.07097453906613" type="line"/>
      <point x="964.64343608000036" y="1455.6428076423283" type="line"/>
      <point x="899.12758042149233" y="1455.1510826516219" type="line"/>
    </contour>
    <contour>
      <point x="138.81864620067375" y="451.36334907948577" type="line"/>
      <point x="797.50814304807511" y="1250.4370601347998" type="line"/>
      <point x="900.37745055169592" y="1383.8353374585793" type="line"/>
      <point x="737.64235258017584" y="451.06949181458111" type="line"/>
    </contour>
  </outline>
</glyph>
<glyph name="five" format="1">
  <advance width="1087.37"/>
  <unicode hex="0035"/>
  <outline>
    <contour>
      <point x="289.98522317194073" y="746.57759657453016" type="line"/>
      <point x="388.15165415044794" y="822.57611972405834"/>
      <point x="497.65164017522102" y="862.54659797474631"/>
      <point x="622.72370459499268" y="861.76052893589224" type="curve" smooth="yes"/>
      <point x="852.74430097292748" y="860.31486582998411"/>
      <point x="951.58134937299292" y="672.2930075707236"/>
      <point x="917.88059330715862" y="461.95937192681987" type="curve" smooth="yes"/>
      <point x="881.44504425546324" y="234.55730760060624"/>
      <point x="753.8875056604536" y="34.191507447526384"/>
      <point x="502.92398408984218" y="34.172483589816835" type="curve" smooth="yes"/>
      <point x="287.21629078097999" y="34.156132239474438"/>
      <point x="186.21183623397096" y="177.9352384613498"/>
      <point x="196.02895784622029" y="382.96526236578245" type="curve"/>
      <point x="141.74868005202177" y="383.07890737793042" type="line"/>
      <point x="131.59377707940527" y="150.77744924964608"/>
      <point x="261.21869527126967" y="-20.446766559916362"/>
      <point x="503.49332985240369" y="-19.88749739743767" type="curve" smooth="yes"/>
      <point x="785.10025634814406" y="-19.237433183320654"/>
      <point x="935.80605715156491" y="206.92069341327897"/>
      <point x="973.1644810038382" y="463.96225643323777" type="curve" smooth="yes"/>
      <point x="1008.3260785647778" y="705.88873681907194"/>
      <point x="881.54816158040148" y="916.70922003005705"/>
      <point x="621.23321907683078" y="915.83331412921234" type="curve" smooth="yes"/>
      <point x="514.17644875358292" y="915.47309025596996"/>
      <point x="398.94168130479068" y="882.86070514206415"/>
      <point x="312.20439115068007" y="818.87033996681816" type="curve"/>
      <point x="464.81518572982247" y="1402.8788989695454" type="line"/>
      <point x="1105.9185270378314" y="1403.2063483830279" type="line"/>
      <point x="1112.413734469048" y="1455.8024294288575" type="line"/>
      <point x="422.73826101328723" y="1455.8902138373526" type="line"/>
      <point x="249.56784353427503" y="762.86467517263679" type="line"/>
    </contour>
  </outline>
</glyph>
<glyph name="six" format="1">
  <advance width="1087.37"/>
  <unicode hex="0036"/>
  <outline>
    <contour>
      <point x="965.10160232176065" y="479.94907330345779" type="curve" smooth="yes"/>
      <point x="1001.014093998458" y="719.12356663972935"/>
      <point x="894.64913747128821" y="956.67476225460291"/>
      <point x="625.67201291470553" y="956.84574756017639" type="curve" smooth="yes"/>
      <point x="453.80048645480792" y="956.9550040834572"/>
      <point x="297.083873620237" y="869.31758348492747"/>
      <point x="195.55440645325018" y="733.27214085615765" type="curve"/>
      <point x="286.08007844320235" y="1102.0523437751021"/>
      <point x="518.6792511926692" y="1417.4525569156378"/>
      <point x="927.77298218726389" y="1422.2144108884499" type="curve" smooth="yes"/>
      <point x="944.95030190750333" y="1422.2707885640762" type="line"/>
      <point x="951.61262822517244" y="1475.8431484670618" type="line"/>
      <point x="930.55474664284509" y="1475.8751846526363" type="line" smooth="yes"/>
      <point x="460.50750904741813" y="1472.8343400028953"/>
      <point x="201.16483211296531" y="1089.1945584381133"/>
      <point x="132.69515928834448" y="660.01439133242957" type="curve" smooth="yes"/>
      <point x="106.83494000347712" y="491.98923365658845" type="line" smooth="yes"/>
      <point x="69.654160898089458" y="229.94876468823333"/>
      <point x="202.5990803741322" y="-21.382092040499995"/>
      <point x="491.85510599580857" y="-19.858373301456901" type="curve" smooth="yes"/>
      <point x="757.94682568535029" y="-18.456677558995683"/>
      <point x="929.20503978650549" y="240.88066685104829"/>
    </contour>
    <contour>
      <point x="160.84070143696925" y="493.00755259010583" type="curve" smooth="yes"/>
      <point x="181.87380051112552" y="622.03390224455893" type="line"/>
      <point x="233.29673181938881" y="791.16226904763778"/>
      <point x="454.54951633331342" y="902.92810736211709"/>
      <point x="619.43394528447595" y="902.79450465003231" type="curve" smooth="yes"/>
      <point x="860.99506968129117" y="902.59877227215429"/>
      <point x="945.96298314835315" y="692.25960709795288"/>
      <point x="910.83842147554492" y="479.9687575376521" type="curve" smooth="yes"/>
      <point x="876.43244695777196" y="272.02100780153103"/>
      <point x="725.01661742843214" y="34.749079554114481"/>
      <point x="491.10943645217981" y="33.202581005192783" type="curve" smooth="yes"/>
      <point x="230.61896525018682" y="31.480324621098656"/>
      <point x="126.04315478190377" y="262.63599935745026"/>
    </contour>
  </outline>
</glyph>
<glyph name="seven" format="1">
  <advance width="1087.37"/>
  <unicode hex="0037"/>
  <outline>
    <contour>
      <point x="1110.1128193381978" y="1455.5940282235381" type="line"/>
      <point x="206.95854505695581" y="1455.7957598381224" type="line"/>
      <point x="200.29848671073267" y="1402.2061703774079" type="line"/>
      <point x="1039.6150239385731" y="1401.7181966544956" type="line"/>
      <point x="207.57917411981668" y="0.0" type="line"/>
      <point x="263.87450692137713" y="0.0" type="line"/>
      <point x="1105.7110806230305" y="1421.8625902807298" type="line"/>
    </contour>
  </outline>
</glyph>
<glyph name="eight" format="1">
  <advance width="1087.37"/>
  <unicode hex="0038"/>
  <outline>
    <contour>
      <point x="960.13936502574484" y="378.88657467783673" type="curve" smooth="yes"/>
      <point x="987.99391307686767" y="553.68752559713505"/>
      <point x="882.00001799366521" y="690.49395859162848"/>
      <point x="720.30024281414762" y="744.21830563492279" type="curve"/>
      <point x="879.38066007101349" y="797.36405520293908"/>
      <point x="1013.5897499314103" y="913.59643326942387"/>
      <point x="1042.0287757189121" y="1085.8692588631368" type="curve" smooth="yes"/>
      <point x="1080.4268691147231" y="1318.4703365559865"/>
      <point x="918.83111271718565" y="1476.0622098064555"/>
      <point x="691.20640013332513" y="1475.8830093693909" type="curve" smooth="yes"/>
      <point x="456.23066997841022" y="1475.6980217506682"/>
      <point x="257.8137571164724" y="1321.8132628054027"/>
      <point x="220.26923102269609" y="1086.1233231515571" type="curve" smooth="yes"/>
      <point x="195.53778297872859" y="930.86890650302291"/>
      <point x="276.73934580800039" y="802.06072196803154"/>
      <point x="421.13001927891878" y="746.53586261490318" type="curve"/>
      <point x="243.86319940119483" y="694.32957842361157"/>
      <point x="89.293888268054602" y="570.07712679292672"/>
      <point x="57.900784459201688" y="379.11192633390607" type="curve" smooth="yes"/>
      <point x="15.914735827280488" y="123.70952196202725"/>
      <point x="206.95230254176235" y="-19.970014560009016"/>
      <point x="445.92879213868866" y="-19.901894268146986" type="curve" smooth="yes"/>
      <point x="692.08345098894324" y="-19.831727837832606"/>
      <point x="919.60328322823432" y="124.50277955244167"/>
    </contour>
    <contour>
      <point x="988.69946304853647" y="1090.9632693448896" type="curve" smooth="yes"/>
      <point x="951.67722672116633" y="894.6806812522899"/>
      <point x="763.55411942567457" y="772.22829402976038"/>
      <point x="571.21410662863912" y="772.19763263509572" type="curve" smooth="yes"/>
      <point x="384.58885633731484" y="772.16788224478239"/>
      <point x="238.42584682826356" y="895.1727161341264"/>
      <point x="275.15757702220446" y="1091.0388803320513" type="curve" smooth="yes"/>
      <point x="312.60611714266207" y="1290.7273205301683"/>
      <point x="492.52073688055395" y="1422.2194685668558"/>
      <point x="691.83592646117643" y="1421.7837797477353" type="curve" smooth="yes"/>
      <point x="878.05880661709034" y="1421.3767097852349"/>
      <point x="1024.9400086098149" y="1283.1015295449265"/>
    </contour>
    <contour>
      <point x="904.24090527123906" y="373.96231487664477" type="curve" smooth="yes"/>
      <point x="863.3439906893467" y="155.6571658299743"/>
      <point x="656.08661025028982" y="34.17663014869256"/>
      <point x="445.29046051532464" y="34.138027541534839" type="curve" smooth="yes"/>
      <point x="242.81237384771526" y="34.100948201862352"/>
      <point x="69.686968017593983" y="154.05826791764193"/>
      <point x="111.25880403853522" y="374.02782672453418" type="curve" smooth="yes"/>
      <point x="152.03025780736112" y="589.76231323906995"/>
      <point x="362.43154756261714" y="717.9252397414499"/>
      <point x="571.81458402721501" y="717.84016094910817" type="curve" smooth="yes"/>
      <point x="769.99664208835156" y="717.75963346011793"/>
      <point x="944.18565176922004" y="587.18485078242611"/>
    </contour>
  </outline>
</glyph>
<glyph name="nine" format="1">
  <advance width="1087.37"/>
  <unicode hex="0039"/>
  <outline>
    <contour>
      <point x="986.31678567768847" y="739.98682922264652" type="curve" smooth="yes"/>
      <point x="1011.4745443811333" y="903.01134617858656" type="line" smooth="yes"/>
      <point x="1052.1592487621463" y="1180.2285096569512"/>
      <point x="979.97839204364004" y="1478.2828590279862"/>
      <point x="647.5413756207945" y="1475.868794077636" type="curve" smooth="yes"/>
      <point x="373.14118277261855" y="1473.8761763630025"/>
      <point x="191.84237261716086" y="1205.8992776050854"/>
      <point x="155.01885040997382" y="958.04380855198144" type="curve" smooth="yes"/>
      <point x="120.90505133960342" y="728.42721668452191"/>
      <point x="228.19862340315456" y="469.15826582693893"/>
      <point x="491.46796877999361" y="468.07096582384128" type="curve" smooth="yes"/>
      <point x="675.89897322950651" y="467.30926745207597"/>
      <point x="836.89905211070402" y="572.06647282397762"/>
      <point x="933.29125147825096" y="724.85814747841857" type="curve"/>
      <point x="931.6994932905219" y="716.95407665965388" type="line" smooth="yes"/>
      <point x="854.65011600972366" y="340.04359521347249"/>
      <point x="646.08274329959409" y="38.91287277398817"/>
      <point x="231.00506813753151" y="33.712026604726304" type="curve" smooth="yes"/>
      <point x="201.16451214347916" y="33.60636295649298" type="line"/>
      <point x="192.56105168094876" y="-19.767695316960875" type="line"/>
      <point x="228.2395214233286" y="-19.823739057031858" type="line" smooth="yes"/>
      <point x="682.93103717101235" y="-16.786464351664172"/>
      <point x="919.73486110509748" y="321.00917212033676"/>
    </contour>
    <contour>
      <point x="209.23125346271576" y="958.03136316989571" type="curve" smooth="yes"/>
      <point x="244.90518149896576" y="1175.2221126500997"/>
      <point x="410.25387542890689" y="1419.7935520960812"/>
      <point x="652.01290845525659" y="1421.8187546994066" type="curve" smooth="yes"/>
      <point x="948.95320796636247" y="1424.3062078467585"/>
      <point x="994.02352915272365" y="1140.0232445602767"/>
      <point x="957.0110167868894" y="902.01722646878443" type="curve" smooth="yes"/>
      <point x="946.92845092128516" y="840.53981114840099" type="line"/>
      <point x="890.83721871967271" y="657.39381487171477"/>
      <point x="674.64716606946172" y="521.55531539468075"/>
      <point x="490.87683956225248" y="522.24179495713634" type="curve" smooth="yes"/>
      <point x="258.34173887558279" y="523.11043679507043"/>
      <point x="176.81350027715939" y="760.66492503387872"/>
    </contour>
  </outline>
</glyph>
<glyph name="less" format="1">
  <advance width="1021.41"/>
  <unicode hex="003C"/>
  <outline>
    <contour>
      <point x="835.3694197178861" y="262.16167707304555" type="line"/>
      <point x="843.81578465433165" y="320.7179417530333" type="line"/>
      <point x="162.15070985550949" y="663.74363562199926" type="line"/>
      <point x="964.1509657671993" y="1010.8075516894228" type="line"/>
      <point x="972.19877916547671" y="1068.2601497857286" type="line"/>
      <point x="93.981258341388966" y="691.00304814581364" type="line"/>
      <point x="86.92279994900646" y="641.41864695305833" type="line"/>
    </contour>
  </outline>
</glyph>
<glyph name="greater" format="1">
  <advance width="1021.41"/>
  <unicode hex="003E"/>
  <outline>
    <contour>
      <point x="190.41921698534998" y="1071.8389585536511" type="line"/>
      <point x="181.97097418461777" y="1013.2837531201594" type="line"/>
      <point x="858.61616238642034" y="670.37844800055655" type="line"/>
      <point x="61.816314492734236" y="324.19169516995566" type="line"/>
      <point x="53.587836689171482" y="265.74373554689305" type="line"/>
      <point x="931.01019226627977" y="643.99556824197691" type="line"/>
      <point x="938.06809432364776" y="693.58026147565147" type="line"/>
    </contour>
  </outline>
</glyph>
<glyph name="question" format="1">
  <advance width="866.2099999999999"/>
  <unicode hex="003F"/>
  <outline>
    <contour>
      <point x="402.65058934525899" y="400.3621504340021" type="line"/>
      <point x="428.04418747836257" y="524.8020807185876"/>
      <point x="485.08342599015248" y="619.76386827635713"/>
      <point x="585.16057523148879" y="698.07438951395955" type="curve" smooth="yes"/>
      <point x="723.08033260090212" y="805.99680907166317"/>
      <point x="837.91625718477019" y="931.6679918852401"/>
      <point x="866.56333013657036" y="1109.9446942730535" type="curve" smooth="yes"/>
      <point x="897.79171875604391" y="1304.2854617689882"/>
      <point x="802.72463128789627" y="1475.7136520027839"/>
      <point x="591.29242786811017" y="1475.8149131999301" type="curve" smooth="yes"/>
      <point x="377.43788178864924" y="1475.917334529325"/>
      <point x="221.60830073124001" y="1317.9436258356052"/>
      <point x="179.48773570536787" y="1116.7291937208563" type="curve"/>
      <point x="233.64601678178292" y="1116.5705497905756" type="line"/>
      <point x="275.81219526643798" y="1289.7120863101661"/>
      <point x="405.61834160292756" y="1423.2819494951495"/>
      <point x="592.07003992705472" y="1422.6858944444382" type="curve" smooth="yes"/>
      <point x="774.32334644455261" y="1422.1032609536467"/>
      <point x="842.65085684535097" y="1275.9715475033008"/>
      <point x="812.83518474819596" y="1112.0148849139375" type="curve" smooth="yes"/>
      <point x="782.7485590032245" y="946.56824565500119"/>
      <point x="680.50058561210722" y="844.40778129887883"/>
      <point x="556.80326434992344" y="739.925217124082" type="curve" smooth="yes"/>
      <point x="444.18917325266347" y="644.80424861808899"/>
      <point x="376.79591937526698" y="546.2714735588504"/>
      <point x="348.61679790501444" y="400.51214696059327" type="curve"/>
    </contour>
    <contour>
      <point x="263.86290738297254" y="50.539103482495193" type="curve" smooth="yes"/>
      <point x="259.36971791526952" y="21.564358620625779"/>
      <point x="281.15620874138398" y="-5.4680546332058011"/>
      <point x="310.82091824329956" y="-5.6568017001616999" type="curve" smooth="yes"/>
      <point x="339.1014423755874" y="-5.8367416379386121"/>
      <point x="368.80871857259444" y="19.536474585934766"/>
      <point x="373.18938313707622" y="47.44144147277477" type="curve" smooth="yes"/>
      <point x="377.74779135740073" y="76.478640868547728"/>
      <point x="355.20485675362727" y="104.50840217993252"/>
      <point x="325.44578906150178" y="104.65337169159648" type="curve" smooth="yes"/>
      <point x="296.95488879887967" y="104.79216340176258"/>
      <point x="268.16094131967526" y="78.255369982888595"/>
    </contour>
  </outline>
</glyph>
<glyph name="at" format="1">
  <advance width="1844.94"/>
  <unicode hex="0040"/>
  <outline>
    <contour>
      <point x="1060.1077501323894" y="-365.72000079285942" type="curve"/>
      <point x="1041.7736405537305" y="-317.93329447410406" type="line"/>
      <point x="937.73680521732103" y="-368.89062786774309"/>
      <point x="821.21887588665061" y="-397.62194606096028"/>
      <point x="705.11379398322549" y="-397.87705510364395" type="curve" smooth="yes"/>
      <point x="210.6059068997273" y="-398.96360042625389"/>
      <point x="63.848961645110677" y="59.743474528804427"/>
      <point x="158.83270717296864" y="478.00948691469591" type="curve" smooth="yes"/>
      <point x="260.53338650785076" y="925.85387719367623"/>
      <point x="611.39793937679735" y="1353.4685435204165"/>
      <point x="1102.9873270533785" y="1353.974272073493" type="curve" smooth="yes"/>
      <point x="1612.7325186205969" y="1354.4986786303298"/>
      <point x="1744.3191533545871" y="966.1007606798421"/>
      <point x="1644.4066484858242" y="522.98422672436811" type="curve" smooth="yes"/>
      <point x="1601.51673317022" y="332.76548842671349"/>
      <point x="1494.6662996666728" y="35.991264511756142"/>
      <point x="1255.5201661396316" y="35.27684347788388" type="curve" smooth="yes"/>
      <point x="1106.962387626183" y="34.833044533071153"/>
      <point x="1099.6541722878944" y="178.6677128976537"/>
      <point x="1127.3094128392199" y="292.91147708197929" type="curve" smooth="yes"/>
      <point x="1275.3322608834289" y="877.68108180291017" type="line"/>
      <point x="1209.0690301383111" y="944.41332077205925"/>
      <point x="1144.7622338104816" y="987.35775497133363"/>
      <point x="1047.0568598190875" y="987.77950077743253" type="curve" smooth="yes"/>
      <point x="763.03666041207816" y="989.00547559390293"/>
      <point x="591.38264344766878" y="673.68601417827529"/>
      <point x="531.16300193670634" y="436.02868110990795" type="curve" smooth="yes"/>
      <point x="491.33543106682185" y="278.84883018361052"/>
      <point x="466.52008804442698" y="-18.232406256907371"/>
      <point x="701.97967159958864" y="-19.83970706777632" type="curve" smooth="yes"/>
      <point x="861.61313400805557" y="-20.929401484528899"/>
      <point x="979.14156435397956" y="85.357377595954475"/>
      <point x="1063.4940240444439" y="210.42954522816078" type="curve"/>
      <point x="1055.5476753208407" y="84.203278612514808"/>
      <point x="1115.7115216685972" y="-19.81775720874921"/>
      <point x="1252.9288426154494" y="-19.864762095711427" type="curve" smooth="yes"/>
      <point x="1521.4736495123257" y="-19.956754259713577"/>
      <point x="1656.3457573078031" y="303.7054121132976"/>
      <point x="1702.1661773763337" y="522.97018074569462" type="curve" smooth="yes"/>
      <point x="1800.7697899556933" y="994.81872046217234"/>
      <point x="1643.5415408833642" y="1411.026565656389"/>
      <point x="1106.7644994740108" y="1410.965193039204" type="curve" smooth="yes"/>
      <point x="572.19817694313383" y="1410.9040731854438"/>
      <point x="206.93921817977071" y="969.60674016005532"/>
      <point x="103.09714864507662" y="478.00698880331089" type="curve" smooth="yes"/>
      <point x="5.8545994627878173" y="17.65009093411436"/>
      <point x="165.04837769612641" y="-454.18806495306666"/>
      <point x="701.62728071839797" y="-452.92497044844936" type="curve" smooth="yes"/>
      <point x="823.12448160150473" y="-452.63896880750252"/>
      <point x="954.19319725876312" y="-426.87643447638527"/>
    </contour>
    <contour>
      <point x="586.29656552219842" y="436.03396568120462" type="curve" smooth="yes"/>
      <point x="644.77695857249137" y="642.95778946797168"/>
      <point x="790.30744851113207" y="934.6384719921997"/>
      <point x="1044.4631954197309" y="932.76305052175178" type="curve" smooth="yes"/>
      <point x="1114.5104448675638" y="932.24617015544811"/>
      <point x="1174.8996091768947" y="909.47034902861424"/>
      <point x="1216.6688898918862" y="852.205233616334" type="curve"/>
      <point x="1084.3488879490335" y="343.83838133975763" type="line"/>
      <point x="1024.9746747830613" y="189.86534205215466"/>
      <point x="875.81302626227307" y="29.704239734883579"/>
      <point x="699.60126998852752" y="34.297810409070152" type="curve" smooth="yes"/>
      <point x="503.10018706629944" y="39.420292762376896"/>
      <point x="552.17493680040457" y="315.29986112630047"/>
    </contour>
  </outline>
</glyph>
<glyph name="A" format="1">
  <advance width="1186.31"/>
  <unicode hex="0041"/>
  <outline>
    <contour>
      <point x="768.49544827856016" y="1612" type="move" name="top"/>
    </contour>
    <contour>
      <point x="515.19076189018176" y="0" type="move" name="bottom"/>
    </contour>
    <contour>
      <point x="1049.6607618901817" y="0" type="move" name="right"/>
    </contour>
    <contour>
      <point x="420.12588224297463" y="1454" type="move" name="tonos"/>
    </contour>
    <contour>
      <point x="1049.6607618901817" y="0" type="move" name="ogonek"/>
    </contour>
    <contour>
      <point x="1359.0920635163639" y="1600" type="move" name="top_dd"/>
    </contour>
    <contour>
      <point x="1012.3184620390216" y="-407" type="move" name="bottom_dd"/>
    </contour>
    <contour>
      <point x="1361.16544827856" y="1612" type="move" name="top0315"/>
    </contour>
    <contour>
      <point x="-72.177674588797032" y="0.0" type="line"/>
      <point x="-12.090387353780542" y="0.0" type="line"/>
      <point x="221.30362537392512" y="434.6892232585032" type="line"/>
      <point x="911.30678179203869" y="435.03030238670772" type="line"/>
      <point x="993.76091897755987" y="0.0" type="line"/>
      <point x="1050.860633215018" y="0.0" type="line"/>
      <point x="771.43203774033032" y="1456.2488322357988" type="line"/>
      <point x="706.20497938060964" y="1455.4877280231592" type="line"/>
    </contour>
    <contour>
      <point x="249.60987350336387" y="489.2665934018475" type="line"/>
      <point x="731.94080192506999" y="1388.6378344341642" type="line"/>
      <point x="900.9694811137648" y="488.96721705798723" type="line"/>
    </contour>
  </outline>
</glyph>
<glyph name="B" format="1">
  <advance width="1197.95"/>
  <unicode hex="0042"/>
  <outline>
    <contour>
      <point x="718.05544827856011" y="1612" type="move" name="top"/>
    </contour>
    <contour>
      <point x="441.25858252534533" y="10" type="move" name="bottom"/>
    </contour>
    <contour>
      <point x="1370.7320635163637" y="1600" type="move" name="top_dd"/>
    </contour>
    <contour>
      <point x="1023.9584620390217" y="-407" type="move" name="bottom_dd"/>
    </contour>
    <contour>
      <point x="1372.8054482785601" y="1612" type="move" name="top0315"/>
    </contour>
    <contour>
      <point x="1057.9968501222681" y="400.89858287911318" type="curve" smooth="yes"/>
      <point x="1084.9062738239618" y="572.82677634963807"/>
      <point x="976.01313001467508" y="722.1186005163197"/>
      <point x="806.26584842354248" y="752.8707572974447" type="curve"/>
      <point x="973.24087798831215" y="791.01836062503116"/>
      <point x="1084.4677240123438" y="913.43366045850644"/>
      <point x="1112.2837403504404" y="1082.8749946021217" type="curve" smooth="yes"/>
      <point x="1156.3768530934781" y="1351.4683028211925"/>
      <point x="944.70792515566234" y="1453.5821800722347"/>
      <point x="709.10516323786726" y="1455.9257317193055" type="curve" smooth="yes"/>
      <point x="341.84682063662717" y="1455.9391495254383" type="line"/>
      <point x="89.14909769013768" y="0.0" type="line"/>
      <point x="556.07938310616862" y="0.0" type="line" smooth="yes"/>
      <point x="802.83175563687473" y="2.9815140474736865"/>
      <point x="1018.2271191314568" y="146.80402924403833"/>
    </contour>
    <contour>
      <point x="386.79179199184568" y="1401.9437588695102" type="line"/>
      <point x="709.70785196208044" y="1401.9940666258615" type="line" smooth="yes"/>
      <point x="911.78506804320307" y="1399.733943355825"/>
      <point x="1101.8082478751508" y="1321.55606325913"/>
      <point x="1057.8100728229597" y="1086.9694354938358" type="curve" smooth="yes"/>
      <point x="1015.2255596031786" y="859.92007857380258"/>
      <point x="823.49153175450715" y="775.54308169911837"/>
      <point x="610.15322846824063" y="773.04194846796781" type="curve" smooth="yes"/>
      <point x="277.36779539925107" y="773.05265533215425" type="line"/>
    </contour>
    <contour>
      <point x="1003.6800217942816" y="398.95577224202373" type="curve" smooth="yes"/>
      <point x="962.32096938739596" y="176.22357795749102"/>
      <point x="772.050034000746" y="57.261085592964889"/>
      <point x="555.42383982275067" y="54.058937593642007" type="curve" smooth="yes"/>
      <point x="152.79691181067335" y="54.06128853348342" type="line"/>
      <point x="268.46341983464151" y="718.93292804386988" type="line"/>
      <point x="690.29108848670978" y="718.93131790322877" type="line" smooth="yes"/>
      <point x="878.30525798296549" y="715.60297147868505"/>
      <point x="1041.9072501485002" y="604.82205682192591"/>
    </contour>
  </outline>
</glyph>
<glyph name="C" format="1">
  <advance width="1287.19"/>
  <unicode hex="0043"/>
  <outline>
    <contour>
      <point x="836.1438716124037" y="1633" type="move" name="top"/>
    </contour>
    <contour>
      <point x="552.26294125501806" y="-10" type="move" name="bottom"/>
    </contour>
    <contour>
      <point x="1459.972063516364" y="1600" type="move" name="top_dd"/>
    </contour>
    <contour>
      <point x="1113.1984620390217" y="-407" type="move" name="bottom_dd"/>
    </contour>
    <contour>
      <point x="1465.6738716124039" y="1633" type="move" name="top0315"/>
    </contour>
    <contour>
      <point x="1074.0448072650513" y="445.25199421386344" type="line"/>
      <point x="996.0453221259628" y="194.45574837864893"/>
      <point x="818.62707987951399" y="32.941371047545537"/>
      <point x="548.12230437980998" y="34.113106521896754" type="curve" smooth="yes"/>
      <point x="226.33752771027122" y="35.506969669907221"/>
      <point x="152.02872186986673" y="355.72157362131725"/>
      <point x="196.44457176314194" y="619.01478061604166" type="curve" smooth="yes"/>
      <point x="234.91442384412096" y="838.97540193922907" type="line" smooth="yes"/>
      <point x="287.05420140572858" y="1122.3994433192697"/>
      <point x="479.53543963246136" y="1421.0142817058156"/>
      <point x="798.5437182938806" y="1421.8906336158498" type="curve" smooth="yes"/>
      <point x="1055.4471882254968" y="1422.5963765749782"/>
      <point x="1186.3117966977004" y="1261.1535587691446"/>
      <point x="1173.8601754623514" y="1012.0018633209905" type="curve"/>
      <point x="1227.0942251143667" y="1011.9166771292977" type="line"/>
      <point x="1241.1202712903482" y="1291.7096734911324"/>
      <point x="1084.1922755733283" y="1476.7125655634575"/>
      <point x="797.91000180515505" y="1475.9023193877542" type="curve" smooth="yes"/>
      <point x="445.34781567703715" y="1474.9044854693357"/>
      <point x="235.72809735033445" y="1151.631020474606"/>
      <point x="179.86644395307121" y="837.03733982100198" type="curve" smooth="yes"/>
      <point x="142.53343418137752" y="618.98320847742229" type="line" smooth="yes"/>
      <point x="94.124617223926947" y="322.14309379409212"/>
      <point x="195.3665585353894" y="-18.960973727265909"/>
      <point x="548.7455776604337" y="-19.93209828241179" type="curve" smooth="yes"/>
      <point x="846.10078455482949" y="-20.749263216907941"/>
      <point x="1050.8198368501705" y="166.38422899265095"/>
      <point x="1128.3897948897791" y="445.14453584204529" type="curve"/>
    </contour>
  </outline>
</glyph>
<glyph name="D" format="1">
  <advance width="1299.8"/>
  <unicode hex="0044"/>
  <outline>
    <contour>
      <point x="747.15544827856002" y="1612" type="move" name="top"/>
    </contour>
    <contour>
      <point x="372.0739247652582" y="738" type="move" name="cross"/>
    </contour>
    <contour>
      <point x="470.35858252534535" y="10" type="move" name="bottom"/>
    </contour>
    <contour>
      <point x="1472.5820635163636" y="1600" type="move" name="top_dd"/>
    </contour>
    <contour>
      <point x="1125.8084620390216" y="-407" type="move" name="bottom_dd"/>
    </contour>
    <contour>
      <point x="1474.65544827856" y="1612" type="move" name="top0315"/>
    </contour>
    <contour>
      <point x="89.149651346441587" y="0.0" type="line"/>
      <point x="486.23961781151593" y="0.0" type="line" smooth="yes"/>
      <point x="848.9709061311878" y="4.2275849911866867"/>
      <point x="1115.0630373764629" y="296.35772431268089"/>
      <point x="1176.0994514299857" y="638.95551273761714" type="curve" smooth="yes"/>
      <point x="1206.4524202664593" y="817.01450419835089" type="line" smooth="yes"/>
      <point x="1259.6573398661376" y="1147.3554829651307"/>
      <point x="1085.6459309486854" y="1451.5197772455226"/>
      <point x="728.51184668236851" y="1455.947755748648" type="curve" smooth="yes"/>
      <point x="341.846302841159" y="1455.9364041587055" type="line"/>
    </contour>
    <contour>
      <point x="729.1062849337859" y="1401.9522397849623" type="line" smooth="yes"/>
      <point x="1053.2550400700104" y="1397.1871004876871"/>
      <point x="1202.9000665130097" y="1116.4664790541774"/>
      <point x="1153.146536042356" y="819.9807767661149" type="curve" smooth="yes"/>
      <point x="1121.3344282561761" y="639.0305654103737" type="line" smooth="yes"/>
      <point x="1063.3881973035325" y="327.97027415478078"/>
      <point x="815.00036370050111" y="58.63885636934922"/>
      <point x="485.59427096987383" y="54.030586956718672" type="curve" smooth="yes"/>
      <point x="152.80144985970935" y="54.0513677522938" type="line"/>
      <point x="386.7936339225455" y="1401.9438719404422" type="line"/>
    </contour>
  </outline>
</glyph>
<glyph name="E" format="1">
  <advance width="1131.02"/>
  <unicode hex="0045"/>
  <outline>
    <contour>
      <point x="775.28544827856012" y="1612" type="move" name="top"/>
    </contour>
    <contour>
      <point x="498.48858252534535" y="10" type="move" name="bottom"/>
    </contour>
    <contour>
      <point x="80.174228433523737" y="1457" type="move" name="tonos"/>
    </contour>
    <contour>
      <point x="892.52076189018169" y="0" type="move" name="ogonek"/>
    </contour>
    <contour>
      <point x="1303.8020635163639" y="1600" type="move" name="top_dd"/>
    </contour>
    <contour>
      <point x="957.02846203902163" y="-407" type="move" name="bottom_dd"/>
    </contour>
    <contour>
      <point x="1305.87544827856" y="1612" type="move" name="top0315"/>
    </contour>
    <contour>
      <point x="89.148893194211766" y="0.0" type="line"/>
      <point x="951.45512706585009" y="0.0" type="line"/>
      <point x="958.82530890864132" y="53.747187734054492" type="line"/>
      <point x="152.79777003706528" y="54.068397355993845" type="line"/>
      <point x="268.98758295555228" y="721.9245300356871" type="line"/>
      <point x="977.59824155440106" y="722.25077166062988" type="line"/>
      <point x="984.97051060691047" y="775.74608273025001" type="line"/>
      <point x="277.89406828143592" y="776.06742117296324" type="line"/>
      <point x="386.79088572423933" y="1401.9264290916035" type="line"/>
      <point x="1194.3528929798147" y="1402.2495199567991" type="line"/>
      <point x="1201.726441675565" y="1455.7461443435689" type="line"/>
      <point x="341.84518507411491" y="1455.9335644658306" type="line"/>
    </contour>
  </outline>
</glyph>
<glyph name="F" format="1">
  <advance width="1136.84"/>
  <unicode hex="0046"/>
  <outline>
    <contour>
      <point x="275.62831729519633" y="337" type="move" name="cross"/>
    </contour>
    <contour>
      <point x="775.28544827856012" y="1612" type="move" name="top"/>
    </contour>
    <contour>
      <point x="413.12858252534534" y="10" type="move" name="bottom"/>
    </contour>
    <contour>
      <point x="1309.6220635163636" y="1600" type="move" name="top_dd"/>
    </contour>
    <contour>
      <point x="962.84846203902157" y="-407" type="move" name="bottom_dd"/>
    </contour>
    <contour>
      <point x="1311.69544827856" y="1612" type="move" name="top0315"/>
    </contour>
    <contour>
      <point x="90.382136286882783" y="0.0" type="line"/>
      <point x="144.18708146638829" y="0.0" type="line"/>
      <point x="267.94595374793158" y="715.92042583023408" type="line"/>
      <point x="992.0693595817545" y="716.25825187231897" type="line"/>
      <point x="999.80757062285534" y="771.73861390095146" type="line"/>
      <point x="277.19949598134156" y="772.06760900326447" type="line"/>
      <point x="386.79203980294773" y="1401.9264704710233" type="line"/>
      <point x="1209.8736440939178" y="1402.2511802591928" type="line"/>
      <point x="1217.2472978290682" y="1455.7475336623004" type="line"/>
      <point x="341.8446383118121" y="1455.9339739174536" type="line"/>
    </contour>
  </outline>
</glyph>
<glyph name="G" format="1">
  <advance width="1363.82"/>
  <unicode hex="0047"/>
  <outline>
    <contour>
      <point x="860.3938716124037" y="1633" type="move" name="top"/>
    </contour>
    <contour>
      <point x="603.46076189018174" y="0" type="move" name="bottom"/>
    </contour>
    <contour>
      <point x="1536.6020635163636" y="1600" type="move" name="top_dd"/>
    </contour>
    <contour>
      <point x="1189.8284620390216" y="-407" type="move" name="bottom_dd"/>
    </contour>
    <contour>
      <point x="1542.3038716124038" y="1633" type="move" name="top0315"/>
    </contour>
    <contour>
      <point x="1201.064669983411" y="659.93064980206691" type="line"/>
      <point x="714.17153903696635" y="659.75047668158606" type="line"/>
      <point x="706.61946542766054" y="605.26265691296669" type="line"/>
      <point x="1137.3005258460773" y="604.91625562065565" type="line"/>
      <point x="1062.057353597512" y="181.05631921558384" type="line"/>
      <point x="946.38847208866287" y="70.554731664122016"/>
      <point x="758.45772485850569" y="33.603162735792807"/>
      <point x="604.37729971914609" y="34.138804578210141" type="curve" smooth="yes"/>
      <point x="276.74616126705615" y="35.277774349841025"/>
      <point x="172.6633730429466" y="339.55378366774869"/>
      <point x="219.87326837317732" y="620.01632455601555" type="curve" smooth="yes"/>
      <point x="261.84335412223436" y="859.97417118749786" type="line" smooth="yes"/>
      <point x="314.95315529530455" y="1146.5368087964712"/>
      <point x="524.07791470704376" y="1421.5273676722247"/>
      <point x="838.30885359026024" y="1421.8706055631776" type="curve" smooth="yes"/>
      <point x="1067.4323913826042" y="1422.1208797091895"/>
      <point x="1216.8668441253453" y="1293.3588325191097"/>
      <point x="1215.8253299384169" y="1061.8864380226617" type="curve"/>
      <point x="1268.8621508115393" y="1061.8019014128834" type="line"/>
      <point x="1274.7672715591445" y="1322.9929675109831"/>
      <point x="1093.2018269218604" y="1476.2142786814002"/>
      <point x="837.67484461392803" y="1475.879043281441" type="curve" smooth="yes"/>
      <point x="491.60797986429912" y="1475.4250252252298"/>
      <point x="263.11973404003851" y="1174.1769887654361"/>
      <point x="206.74363036319431" y="858.04742879596199" type="curve" smooth="yes"/>
      <point x="165.99815664236348" y="619.98404307796477" type="line" smooth="yes"/>
      <point x="115.39531688392997" y="308.29189881126428"/>
      <point x="248.5275259241327" y="-19.014381207124035"/>
      <point x="605.00183376730899" y="-19.953097340491688" type="curve" smooth="yes"/>
      <point x="775.1150586255485" y="-20.4010623835822"/>
      <point x="996.0184800743624" y="20.602300505128881"/>
      <point x="1115.0346296597597" y="155.74376496668563" type="curve"/>
    </contour>
  </outline>
</glyph>
<glyph name="H" format="1">
  <advance width="1394.86"/>
  <unicode hex="0048"/>
  <outline>
    <contour>
      <point x="869.37544827856004" y="1612" type="move" name="top"/>
    </contour>
    <contour>
      <point x="1097.1907618901816" y="0" type="move" name="right"/>
    </contour>
    <contour>
      <point x="91.814228433523752" y="1457" type="move" name="tonos"/>
    </contour>
    <contour>
      <point x="592.57858252534538" y="10" type="move" name="bottom"/>
    </contour>
    <contour>
      <point x="1567.6420635163636" y="1600" type="move" name="top_dd"/>
    </contour>
    <contour>
      <point x="1220.8684620390216" y="-407" type="move" name="bottom_dd"/>
    </contour>
    <contour>
      <point x="1569.71544827856" y="1612" type="move" name="top0315"/>
    </contour>
    <contour>
      <point x="1044.8589654881093" y="0.0" type="line"/>
      <point x="1098.679187978207" y="0.0" type="line"/>
      <point x="1349.3929440151046" y="1455.7299007462263" type="line"/>
      <point x="1295.5841014379344" y="1455.727177677807" type="line"/>
      <point x="1178.0752378474951" y="776.07566722971728" type="line"/>
      <point x="277.8925666189715" y="776.0697613308613" type="line"/>
      <point x="394.90565709425471" y="1455.7303962971498" type="line"/>
      <point x="341.09332716205961" y="1455.7265821336146" type="line"/>
      <point x="90.380233215818933" y="0.0" type="line"/>
      <point x="144.17999229639275" y="0.0" type="line"/>
      <point x="268.982711151508" y="721.92209235372263" type="line"/>
      <point x="1169.1644736654341" y="721.92795846332024" type="line"/>
    </contour>
  </outline>
</glyph>
<glyph name="J" format="1">
  <advance width="1091.25"/>
  <unicode hex="004A"/>
  <outline>
    <contour>
      <point x="1044.6119863730692" y="1582" type="move" name="top"/>
    </contour>
    <contour>
      <point x="391.24294125501808" y="-10" type="move" name="bottom"/>
    </contour>
    <contour>
      <point x="1264.0320635163639" y="1600" type="move" name="top_dd"/>
    </contour>
    <contour>
      <point x="917.25846203902165" y="-407" type="move" name="bottom_dd"/>
    </contour>
    <contour>
      <point x="1260.9219863730691" y="1582" type="move" name="top0315"/>
    </contour>
    <contour>
      <point x="821.47260162789655" y="442.01169683232843" type="line" smooth="yes"/>
      <point x="780.41415939804847" y="227.14785705962728"/>
      <point x="625.4018759918365" y="34.781906936756435"/>
      <point x="391.94810718391187" y="34.180942885609113" type="curve" smooth="yes"/>
      <point x="161.79997525035634" y="33.588488309111902"/>
      <point x="71.988055499951884" y="186.65235515035391"/>
      <point x="105.58947385038688" y="400.68144558426775" type="curve"/>
      <point x="51.919196077531623" y="400.79838390636922" type="line"/>
      <point x="16.416842133919786" y="154.6304831546897"/>
      <point x="132.62534064319897" y="-20.712324876534709"/>
      <point x="392.58113300106885" y="-19.856269037195808" type="curve" smooth="yes"/>
      <point x="659.00489423713157" y="-18.978913643511081"/>
      <point x="831.88507258879656" y="195.49395957218172"/>
      <point x="876.32995770814" y="441.90605772047678" type="curve" smooth="yes"/>
      <point x="1050.6336873281969" y="1455.7270702271335" type="line"/>
      <point x="996.82203745030847" y="1455.7239717539057" type="line"/>
    </contour>
  </outline>
</glyph>
<glyph name="K" format="1">
  <advance width="1261.0"/>
  <unicode hex="004B"/>
  <outline>
    <contour>
      <point x="519.64678887698176" y="110" type="move" name="bottom"/>
    </contour>
    <contour>
      <point x="1035.7472999846907" y="-30" type="move" name="right"/>
    </contour>
    <contour>
      <point x="373.48991795179279" y="1229" type="move" name="cross"/>
    </contour>
    <contour>
      <point x="743.59062668912009" y="1524" type="move" name="top"/>
    </contour>
    <contour>
      <point x="1433.7820635163639" y="1600" type="move" name="top_dd"/>
    </contour>
    <contour>
      <point x="1087.0084620390217" y="-407" type="move" name="bottom_dd"/>
    </contour>
    <contour>
      <point x="1420.6506266891201" y="1524" type="move" name="top0315"/>
    </contour>
    <contour>
      <point x="1020.6973519094361" y="0.0" type="line"/>
      <point x="1087.0552308922895" y="0.0" type="line"/>
      <point x="547.02782245761625" y="800.11143245570145" type="line"/>
      <point x="1293.9268577345219" y="1455.4911047485657" type="line"/>
      <point x="1209.8728348732757" y="1455.5043104097133" type="line"/>
      <point x="517.81515388526191" y="848.36676978013566" type="line"/>
      <point x="250.39823593186134" y="620.28399105986205" type="line"/>
      <point x="394.91513386588565" y="1455.7252409477378" type="line"/>
      <point x="341.09811899370561" y="1455.7243113667221" type="line"/>
      <point x="90.385364987991025" y="0.0" type="line"/>
      <point x="144.19713245464072" y="0.0" type="line"/>
      <point x="238.52945897745911" y="548.23763831942154" type="line"/>
      <point x="504.52608737587161" y="764.58892089249821" type="line"/>
    </contour>
  </outline>
</glyph>
<glyph name="N" format="1">
  <advance width="1405.53"/>
  <unicode hex="004E"/>
  <outline>
    <contour>
      <point x="879.07544827856009" y="1612" type="move" name="top"/>
    </contour>
    <contour>
      <point x="602.27858252534543" y="10" type="move" name="bottom"/>
    </contour>
    <contour>
      <point x="1107.8607618901817" y="0" type="move" name="right"/>
    </contour>
    <contour>
      <point x="1578.3120635163637" y="1600" type="move" name="top_dd"/>
    </contour>
    <contour>
      <point x="1231.5384620390216" y="-407" type="move" name="bottom_dd"/>
    </contour>
    <contour>
      <point x="1580.38544827856" y="1612" type="move" name="top0315"/>
    </contour>
    <contour>
      <point x="1360.0582346746135" y="1455.728319082006" type="line"/>
      <point x="1306.2483435498511" y="1455.7246327328683" type="line"/>
      <point x="1070.3855091290236" y="93.353381615975991" type="line"/>
      <point x="393.44563082212653" y="1456.4004556778937" type="line"/>
      <point x="340.15822185556243" y="1456.0256754542163" type="line"/>
      <point x="90.386460785218233" y="0.0" type="line"/>
      <point x="145.16551558117919" y="0.0" type="line"/>
      <point x="381.55007733785339" y="1365.642795111497" type="line"/>
      <point x="1057.9649848436966" y="0.0" type="line"/>
      <point x="1110.2849993196885" y="0.0" type="line"/>
    </contour>
  </outline>
</glyph>
<glyph name="O" format="1">
  <advance width="1323.08"/>
  <unicode hex="004F"/>
  <outline>
    <contour>
      <point x="834.20387161240387" y="1633" type="move" name="top"/>
    </contour>
    <contour>
      <point x="558.49519776314901" y="-2" type="move" name="bottom"/>
    </contour>
    <contour>
      <point x="273.65588224297466" y="1454" type="move" name="tonos"/>
    </contour>
    <contour>
      <point x="1495.8620635163638" y="1600" type="move" name="top_dd"/>
    </contour>
    <contour>
      <point x="1149.0884620390216" y="-407" type="move" name="bottom_dd"/>
    </contour>
    <contour>
      <point x="1501.5638716124038" y="1633" type="move" name="top0315"/>
    </contour>
    <contour>
      <point x="1236.1220354810878" y="837.01668658179847" type="line" smooth="yes"/>
      <point x="1286.3813789872102" y="1145.96689684629"/>
      <point x="1165.9844679030191" y="1475.9834067532988"/>
      <point x="807.61203879739435" y="1475.9163663576439" type="curve" smooth="yes"/>
      <point x="449.29898008187581" y="1475.8493370683523"/>
      <point x="226.77620238753752" y="1161.0680348941823"/>
      <point x="169.19036625235225" y="837.04088836018525" type="curve" smooth="yes"/>
      <point x="131.87484858511277" y="618.98315840113742" type="line" smooth="yes"/>
      <point x="81.688751303118224" y="310.3976497013399"/>
      <point x="202.41847764882721" y="-19.958761210371286"/>
      <point x="560.38391764216931" y="-19.917104407528331" type="curve" smooth="yes"/>
      <point x="919.06357976838308" y="-19.875364489928334"/>
      <point x="1141.1671603954273" y="294.5941931913402"/>
      <point x="1198.8048040405683" y="618.95917110281255" type="curve" smooth="yes"/>
    </contour>
    <contour>
      <point x="1144.0971744419037" y="619.02303081256821" type="line" smooth="yes"/>
      <point x="1089.628739812036" y="322.50560637368272"/>
      <point x="888.75718690072506" y="34.00144185991541"/>
      <point x="559.75678949185954" y="34.115394488242103" type="curve" smooth="yes"/>
      <point x="229.88266316562334" y="34.229649741451205"/>
      <point x="139.89151086792424" y="341.437436591329"/>
      <point x="186.74132023674088" y="619.01487036308788" type="curve" smooth="yes"/>
      <point x="225.21746700264737" y="838.97627276184744" type="line" smooth="yes"/>
      <point x="279.46657814014111" y="1134.1055199809662"/>
      <point x="480.94805634662237" y="1421.9408174109028"/>
      <point x="808.23948450231592" y="1421.8846715203263" type="curve" smooth="yes"/>
      <point x="1137.8439386731143" y="1421.8281288368785"/>
      <point x="1229.554851693021" y="1117.3263980868931"/>
      <point x="1182.5728019612986" y="838.98463177889778" type="curve" smooth="yes"/>
    </contour>
  </outline>
</glyph>
<glyph name="P" format="1">
  <advance width="1193.1"/>
  <unicode hex="0050"/>
  <outline>
    <contour>
      <point x="139.79588224297464" y="1454" type="move" name="tonos"/>
    </contour>
    <contour>
      <point x="718.05544827856011" y="1612" type="move" name="top"/>
    </contour>
    <contour>
      <point x="412.15858252534542" y="10" type="move" name="bottom"/>
    </contour>
    <contour>
      <point x="1365.8820635163638" y="1600" type="move" name="top_dd"/>
    </contour>
    <contour>
      <point x="1019.1084620390216" y="-407" type="move" name="bottom_dd"/>
    </contour>
    <contour>
      <point x="1367.95544827856" y="1612" type="move" name="top0315"/>
    </contour>
    <contour>
      <point x="643.232916614224" y="614.96572110331829" type="line" smooth="yes"/>
      <point x="907.80902282520265" y="618.11847178645075"/>
      <point x="1122.7799936848319" y="759.89908921177312"/>
      <point x="1167.2191642428727" y="1030.9273618288705" type="curve" smooth="yes"/>
      <point x="1211.1874736997336" y="1299.0839185859993"/>
      <point x="1037.5156233490588" y="1452.589311897721"/>
      <point x="778.94018412875641" y="1455.9051284520335" type="curve" smooth="yes"/>
      <point x="341.84824678558232" y="1455.938173855423" type="line"/>
      <point x="90.379908420662858" y="0.0" type="line"/>
      <point x="144.18206041376783" y="0.0" type="line"/>
      <point x="250.44509694892469" y="614.91222388850906" type="line"/>
    </contour>
    <contour>
      <point x="386.79032835314456" y="1401.9357196300782" type="line"/>
      <point x="779.52986950748004" y="1401.9498683857369" type="line" smooth="yes"/>
      <point x="1007.4346175189679" y="1398.3989813342639"/>
      <point x="1156.3181369447329" y="1264.0795830163302"/>
      <point x="1112.6186086681143" y="1028.9772347765977" type="curve" smooth="yes"/>
      <point x="1068.9361982858059" y="793.96698037192357"/>
      <point x="871.30628521538529" y="672.45028326137708"/>
      <point x="642.57494250000218" y="669.04641526203091" type="curve" smooth="yes"/>
      <point x="259.35082407517478" y="669.05904740268079" type="line"/>
    </contour>
  </outline>
</glyph>
<glyph name="Q" format="1">
  <advance width="1323.08"/>
  <unicode hex="0051"/>
  <outline>
    <contour>
      <point x="851.78206351636379" y="1600" type="move" name="top"/>
    </contour>
    <contour>
      <point x="571.66294125501804" y="-10" type="move" name="bottom"/>
    </contour>
    <contour>
      <point x="1495.8620635163638" y="1600" type="move" name="top_dd"/>
    </contour>
    <contour>
      <point x="1149.0884620390216" y="-407" type="move" name="bottom_dd"/>
    </contour>
    <contour>
      <point x="1495.8620635163638" y="1600" type="move" name="top0315"/>
    </contour>
    <contour>
      <point x="1012.9771626689437" y="-229.84445442894403" type="line"/>
      <point x="799.41997413741501" y="32.062057690893909" type="line"/>
      <point x="1030.2264194994716" y="143.99551721854846"/>
      <point x="1155.2963910720307" y="373.44919740705211"/>
      <point x="1198.7903890912355" y="618.96619116428724" type="curve" smooth="yes"/>
      <point x="1236.1231252814728" y="837.01602183274417" type="line" smooth="yes"/>
      <point x="1286.3906630988081" y="1145.9680534891338"/>
      <point x="1165.9786880815127" y="1475.9824724423356"/>
      <point x="807.61188049928285" y="1475.9153942533612" type="curve" smooth="yes"/>
      <point x="449.29998945042621" y="1475.8483263435241"/>
      <point x="226.77215378988041" y="1161.0693127615368"/>
      <point x="169.1873761670775" y="837.03957721186521" type="curve" smooth="yes"/>
      <point x="131.87274887449473" y="618.98387763041967" type="line" smooth="yes"/>
      <point x="81.618753114726957" y="310.00755215750826"/>
      <point x="202.4383413668113" y="-19.314883621438863"/>
      <point x="560.29651024195709" y="-19.835913353349959" type="curve" smooth="yes"/>
      <point x="623.38696986164109" y="-19.927770988918592"/>
      <point x="684.63587706501073" y="-8.9722413804170067"/>
      <point x="744.84045626621025" y="9.2701959533388347" type="curve"/>
      <point x="971.72049802800007" y="-262.95605778215617" type="line"/>
    </contour>
    <contour>
      <point x="1144.0992587523824" y="619.02380776539837" type="line" smooth="yes"/>
      <point x="1089.6278929052862" y="322.50220425644596"/>
      <point x="888.75878275335526" y="34.0036236596248"/>
      <point x="559.75705024108754" y="34.117473328482397" type="curve" smooth="yes"/>
      <point x="229.88423877105714" y="34.231624430557787"/>
      <point x="139.88767897136057" y="341.43305794511929"/>
      <point x="186.73951350493064" y="619.01565472563209" type="curve" smooth="yes"/>
      <point x="225.21486224876668" y="838.97503295896911" type="line" smooth="yes"/>
      <point x="279.46671669557577" y="1134.1082137225214"/>
      <point x="480.94654770664482" y="1421.9381979926468"/>
      <point x="808.23888136889798" y="1421.8821081142489" type="curve" smooth="yes"/>
      <point x="1137.8419450539329" y="1421.8256222334012"/>
      <point x="1229.5579614131952" y="1117.3298773652514"/>
      <point x="1182.5740899256268" y="838.98338498560679" type="curve" smooth="yes"/>
    </contour>
  </outline>
</glyph>
<glyph name="S" format="1">
  <advance width="1174.67"/>
  <unicode hex="0053"/>
  <outline>
    <contour>
      <point x="791.52387161240381" y="1633" type="move" name="top"/>
    </contour>
    <contour>
      <point x="507.64294125501806" y="-10" type="move" name="bottom"/>
    </contour>
    <contour>
      <point x="1347.452063516364" y="1600" type="move" name="top_dd"/>
    </contour>
    <contour>
      <point x="1000.6784620390217" y="-407" type="move" name="bottom_dd"/>
    </contour>
    <contour>
      <point x="1353.1538716124039" y="1633" type="move" name="top0315"/>
    </contour>
    <contour>
      <point x="995.76728367223382" y="348.96181596387243" type="curve" smooth="yes"/>
      <point x="952.35290688074065" y="130.27035878102063"/>
      <point x="711.78471148193762" y="34.888258295003936"/>
      <point x="511.23384347542026" y="34.093916149546942" type="curve" smooth="yes"/>
      <point x="277.44831195382949" y="33.16793810451734"/>
      <point x="75.230661654171996" y="153.97488973714508"/>
      <point x="112.99808512005889" y="410.70751875287738" type="curve"/>
      <point x="59.422611535815903" y="410.84380265876217" type="line"/>
      <point x="20.32182466517088" y="120.29066799748426"/>
      <point x="245.5724684678857" y="-20.639142968733843"/>
      <point x="511.88050225146458" y="-19.957867390970502" type="curve" smooth="yes"/>
      <point x="745.54287960144325" y="-19.360106711846452"/>
      <point x="1009.8134843853036" y="96.399514771589224"/>
      <point x="1051.4078783387949" y="350.86756377993703" type="curve" smooth="yes"/>
      <point x="1093.9095300542233" y="610.88607501850538"/>
      <point x="850.83292320340661" y="709.45066583531423"/>
      <point x="644.01714220308236" y="769.9555453781602" type="curve" smooth="yes"/>
      <point x="472.68076165607829" y="820.08076800944207"/>
      <point x="237.9817032215791" y="899.92554225476238"/>
      <point x="282.68524849206091" y="1122.0364315355507" type="curve" smooth="yes"/>
      <point x="324.95298938966044" y="1332.0449546147001"/>
      <point x="563.79252027917369" y="1422.0869973760628"/>
      <point x="754.89474113133679" y="1421.8176944007664" type="curve" smooth="yes"/>
      <point x="977.92900441333825" y="1421.5033925029286"/>
      <point x="1136.517671409121" y="1273.7751903078961"/>
      <point x="1102.953099139268" y="1046.2511007564003" type="curve"/>
      <point x="1156.5291078844355" y="1046.1425260282488" type="line"/>
      <point x="1191.5076959614032" y="1306.3976953345616"/>
      <point x="1008.6541938449609" y="1475.329686836772"/>
      <point x="754.25215121801193" y="1475.9035246039634" type="curve" smooth="yes"/>
      <point x="529.20256457694768" y="1476.4111539884289"/>
      <point x="268.29704104236129" y="1366.3931398213199"/>
      <point x="228.00404732039982" y="1120.1269245799929" type="curve" smooth="yes"/>
      <point x="186.33881565427444" y="865.47374640283419"/>
      <point x="430.28218733020873" y="778.76365073633508"/>
      <point x="629.59344152645951" y="718.04558479626257" type="curve" smooth="yes"/>
      <point x="810.75086199272062" y="662.85789233122364"/>
      <point x="1041.8568780937967" y="581.1291602845497"/>
    </contour>
  </outline>
</glyph>
<glyph name="U" format="1">
  <advance width="1324.05"/>
  <unicode hex="0055"/>
  <outline>
    <contour>
      <point x="850.94544827856021" y="1612" type="move" name="top"/>
    </contour>
    <contour>
      <point x="558.84076189018174" y="0" type="move" name="bottom"/>
    </contour>
    <contour>
      <point x="671.36076189018172" y="0" type="move" name="right"/>
    </contour>
    <contour>
      <point x="809.95256998622176" y="33" type="move" name="ogonek"/>
    </contour>
    <contour>
      <point x="1496.8320635163636" y="1600" type="move" name="top_dd"/>
    </contour>
    <contour>
      <point x="1150.0584620390216" y="-407" type="move" name="bottom_dd"/>
    </contour>
    <contour>
      <point x="1498.90544827856" y="1612" type="move" name="top0315"/>
    </contour>
    <contour>
      <point x="1239.3212984518002" y="1455.7229533943723" type="line"/>
      <point x="1068.6405401510381" y="469.01838604111475" type="line" smooth="yes"/>
      <point x="1020.6408104396801" y="217.22748588211468"/>
      <point x="820.55082494446754" y="34.06630835232145"/>
      <point x="559.75713715936229" y="34.128200714296561" type="curve" smooth="yes"/>
      <point x="302.73667796917545" y="34.189197602029196"/>
      <point x="169.21312085524812" y="223.61345723576218"/>
      <point x="210.06751798958055" y="469.00436842193636" type="curve" smooth="yes"/>
      <point x="380.36398131894015" y="1455.7260815185498" type="line"/>
      <point x="326.55192447935929" y="1455.7229528021769" type="line"/>
      <point x="156.38931410027027" y="468.99156518043577" type="line" smooth="yes"/>
      <point x="111.66329208768568" y="186.429187058075"/>
      <point x="268.6927285419888" y="-19.928816291713346"/>
      <point x="560.3856106766649" y="-19.914074811726458" type="curve" smooth="yes"/>
      <point x="857.92213055204184" y="-19.89903800787642"/>
      <point x="1071.8000297687411" y="181.56646346222493"/>
      <point x="1123.4866897073932" y="468.91534451859064" type="curve" smooth="yes"/>
      <point x="1293.1333219971116" y="1455.7260873934952" type="line"/>
    </contour>
  </outline>
</glyph>
<glyph name="W" format="1">
  <advance width="1799.35"/>
  <unicode hex="0057"/>
  <outline>
    <contour>
      <point x="1055.8899331722785" y="1612" type="move" name="top"/>
    </contour>
    <contour>
      <point x="806.29780575924485" y="10" type="move" name="bottom"/>
    </contour>
    <contour>
      <point x="1955.1503292216191" y="1600" type="move" name="top_dd"/>
    </contour>
    <contour>
      <point x="1642.4590684738298" y="-407" type="move" name="bottom_dd"/>
    </contour>
    <contour>
      <point x="1957.0199331722786" y="1612" type="move" name="top0315"/>
    </contour>
    <contour>
      <point x="1873.5757015146573" y="1455.1196664397758" type="line"/>
      <point x="1813.94075668151" y="1455.2177233555863" type="line"/>
      <point x="1348.6992467916793" y="333.84376715495017" type="line"/>
      <point x="1244.685994719835" y="93.779739216292498" type="line"/>
      <point x="1220.3662432247543" y="325.66300519989937" type="line"/>
      <point x="1062.8135936095109" y="1456.1735439903027" type="line"/>
      <point x="1003.3613447014687" y="1455.5722836578402" type="line"/>
      <point x="496.03007867514691" y="333.78702878248492" type="line"/>
      <point x="393.6714135132429" y="94.224335926735478" type="line"/>
      <point x="368.67562370717712" y="325.61893792466793" type="line"/>
      <point x="250.42692528782771" y="1456.3739339386057" type="line"/>
      <point x="191.84069428868997" y="1456.4392105870531" type="line"/>
      <point x="348.04959768854013" y="0.0" type="line"/>
      <point x="408.5362573971862" y="0.0" type="line"/>
      <point x="949.11627809621143" y="1210.3194445669521" type="line"/>
      <point x="1022.5300793161988" y="1365.1592308813576" type="line"/>
      <point x="1045.4640245455173" y="1218.2578810611301" type="line"/>
      <point x="1207.539559967274" y="0.0" type="line"/>
      <point x="1267.9259451058103" y="0.0" type="line"/>
    </contour>
  </outline>
</glyph>
<glyph name="Y" format="1">
  <advance width="1186.31"/>
  <unicode hex="0059"/>
  <outline>
    <contour>
      <point x="762.71484557988015" y="1601" type="move" name="top"/>
    </contour>
    <contour>
      <point x="491.69858252534539" y="10" type="move" name="bottom"/>
    </contour>
    <contour>
      <point x="587.79270492022181" y="583" type="move" name="cross"/>
    </contour>
    <contour>
      <point x="77.715882242974644" y="1454" type="move" name="tonos"/>
    </contour>
    <contour>
      <point x="1359.0920635163639" y="1600" type="move" name="top_dd"/>
    </contour>
    <contour>
      <point x="1012.3184620390216" y="-407" type="move" name="bottom_dd"/>
    </contour>
    <contour>
      <point x="1359.2648455798801" y="1601" type="move" name="top0315"/>
    </contour>
    <contour>
      <point x="248.25344634954166" y="1456.7714089700225" type="line"/>
      <point x="179.29767542097454" y="1457.1260599321936" type="line"/>
      <point x="556.9270776507384" y="557.65596485061894" type="line"/>
      <point x="460.9212950618321" y="0.0" type="line"/>
      <point x="514.73662542572515" y="0.0" type="line"/>
      <point x="609.16953823380709" y="548.91789409874616" type="line"/>
      <point x="1298.5875044613881" y="1454.4613864135167" type="line"/>
      <point x="1231.0616932395014" y="1454.7921324493423" type="line"/>
      <point x="588.70029361816216" y="603.58684842006357" type="line"/>
    </contour>
  </outline>
</glyph>
<glyph name="Z" format="1">
  <advance width="1187.28"/>
  <unicode hex="005A"/>
  <outline>
    <contour>
      <point x="765.58544827856008" y="1612" type="move" name="top"/>
    </contour>
    <contour>
      <point x="521.76858252534544" y="10" type="move" name="bottom"/>
    </contour>
    <contour>
      <point x="1360.0620635163637" y="1600" type="move" name="top_dd"/>
    </contour>
    <contour>
      <point x="1013.2884620390216" y="-407" type="move" name="bottom_dd"/>
    </contour>
    <contour>
      <point x="1362.13544827856" y="1612" type="move" name="top0315"/>
    </contour>
    <contour>
      <point x="269.66848948930698" y="1403.2477635919797" type="line"/>
      <point x="1128.1307662200438" y="1402.6356133396735" type="line"/>
      <point x="-5.4307141021741359" y="44.216822749294892" type="line"/>
      <point x="-12.011962268103332" y="0.0" type="line"/>
      <point x="994.13307217496322" y="0.0" type="line"/>
      <point x="1001.505348041864" y="53.747070956089281" type="line"/>
      <point x="71.842769994596821" y="54.359758447962079" type="line"/>
      <point x="1207.6107956708465" y="1417.7779367075243" type="line"/>
      <point x="1213.1407631822847" y="1455.4167474817555" type="line"/>
      <point x="276.85800337199947" y="1455.7521782789154" type="line"/>
    </contour>
  </outline>
</glyph>
<glyph name="bracketleft" format="1">
  <advance width="425.83"/>
  <unicode hex="005B"/>
  <outline>
    <contour>
      <point x="616.2517119007739" y="1663.8081207596176" type="line"/>
      <point x="341.29901042262486" y="1663.9479368069258" type="line"/>
      <point x="32.070660712420349" y="-311.94695372435518" type="line"/>
      <point x="309.47645292402001" y="-311.81136660186621" type="line"/>
      <point x="316.11879978473928" y="-258.22165471437376" type="line"/>
      <point x="95.199903671373889" y="-257.9485598962242" type="line"/>
      <point x="386.77283359223054" y="1609.9395298284041" type="line"/>
      <point x="609.60863587232927" y="1610.2189487552107" type="line"/>
    </contour>
  </outline>
</glyph>
<glyph name="backslash" format="1">
  <advance width="750.78"/>
  <unicode hex="005C"/>
  <outline>
    <contour>
      <point x="521.11106011625327" y="-125.59170491685595" type="line"/>
      <point x="577.18829115630024" y="-125.74513518688903" type="line"/>
      <point x="258.74846315763892" y="1456.5910472349581" type="line"/>
      <point x="202.67123211759275" y="1456.7444775049903" type="line"/>
    </contour>
  </outline>
</glyph>
<glyph name="bracketright" format="1">
  <advance width="425.83"/>
  <unicode hex="005D"/>
  <outline>
    <contour>
      <point x="150.34694199765073" y="1610.2200754983239" type="line"/>
      <point x="370.29616355196498" y="1609.9474575770284" type="line"/>
      <point x="78.723394523698332" y="-257.94112055516314" type="line"/>
      <point x="-143.14249652237982" y="-258.22004907303295" type="line"/>
      <point x="-149.78529794269133" y="-311.80933463718065" type="line"/>
      <point x="125.16720146075825" y="-311.94927606239634" type="line"/>
      <point x="434.39531122748792" y="1663.9456064766707" type="line"/>
      <point x="156.98971258660879" y="1663.8098976333345" type="line"/>
    </contour>
  </outline>
</glyph>
<glyph name="asciicircum" format="1">
  <advance width="823.53"/>
  <unicode hex="005E"/>
  <outline>
    <contour>
      <point x="110.38033037903837" y="730.2690742477422" type="line"/>
      <point x="170.60029810528232" y="730.07408179857987" type="line"/>
      <point x="541.3510766940326" y="1380.0799934678269" type="line"/>
      <point x="683.70064926015391" y="728.37972321998825" type="line"/>
      <point x="742.60398957289192" y="728.19815977897383" type="line"/>
      <point x="575.31799245796071" y="1456.2378095880742" type="line"/>
      <point x="523.70372762891805" y="1455.5376690568451" type="line"/>
    </contour>
  </outline>
</glyph>
<glyph name="underscore" format="1">
  <advance width="819.65"/>
  <unicode hex="005F"/>
  <outline>
    <contour>
      <point x="328.91754586225085" y="157" type="move" name="_bottom"/>
    </contour>
    <contour>
      <point x="715.69983354380156" y="0.0" type="line"/>
      <point x="-106.34146863780995" y="0.0" type="line"/>
      <point x="-113.71390965075796" y="-53.747013415887274" type="line"/>
      <point x="708.32739253085413" y="-53.749430233067017" type="line"/>
    </contour>
  </outline>
</glyph>
<glyph name="grave" format="1">
  <advance width="520.89"/>
  <unicode hex="0060"/>
  <outline>
    <contour>
      <point x="457.16962815058184" y="1293" type="move" name="_top"/>
    </contour>
    <contour>
      <point x="496.11971045598659" y="1543" type="move" name="mkmktop_acc"/>
    </contour>
    <contour>
      <point x="352.49618993608669" y="1536.6877197452984" type="line"/>
      <point x="289.47416536653867" y="1537.0520700781444" type="line"/>
      <point x="440.94983908028723" y="1269.3245153347664" type="line"/>
      <point x="497.17419987675112" y="1268.9723152816021" type="line"/>
    </contour>
  </outline>
</glyph>
<glyph name="a" format="1">
  <advance width="1048.57"/>
  <unicode hex="0061"/>
  <outline>
    <contour>
      <point x="679.25518795332368" y="1292" type="move" name="top"/>
    </contour>
    <contour>
      <point x="388.12076189018171" y="0" type="move" name="bottom"/>
    </contour>
    <contour>
      <point x="801.34076189018174" y="0" type="move" name="ogonek"/>
    </contour>
    <contour>
      <point x="793.55450811134915" y="1263" type="move" name="rhalfring"/>
    </contour>
    <contour>
      <point x="1221.3520635163636" y="1600" type="move" name="top_dd"/>
    </contour>
    <contour>
      <point x="874.57846203902159" y="-407" type="move" name="bottom_dd"/>
    </contour>
    <contour>
      <point x="860.99023142988358" y="654" type="move" name="rhotichook"/>
    </contour>
    <contour>
      <point x="1168.1351879533236" y="1292" type="move" name="top0315"/>
    </contour>
    <contour>
      <point x="741.31937349818975" y="0.0" type="curve"/>
      <point x="802.86829869830729" y="0.0" type="line"/>
      <point x="804.2473811340941" y="9.0564943889676783" type="line"/>
      <point x="791.67365294981607" y="77.741150177065975"/>
      <point x="801.04834992462315" y="149.76944379074087"/>
      <point x="812.5015132802281" y="218.02328771137527" type="curve" smooth="yes"/>
      <point x="906.37572883775226" y="759.99620507306895" type="line" smooth="yes"/>
      <point x="939.05849488905335" y="975.48859803711446"/>
      <point x="797.16505649427882" y="1102.6016193085866"/>
      <point x="587.60649454802274" y="1101.8502760390486" type="curve" smooth="yes"/>
      <point x="394.20542163686162" y="1101.1568632139954"/>
      <point x="189.85829362686371" y="986.84284083984141"/>
      <point x="149.56410485662121" y="786.67403535732865" type="curve"/>
      <point x="203.51071155514074" y="784.51935481486657" type="line"/>
      <point x="245.46256880200968" y="955.43399359643399"/>
      <point x="421.11716829583111" y="1047.4489156015738"/>
      <point x="588.24828491947403" y="1047.7502911812546" type="curve" smooth="yes"/>
      <point x="767.26222678215117" y="1048.0730942091388"/>
      <point x="883.92519806017378" y="945.88641710493619"/>
      <point x="853.52313463252199" y="762.01200677222221" type="curve" smooth="yes"/>
      <point x="825.03926008374253" y="604.16983325866931" type="line"/>
      <point x="570.19608345623431" y="604.0488230671566" type="line" smooth="yes"/>
      <point x="356.11860403215206" y="601.7087860994659"/>
      <point x="71.027847585518174" y="522.10963743363595"/>
      <point x="31.997760806829532" y="274.13686195961037" type="curve" smooth="yes"/>
      <point x="3.5933457585301483" y="93.672963040253933"/>
      <point x="138.54914037389085" y="-18.899640812439625"/>
      <point x="310.14048728661203" y="-19.822786161879495" type="curve" smooth="yes"/>
      <point x="488.36676773609577" y="-20.781626831325337"/>
      <point x="649.27816497604658" y="60.604273012724462"/>
      <point x="760.02621174231433" y="198.33095184503827" type="curve"/>
      <point x="746.75724924307622" y="132.76745882066734"/>
      <point x="738.0475416833176" y="66.985150326018513"/>
    </contour>
    <contour>
      <point x="309.4009457176129" y="33.232186930912881" type="curve" smooth="yes"/>
      <point x="175.28325808102966" y="34.862303661380182"/>
      <point x="58.079083472232398" y="126.03549104271605"/>
      <point x="85.319469783454949" y="269.96199695666661" type="curve" smooth="yes"/>
      <point x="126.04499231810672" y="485.13817298312256"/>
      <point x="389.40319390112683" y="546.8125900289823"/>
      <point x="573.61424410515394" y="548.97310570075183" type="curve" smooth="yes"/>
      <point x="816.26176939799404" y="548.94779019195198" type="line"/>
      <point x="770.3883216301582" y="291.75649702501801" type="line"/>
      <point x="665.4404326045385" y="134.25837002599437"/>
      <point x="502.8476573782487" y="30.880962967177688"/>
    </contour>
  </outline>
</glyph>
<glyph name="b" format="1">
  <advance width="1087.37"/>
  <unicode hex="0062"/>
  <outline>
    <contour>
      <point x="734.54544827856012" y="1612" type="move" name="top"/>
    </contour>
    <contour>
      <point x="461.08294125501811" y="-10" type="move" name="bottom"/>
    </contour>
    <contour>
      <point x="1260.1520635163638" y="1600" type="move" name="top_dd"/>
    </contour>
    <contour>
      <point x="913.37846203902154" y="-407" type="move" name="bottom_dd"/>
    </contour>
    <contour>
      <point x="1262.22544827856" y="1612" type="move" name="top0315"/>
    </contour>
    <contour>
      <point x="958.38467853160182" y="530.97153932773267" type="curve" smooth="yes"/>
      <point x="961.90556539185604" y="551.97896614369961" type="line" smooth="yes"/>
      <point x="999.86683536066516" y="789.05173878750247"/>
      <point x="958.14728432469565" y="1101.8912433624744"/>
      <point x="655.52050136342928" y="1101.8687263826694" type="curve" smooth="yes"/>
      <point x="491.4501104033335" y="1101.8565187067866"/>
      <point x="357.65837437764185" y="1015.5190117184829"/>
      <point x="263.94997399752356" y="885.5393702464479" type="curve"/>
      <point x="379.6729267525447" y="1535.7269663597215" type="line"/>
      <point x="325.85930472097277" y="1535.7232392769045" type="line"/>
      <point x="61.334572387630587" y="0.0" type="line"/>
      <point x="115.04121266353805" y="0.0" type="line"/>
      <point x="146.47287496642377" y="170.7441741982874" type="line"/>
      <point x="205.60490749592441" y="40.254322959212658"/>
      <point x="333.42635995051444" y="-20.272951968890723"/>
      <point x="473.07173414523879" y="-19.893053235357744" type="curve" smooth="yes"/>
      <point x="767.65337346587012" y="-19.091657612013101"/>
      <point x="914.04698996371633" y="279.16223247785445"/>
    </contour>
    <contour>
      <point x="657.10421913156176" y="1047.7643535123455" type="curve" smooth="yes"/>
      <point x="925.71741568227685" y="1047.5186437187206"/>
      <point x="939.82647058278781" y="752.61896436833649"/>
      <point x="905.75095485575741" y="551.98873885594321" type="curve" smooth="yes"/>
      <point x="902.03988959111678" y="530.98297242832132" type="line" smooth="yes"/>
      <point x="860.67646678451229" y="307.94459234493388"/>
      <point x="737.91310457197437" y="35.017075573545327"/>
      <point x="473.42720629557516" y="34.181703743425281" type="curve" smooth="yes"/>
      <point x="314.90947476547638" y="33.681029611618108"/>
      <point x="191.97311536363273" y="115.62568611878925"/>
      <point x="160.40089240691367" y="273.73485566303913" type="curve"/>
      <point x="248.65310608965876" y="769.5654736863454" type="line"/>
      <point x="305.05508157773266" y="935.14763975394612"/>
      <point x="488.9631218600008" y="1047.9181579971621"/>
    </contour>
  </outline>
</glyph>
<glyph name="c" format="1">
  <advance width="1007.8299999999999"/>
  <unicode hex="0063"/>
  <outline>
    <contour>
      <point x="638.09222716291708" y="1290" type="move" name="top"/>
    </contour>
    <contour>
      <point x="435.55179917481246" y="-10" type="move" name="bottom"/>
    </contour>
    <contour>
      <point x="638.09222716291708" y="1290" type="move" name="marktop"/>
    </contour>
    <contour>
      <point x="1163.6303292216189" y="1600" type="move" name="top_dd"/>
    </contour>
    <contour>
      <point x="850.93906847382971" y="-407" type="move" name="bottom_dd"/>
    </contour>
    <contour>
      <point x="1115.332227162917" y="1290" type="move" name="top0315"/>
    </contour>
    <contour>
      <point x="430.17970104291953" y="34.208086033339406" type="curve" smooth="yes"/>
      <point x="156.68876621889973" y="35.074412654555374"/>
      <point x="100.84357525553852" y="295.99844311631114"/>
      <point x="135.01523112778892" y="520.02030174833749" type="curve" smooth="yes"/>
      <point x="141.80092938279296" y="562.0053624317103" type="line" smooth="yes"/>
      <point x="182.31863085498534" y="799.87575222405019"/>
      <point x="325.35353761350001" y="1047.5538460387008"/>
      <point x="595.53714406076836" y="1047.8129668235922" type="curve" smooth="yes"/>
      <point x="787.11621724554368" y="1047.9967015825778"/>
      <point x="894.81014595855299" y="909.57827665486525"/>
      <point x="879.30015268374439" y="725.13615197484239" type="curve"/>
      <point x="932.72247620810515" y="725.0006549124131" type="line"/>
      <point x="949.32824509639158" y="940.8260276034863"/>
      <point x="817.31191254229668" y="1102.1670470574973"/>
      <point x="594.95959742342143" y="1101.8709635204982" type="curve" smooth="yes"/>
      <point x="295.528769559615" y="1101.4722425152634"/>
      <point x="130.01278886887624" y="827.92991190865712"/>
      <point x="87.299403423693306" y="562.03582957131243" type="curve" smooth="yes"/>
      <point x="80.921997302618209" y="520.01955515889188" type="line" smooth="yes"/>
      <point x="44.73681551319752" y="266.21865614442652"/>
      <point x="128.87098870714863" y="-19.886619748685419"/>
      <point x="430.74652962469827" y="-19.872951997219172" type="curve" smooth="yes"/>
      <point x="644.70404612032576" y="-19.863264832267319"/>
      <point x="822.47471703050155" y="119.33110442005994"/>
      <point x="870.04067504454065" y="327.25922178655469" type="curve"/>
      <point x="815.79952968081614" y="327.37819465945518" type="line"/>
      <point x="766.54200713891476" y="147.79150629067138"/>
      <point x="617.74794485762561" y="33.613933386137532"/>
    </contour>
  </outline>
</glyph>
<glyph name="d" format="1">
  <advance width="1087.37"/>
  <unicode hex="0064"/>
  <outline>
    <contour>
      <point x="1230.6640114513166" y="1536" type="move" name="caron"/>
    </contour>
    <contour>
      <point x="920.2941368425528" y="1306" type="move" name="cross"/>
    </contour>
    <contour>
      <point x="475.42076189018178" y="0" type="move" name="bottom"/>
    </contour>
    <contour>
      <point x="696.15770478669106" y="1620" type="move" name="top"/>
    </contour>
    <contour>
      <point x="1260.1520635163638" y="1600" type="move" name="top_dd"/>
    </contour>
    <contour>
      <point x="913.37846203902154" y="-407" type="move" name="bottom_dd"/>
    </contour>
    <contour>
      <point x="1263.6077047866909" y="1620" type="move" name="top0315"/>
    </contour>
    <contour>
      <point x="766.32377916960002" y="0.0" type="line"/>
      <point x="820.38446720352329" y="0.0" type="line"/>
      <point x="1084.8634418624663" y="1535.726656988119" type="line"/>
      <point x="1031.0537608998031" y="1535.7238469353913" type="line"/>
      <point x="916.66868287514728" y="882.91221575338579" type="line"/>
      <point x="866.09426618424447" y="1025.3708020764307"/>
      <point x="746.85475921101158" y="1102.1097410953905"/>
      <point x="596.35518408231371" y="1101.8939315608889" type="curve" smooth="yes"/>
      <point x="298.27283786214963" y="1101.4664950559954"/>
      <point x="154.22498500020299" y="807.47249788546924"/>
      <point x="109.28708088481947" y="552.02675466440019" type="curve" smooth="yes"/>
      <point x="105.7659221239786" y="531.01932086939541" type="line" smooth="yes"/>
      <point x="68.533947278462733" y="298.18521151982083"/>
      <point x="111.12831835084819" y="-19.585008081212269"/>
      <point x="410.02754365629517" y="-19.866621803273695" type="curve" smooth="yes"/>
      <point x="566.58297688277844" y="-20.014123551445824"/>
      <point x="703.98500599543831" y="52.295382755645889"/>
      <point x="800.11246563150939" y="173.77538650190985" type="curve"/>
    </contour>
    <contour>
      <point x="161.91523976004038" y="531.01055599658673" type="curve" smooth="yes"/>
      <point x="165.62638220274596" y="552.01628339972922" type="line" smooth="yes"/>
      <point x="207.08262291383011" y="775.51605102807036"/>
      <point x="331.05726061805359" y="1047.7854251574831"/>
      <point x="595.98743393304176" y="1047.7898020136563" type="curve" smooth="yes"/>
      <point x="769.75912912074193" y="1047.7926728596128"/>
      <point x="875.41243491166847" y="941.37733421919415"/>
      <point x="901.182984031454" y="775.4444795032249" type="curve"/>
      <point x="811.13214694357657" y="268.74173441286939" type="line"/>
      <point x="723.95735969733573" y="123.41793454383063"/>
      <point x="580.54671442146241" y="33.450206427776415"/>
      <point x="408.45769510181913" y="34.217794716884534" type="curve" smooth="yes"/>
      <point x="140.46965058412957" y="35.413132370652448"/>
      <point x="127.95012904542656" y="331.06088074955017"/>
    </contour>
  </outline>
</glyph>
<glyph name="e" format="1">
  <advance width="1001.04"/>
  <unicode hex="0065"/>
  <outline>
    <contour>
      <point x="657.64802749213868" y="1291" type="move" name="top"/>
    </contour>
    <contour>
      <point x="455.19300378391506" y="4" type="move" name="bottom"/>
    </contour>
    <contour>
      <point x="722.59622156188254" y="58" type="move" name="ogonek"/>
    </contour>
    <contour>
      <point x="1156.840329221619" y="1600" type="move" name="top_dd"/>
    </contour>
    <contour>
      <point x="844.14906847382974" y="-407" type="move" name="bottom_dd"/>
    </contour>
    <contour>
      <point x="906.63321777796739" y="654" type="move" name="rhotichook"/>
    </contour>
    <contour>
      <point x="1108.6980274921386" y="1291" type="move" name="top0315"/>
    </contour>
    <contour>
      <point x="824.42367001639286" y="152.59314607170967" type="curve"/>
      <point x="788.09655243643738" y="181.27505246353692" type="line"/>
      <point x="694.55862371013302" y="87.87298067666525"/>
      <point x="585.5270732150625" y="32.067735324973469"/>
      <point x="451.36302254427551" y="33.214980682632614" type="curve" smooth="yes"/>
      <point x="193.92633005402422" y="35.416338265933973"/>
      <point x="88.452803607060176" y="294.41636731936927"/>
      <point x="125.80050477148588" y="517.91508641243638" type="curve" smooth="yes"/>
      <point x="133.82266263012616" y="561.71001416525496" type="line" smooth="yes"/>
      <point x="134.80102094314091" y="566.99343672791849"/>
      <point x="135.9023734233694" y="572.22645814294651"/>
      <point x="137.08136828784814" y="577.46866133859021" type="curve"/>
      <point x="922.51752580028131" y="577.14885930250671" type="line"/>
      <point x="931.50004575537889" y="639.92895799529492" type="line" smooth="yes"/>
      <point x="961.82944582577761" y="868.20705737155959"/>
      <point x="856.86727660928329" y="1101.862514466502"/>
      <point x="598.83334643416936" y="1101.8507549761482" type="curve" smooth="yes"/>
      <point x="310.14605895684133" y="1101.8375985072682"/>
      <point x="119.41669994104009" y="820.294974106474"/>
      <point x="77.580368671734888" y="562.04387685408335" type="curve" smooth="yes"/>
      <point x="70.921867909900399" y="518.02605789834979" type="line" smooth="yes"/>
      <point x="35.234544991020577" y="262.09104465740506"/>
      <point x="160.56115492833607" y="-19.691866616415762"/>
      <point x="452.05974625260478" y="-19.863196306404994" type="curve" smooth="yes"/>
      <point x="599.55232438737141" y="-19.949885774003249"/>
      <point x="728.13220659829631" y="42.491999316881291"/>
    </contour>
    <contour>
      <point x="599.39863078222527" y="1047.782149136618" type="curve" smooth="yes"/>
      <point x="817.74275792537253" y="1047.0879218471086"/>
      <point x="909.9170663862817" y="836.07921988577073"/>
      <point x="875.587783507219" y="644.27207633736714" type="curve" smooth="yes"/>
      <point x="872.84379179242103" y="630.68507750101458" type="line"/>
      <point x="144.081441868338" y="630.71913533447514" type="line"/>
      <point x="208.34753608719501" y="834.95856170041031"/>
      <point x="362.96053914425283" y="1048.533906363351"/>
    </contour>
  </outline>
</glyph>
<glyph name="f" format="1">
  <advance width="625.65"/>
  <unicode hex="0066"/>
  <outline>
    <contour>
      <point x="689.06462859767294" y="1680" type="move" name="top"/>
    </contour>
    <contour>
      <point x="218.15858252534537" y="10" type="move" name="bottom"/>
    </contour>
    <contour>
      <point x="798.43206351636377" y="1600" type="move" name="top_dd"/>
    </contour>
    <contour>
      <point x="451.65846203902163" y="-407" type="move" name="bottom_dd"/>
    </contour>
    <contour>
      <point x="812.25462859767288" y="1680" type="move" name="top0315"/>
    </contour>
    <contour>
      <point x="652.16523951444208" y="1027.2593811616978" type="line"/>
      <point x="659.66022397699851" y="1081.7425372298774" type="line"/>
      <point x="383.37797930279885" y="1082.0922362395459" type="line"/>
      <point x="410.53276125395223" y="1235.9672828102316" type="line" smooth="yes"/>
      <point x="438.3140357808598" y="1376.7037803354872"/>
      <point x="528.66385957101693" y="1500.5811467126009"/>
      <point x="682.92098921093191" y="1503.0107020482628" type="curve" smooth="yes"/>
      <point x="721.00500272787326" y="1503.6105266298528"/>
      <point x="757.13724582208238" y="1498.2124141420661"/>
      <point x="793.83959515664242" y="1488.6882111602995" type="curve"/>
      <point x="808.60709489340525" y="1539.4324257201288" type="line"/>
      <point x="767.1725870121594" y="1550.7332992236261"/>
      <point x="725.61764732164215" y="1557.2527574019139"/>
      <point x="682.53345063351537" y="1556.7870256041663" type="curve" smooth="yes"/>
      <point x="493.53731128918685" y="1554.7440140474848"/>
      <point x="386.92023673322871" y="1409.9533542705994"/>
      <point x="355.41394819488687" y="1236.1849549133121" type="curve" smooth="yes"/>
      <point x="329.50332594549127" y="1082.1203010262179" type="line"/>
      <point x="146.02382192744813" y="1081.7264888057484" type="line"/>
      <point x="138.6461690114034" y="1027.2486914276228" type="line"/>
      <point x="319.41727914457124" y="1026.9409732143995" type="line"/>
      <point x="142.7678801034449" y="0.0" type="line"/>
      <point x="196.57950898361196" y="0.0" type="line"/>
      <point x="374.04470293041805" y="1026.9133294830071" type="line"/>
    </contour>
  </outline>
</glyph>
<glyph name="g" format="1">
  <advance width="1089.31"/>
  <unicode hex="0067"/>
  <outline>
    <contour>
      <point x="669.20962382629102" y="1290" type="move" name="top"/>
    </contour>
    <contour>
      <point x="356.47717949836715" y="-447" type="move" name="bottom"/>
    </contour>
    <contour>
      <point x="1262.0920635163639" y="1600" type="move" name="top_dd"/>
    </contour>
    <contour>
      <point x="915.3184620390216" y="-407" type="move" name="bottom_dd"/>
    </contour>
    <contour>
      <point x="1208.5296238262908" y="1290" type="move" name="top0315"/>
    </contour>
    <contour>
      <point x="821.72399263973591" y="14.916094156932719" type="curve" smooth="yes"/>
      <point x="1005.2366270541106" y="1081.7111931715026" type="line"/>
      <point x="950.56999399440383" y="1081.8049868706532" type="line"/>
      <point x="914.67331690354433" y="884.64944313032947" type="line"/>
      <point x="863.91431736956133" y="1025.9622138922762"/>
      <point x="744.81902507782229" y="1102.1158092155504"/>
      <point x="595.38705020437988" y="1101.8990050909665" type="curve" smooth="yes"/>
      <point x="297.3036841161603" y="1101.4665293554854"/>
      <point x="153.25522744776177" y="807.47507816343511"/>
      <point x="108.31685426938229" y="552.02617058419969" type="curve" smooth="yes"/>
      <point x="104.79571991163859" y="531.0190186938845" type="line" smooth="yes"/>
      <point x="67.559276271760922" y="298.15855262789142"/>
      <point x="110.16244846658577" y="-19.549493371372748"/>
      <point x="409.05912838271945" y="-19.869730893277509" type="curve" smooth="yes"/>
      <point x="564.71741483126584" y="-20.036502982984931"/>
      <point x="701.72962309549189" y="51.444554004211241"/>
      <point x="797.49924667158325" y="172.18859180200411" type="curve"/>
      <point x="766.22292128375216" y="14.868834159177471" type="line" smooth="yes"/>
      <point x="723.8859633192676" y="-201.37759265660372"/>
      <point x="583.7170030724219" y="-382.82654155695445"/>
      <point x="347.84142621119867" y="-382.78923046626869" type="curve" smooth="yes"/>
      <point x="224.48820813611854" y="-382.76971830156208"/>
      <point x="137.36274258785565" y="-319.53469980106161"/>
      <point x="73.636844876875571" y="-218.07216668190188" type="curve"/>
      <point x="32.850055328046821" y="-252.33583607940943" type="line"/>
      <point x="103.57588189592433" y="-368.6025098528529"/>
      <point x="212.5483286021109" y="-435.70544254972879"/>
      <point x="350.565342149201" y="-435.86475306602682" type="curve" smooth="yes"/>
      <point x="613.95752972488867" y="-436.16878185431261"/>
      <point x="778.15594404102069" y="-227.9145236304858"/>
    </contour>
    <contour>
      <point x="159.9738207265919" y="531.010444800154" type="curve" smooth="yes"/>
      <point x="163.6857980723957" y="552.01595800770076" type="line" smooth="yes"/>
      <point x="205.19318485078477" y="775.66527709264938"/>
      <point x="330.04254967938817" y="1047.9124233851651"/>
      <point x="595.01218832776146" y="1047.781269399276" type="curve" smooth="yes"/>
      <point x="773.21021933604845" y="1047.6930653991365"/>
      <point x="875.30677109138549" y="935.94280138589079"/>
      <point x="897.67241892136838" y="766.75365486106739" type="curve"/>
      <point x="810.56591692531106" y="276.44657297209545" type="line"/>
      <point x="725.39557034591962" y="127.01521454110804"/>
      <point x="582.52477781077948" y="33.500227341200073"/>
      <point x="407.48568286444254" y="34.220290907689581" type="curve" smooth="yes"/>
      <point x="139.47022160121259" y="35.32283413650768"/>
      <point x="125.96671624576658" y="330.78220154592373"/>
    </contour>
  </outline>
</glyph>
<glyph name="h" format="1">
  <advance width="1087.37"/>
  <unicode hex="0068"/>
  <outline>
    <contour>
      <point x="633.49266621504376" y="1611" type="move" name="top"/>
    </contour>
    <contour>
      <point x="442.08413684255277" y="1306" type="move" name="cross"/>
    </contour>
    <contour>
      <point x="452.89858252534543" y="10" type="move" name="bottom"/>
    </contour>
    <contour>
      <point x="822.68076189018177" y="0" type="move" name="right"/>
    </contour>
    <contour>
      <point x="1260.1520635163638" y="1600" type="move" name="top_dd"/>
    </contour>
    <contour>
      <point x="913.37846203902154" y="-407" type="move" name="bottom_dd"/>
    </contour>
    <contour>
      <point x="1262.0526662150437" y="1611" type="move" name="top0315"/>
    </contour>
    <contour>
      <point x="671.83776996108713" y="1048.783538380364" type="curve" smooth="yes"/>
      <point x="886.67802876336191" y="1051.0223106258688"/>
      <point x="920.45238084689367" y="881.81585979248973"/>
      <point x="889.88642822405586" y="700.02373412021313" type="curve" smooth="yes"/>
      <point x="769.38728851503095" y="0.0" type="line"/>
      <point x="823.2001045867454" y="0.0" type="line"/>
      <point x="943.6418261388651" y="700.00274483764349" type="line" smooth="yes"/>
      <point x="977.74694201064062" y="913.081450759164"/>
      <point x="919.33923713224772" y="1103.4214504803267"/>
      <point x="673.94615069890017" y="1101.8257456482429" type="curve" smooth="yes"/>
      <point x="491.99881586233289" y="1100.6426061979701"/>
      <point x="347.55482908965689" y="978.5949711469957"/>
      <point x="256.41051310122776" y="830.4670924033195" type="curve"/>
      <point x="381.61289631102079" y="1535.7257457604921" type="line"/>
      <point x="327.79984375215849" y="1535.7216164636404" type="line"/>
      <point x="63.219826354045679" y="0.0" type="line"/>
      <point x="117.02388389668782" y="0.0" type="line"/>
      <point x="237.06051394816035" y="692.5354406601424" type="line"/>
      <point x="291.31531904291421" y="873.96153598435762"/>
      <point x="479.43337960913709" y="1046.7785621648509"/>
    </contour>
  </outline>
</glyph>
<glyph name="i" format="1">
  <advance width="409.34"/>
  <unicode hex="0069"/>
  <outline>
    <contour>
      <point x="101.75858252534535" y="10" type="move" name="bottom"/>
    </contour>
    <contour>
      <point x="127.19076189018172" y="0" type="move" name="ogonek"/>
    </contour>
    <contour>
      <point x="384.24206351636383" y="1600" type="move" name="top"/>
    </contour>
    <contour>
      <point x="582.12206351636382" y="1600" type="move" name="top_dd"/>
    </contour>
    <contour>
      <point x="235.34846203902168" y="-407" type="move" name="bottom_dd"/>
    </contour>
    <contour>
      <point x="214.97023142988365" y="654" type="move" name="rhotichook"/>
    </contour>
    <contour>
      <point x="582.12206351636382" y="1600" type="move" name="top0315"/>
    </contour>
    <contour>
      <point x="293.81155852785412" y="1421.5392442473942" type="curve" smooth="yes"/>
      <point x="289.31829737539363" y="1392.564181927567"/>
      <point x="311.10385091896893" y="1365.5307975956744"/>
      <point x="340.76940496649792" y="1365.3420636338294" type="curve" smooth="yes"/>
      <point x="369.05041577330991" y="1365.1621382157505"/>
      <point x="398.75693314924405" y="1390.536457159056"/>
      <point x="403.13754172374945" y="1418.4415741841356" type="curve" smooth="yes"/>
      <point x="407.69584193912561" y="1447.4786129384779"/>
      <point x="385.15356750398342" y="1475.5096475991243"/>
      <point x="355.39414089411986" y="1475.6546682463813" type="curve" smooth="yes"/>
      <point x="326.90279988285994" y="1475.7935093863282"/>
      <point x="298.10960910214942" y="1449.2554795202495"/>
    </contour>
    <contour>
      <point x="315.56334360580189" y="1081.7281308501433" type="line"/>
      <point x="261.75184138795362" y="1081.7248783996597" type="line"/>
      <point x="75.836681562663173" y="0.0" type="line"/>
      <point x="129.64818378051137" y="0.0" type="line"/>
    </contour>
  </outline>
</glyph>
<glyph name="j" format="1">
  <advance width="431.65"/>
  <unicode hex="006A"/>
  <outline>
    <contour>
      <point x="389.09206351636379" y="1600" type="move" name="top"/>
    </contour>
    <contour>
      <point x="1.3237947361707398" y="-459" type="move" name="bottom"/>
    </contour>
    <contour>
      <point x="604.43206351636377" y="1600" type="move" name="top_dd"/>
    </contour>
    <contour>
      <point x="257.65846203902169" y="-407" type="move" name="bottom_dd"/>
    </contour>
    <contour>
      <point x="604.43206351636377" y="1600" type="move" name="top0315"/>
    </contour>
    <contour>
      <point x="299.63121794845563" y="1421.5386630935839" type="curve" smooth="yes"/>
      <point x="295.13795425353953" y="1392.5637159861642"/>
      <point x="316.92393864002685" y="1365.5306303310865"/>
      <point x="346.58918601696394" y="1365.34193084003" type="curve" smooth="yes"/>
      <point x="374.87001963620588" y="1365.1620375513344"/>
      <point x="404.5766695385604" y="1390.5358908848514"/>
      <point x="408.95737852955426" y="1418.4409003859796" type="curve" smooth="yes"/>
      <point x="413.51585868694298" y="1447.4783078842072"/>
      <point x="390.97348689093457" y="1475.5086924590721"/>
      <point x="361.2138790462177" y="1475.6536132045039" type="curve" smooth="yes"/>
      <point x="332.72267584766024" y="1475.7923571835015"/>
      <point x="303.92930211156312" y="1449.2549890751159"/>
    </contour>
    <contour>
      <point x="262.7234318926827" y="1081.7246255965385" type="line"/>
      <point x="53.109335928644342" y="-128.93389037176965" type="line" smooth="yes"/>
      <point x="25.739355022893729" y="-266.72877619559665"/>
      <point x="-66.302828311318478" y="-385.08403756970449"/>
      <point x="-217.68394946668798" y="-383.0153624313968" type="curve" smooth="yes"/>
      <point x="-248.09343682148184" y="-382.59980631726961"/>
      <point x="-276.55214280704064" y="-375.46489282710064"/>
      <point x="-304.98430242385001" y="-365.42590032609075" type="curve"/>
      <point x="-315.01586975326728" y="-416.62470020811003" type="line"/>
      <point x="-283.53231492960106" y="-428.24861039522921"/>
      <point x="-252.6506609732939" y="-436.68044602468507"/>
      <point x="-218.79853858491157" y="-436.80161134372412" type="curve" smooth="yes"/>
      <point x="-33.500985642342187" y="-437.46483821209756"/>
      <point x="77.008178977165386" y="-300.74564401905661"/>
      <point x="108.31539935061546" y="-129.19200245345073" type="curve" smooth="yes"/>
      <point x="316.5348123601197" y="1081.727823007066" type="line"/>
    </contour>
  </outline>
</glyph>
<glyph name="k" format="1">
  <advance width="939.93"/>
  <unicode hex="006B"/>
  <outline>
    <contour>
      <point x="418.4879171310472" y="114" type="move" name="bottom"/>
    </contour>
    <contour>
      <point x="450.78684176277466" y="1289" type="move" name="cross"/>
    </contour>
    <contour>
      <point x="702.53544827856012" y="1612" type="move" name="top"/>
    </contour>
    <contour>
      <point x="702.53544827856012" y="1612" type="move" name="marktop"/>
    </contour>
    <contour>
      <point x="1112.7120635163637" y="1600" type="move" name="top_dd"/>
    </contour>
    <contour>
      <point x="765.9384620390216" y="-407" type="move" name="bottom_dd"/>
    </contour>
    <contour>
      <point x="988.68544827855999" y="1612" type="move" name="top0315"/>
    </contour>
    <contour>
      <point x="373.10445700831656" y="582.24777472631615" type="line"/>
      <point x="375.95973794853899" y="584.6561358517597" type="line"/>
      <point x="755.83093423199171" y="0.0" type="line"/>
      <point x="822.23043158353607" y="0.0" type="line"/>
      <point x="415.84893970573319" y="618.37477324741974" type="line"/>
      <point x="982.83453283152744" y="1081.4957118162852" type="line"/>
      <point x="899.52313853871374" y="1081.4961906838064" type="line"/>
      <point x="344.73488548052893" y="628.12523336991774" type="line"/>
      <point x="204.58733499123787" y="512.81130662400346" type="line"/>
      <point x="381.60933604065201" y="1535.730886385136" type="line"/>
      <point x="327.79882992007094" y="1535.7272349590075" type="line"/>
      <point x="63.214985253124595" y="0.0" type="line"/>
      <point x="117.00593423271876" y="0.0" type="line"/>
      <point x="193.5207655931934" y="445.77383637690946" type="line"/>
    </contour>
  </outline>
</glyph>
<glyph name="m" format="1">
  <advance width="1780.9199999999998"/>
  <unicode hex="006D"/>
  <outline>
    <contour>
      <point x="1007.7396238262909" y="1290" type="move" name="top"/>
    </contour>
    <contour>
      <point x="788.51858252534532" y="10" type="move" name="bottom"/>
    </contour>
    <contour>
      <point x="1007.7396238262909" y="1290" type="move" name="marktop"/>
    </contour>
    <contour>
      <point x="1953.7020635163635" y="1600" type="move" name="top_dd"/>
    </contour>
    <contour>
      <point x="1606.9284620390215" y="-407" type="move" name="bottom_dd"/>
    </contour>
    <contour>
      <point x="1900.139623826291" y="1290" type="move" name="top0315"/>
    </contour>
    <contour>
      <point x="661.15653385104679" y="1048.7821546158534" type="curve" smooth="yes"/>
      <point x="867.49474073876604" y="1050.7676196898994"/>
      <point x="916.19027429280493" y="902.45280176915901"/>
      <point x="885.68879303492122" y="720.03178240506156" type="curve" smooth="yes"/>
      <point x="761.61166192868109" y="0.0" type="line"/>
      <point x="815.42190133681254" y="0.0" type="line"/>
      <point x="940.14137903883989" y="719.96257191629354" type="line"/>
      <point x="985.37553381012617" y="905.83801198624872"/>
      <point x="1189.0985352536773" y="1045.2098557136235"/>
      <point x="1373.1565927421793" y="1048.7753907894441" type="curve" smooth="yes"/>
      <point x="1588.761949536238" y="1052.9520537004503"/>
      <point x="1624.7632137893033" y="882.54094349467198"/>
      <point x="1594.1159310596686" y="700.0240631762548" type="curve" smooth="yes"/>
      <point x="1473.6080750979031" y="0.0" type="line"/>
      <point x="1527.4203710565064" y="0.0" type="line"/>
      <point x="1647.8556529960713" y="700.00282769503724" type="line" smooth="yes"/>
      <point x="1682.1259155054427" y="914.48488787666383"/>
      <point x="1620.4889414523316" y="1102.9223180087288"/>
      <point x="1375.2625390040148" y="1101.8309197465276" type="curve" smooth="yes"/>
      <point x="1194.2371345480653" y="1101.025252779737"/>
      <point x="1039.2895212966757" y="996.46418246460928"/>
      <point x="946.12866705187275" y="845.80046242521303" type="curve"/>
      <point x="942.11625068515059" y="1017.679200979686"/>
      <point x="830.85488586243559" y="1102.9248923591019"/>
      <point x="663.28697899622705" y="1101.830800120626" type="curve" smooth="yes"/>
      <point x="480.01616692160025" y="1100.6341797368068"/>
      <point x="336.15167060696422" y="976.39764993964593"/>
      <point x="245.90710740551754" y="826.6082277777914" type="curve"/>
      <point x="293.54314743493057" y="1081.7250945688575" type="line"/>
      <point x="238.56165125650659" y="1081.6825392414448" type="line"/>
      <point x="52.552662296418603" y="0.0" type="line"/>
      <point x="107.33108709763793" y="0.0" type="line"/>
      <point x="225.80589622215751" y="683.74191470636879" type="line"/>
      <point x="278.90176680273225" y="868.22386807591647"/>
      <point x="464.76734499804149" y="1046.8924227951245"/>
    </contour>
  </outline>
</glyph>
<glyph name="n" format="1">
  <advance width="1087.37"/>
  <unicode hex="006E"/>
  <outline>
    <contour>
      <point x="679.87962382629098" y="1290" type="move" name="top"/>
    </contour>
    <contour>
      <point x="458.71858252534537" y="10" type="move" name="bottom"/>
    </contour>
    <contour>
      <point x="161.72401145131653" y="1536" type="move" name="caron"/>
    </contour>
    <contour>
      <point x="820.74076189018172" y="0" type="move" name="right"/>
    </contour>
    <contour>
      <point x="679.87962382629098" y="1290" type="move" name="marktop"/>
    </contour>
    <contour>
      <point x="1260.1520635163638" y="1600" type="move" name="top_dd"/>
    </contour>
    <contour>
      <point x="913.37846203902154" y="-407" type="move" name="bottom_dd"/>
    </contour>
    <contour>
      <point x="1206.5896238262908" y="1290" type="move" name="top0315"/>
    </contour>
    <contour>
      <point x="671.83715012223331" y="1048.7827755427927" type="curve" smooth="yes"/>
      <point x="886.67319830599649" y="1051.0209789681114"/>
      <point x="920.4545996837478" y="881.81664806565686"/>
      <point x="889.889096350655" y="700.02445321607877" type="curve" smooth="yes"/>
      <point x="769.38901292604146" y="0.0" type="line"/>
      <point x="823.20094762326482" y="0.0" type="line"/>
      <point x="943.63986025168174" y="700.00333657248723" type="line" smooth="yes"/>
      <point x="977.73813873685219" y="913.07735724099791"/>
      <point x="919.34494964767987" y="1103.426216844405"/>
      <point x="673.94696819560443" y="1101.8273091004266" type="curve" smooth="yes"/>
      <point x="491.96166563236949" y="1100.6415711092793"/>
      <point x="347.56733056038161" y="978.54305245684009"/>
      <point x="256.28196080856986" y="830.48592094596677" type="curve"/>
      <point x="303.23246742181595" y="1081.7283137329857" type="line"/>
      <point x="249.22830276893581" y="1081.6839766538985" type="line"/>
      <point x="63.221444742498917" y="0.0" type="line"/>
      <point x="117.02477343105103" y="0.0" type="line"/>
      <point x="237.05976664225392" y="692.53569686164712" type="line"/>
      <point x="291.30938309917786" y="873.96142717147939"/>
      <point x="479.43727624195196" y="1046.7783165128008"/>
    </contour>
  </outline>
</glyph>
<glyph name="o" format="1">
  <advance width="1093.19"/>
  <unicode hex="006F"/>
  <outline>
    <contour>
      <point x="657.49222716291706" y="1290" type="move" name="top"/>
    </contour>
    <contour>
      <point x="454.95179917481244" y="-10" type="move" name="bottom"/>
    </contour>
    <contour>
      <point x="1248.990329221619" y="1600" type="move" name="top_dd"/>
    </contour>
    <contour>
      <point x="936.29906847382983" y="-407" type="move" name="bottom_dd"/>
    </contour>
    <contour>
      <point x="982.29321777796747" y="654" type="move" name="rhotichook"/>
    </contour>
    <contour>
      <point x="1200.6922271629171" y="1290" type="move" name="top0315"/>
    </contour>
    <contour>
      <point x="74.131655118971324" y="520.02521582987947" type="line" smooth="yes"/>
      <point x="37.005688567241293" y="256.08141700037396"/>
      <point x="155.60816559589358" y="-20.004142474587965"/>
      <point x="455.96733883302988" y="-19.889834972889265" type="curve" smooth="yes"/>
      <point x="756.79094395660275" y="-19.775350722639569"/>
      <point x="950.42366914577997" y="245.78052697221767"/>
      <point x="994.68598592026785" y="519.9578768361273" type="curve" smooth="yes"/>
      <point x="1001.0456802523141" y="561.97512178474881" type="line" smooth="yes"/>
      <point x="1038.2178728481947" y="825.98792952063468"/>
      <point x="920.99950203256867" y="1102.0318981190146"/>
      <point x="620.1796602223111" y="1101.8888506924122" type="curve" smooth="yes"/>
      <point x="319.69816633779607" y="1101.7459641587875"/>
      <point x="124.7573207180703" y="836.1212873004805"/>
      <point x="80.490206754786342" y="562.04254357941841" type="curve" smooth="yes"/>
    </contour>
    <contour>
      <point x="135.01597398908012" y="562.00629332033213" type="line" smooth="yes"/>
      <point x="176.8355953774751" y="801.97985987428319"/>
      <point x="355.83191112566021" y="1047.8982997340763"/>
      <point x="620.74527214586931" y="1047.8035328063247" type="curve" smooth="yes"/>
      <point x="885.36004667960651" y="1047.7088726913207"/>
      <point x="981.29153830214705" y="788.89075536079906"/>
      <point x="947.01747970083795" y="561.97321119970206" type="curve" smooth="yes"/>
      <point x="940.17697712521442" y="519.99157221049552" type="line" smooth="yes"/>
      <point x="898.21414324795467" y="278.88990688807121"/>
      <point x="721.80720969921583" y="34.13643300825553"/>
      <point x="455.40172096222193" y="34.191822062640526" type="curve" smooth="yes"/>
      <point x="188.41629677920378" y="34.24733169290446"/>
      <point x="93.476663810818323" y="290.67149599426773"/>
      <point x="128.17641225979628" y="520.02468888673025" type="curve" smooth="yes"/>
    </contour>
  </outline>
</glyph>
<glyph name="p" format="1">
  <advance width="1087.37"/>
  <unicode hex="0070"/>
  <outline>
    <contour>
      <point x="683.00180319112735" y="1280" type="move" name="top"/>
    </contour>
    <contour>
      <point x="15.158462039021686" y="-407" type="move" name="bottom"/>
    </contour>
    <contour>
      <point x="683.00180319112735" y="1280" type="move" name="marktop"/>
    </contour>
    <contour>
      <point x="1260.1520635163638" y="1600" type="move" name="top_dd"/>
    </contour>
    <contour>
      <point x="913.37846203902154" y="-407" type="move" name="bottom_dd"/>
    </contour>
    <contour>
      <point x="1204.8618031911274" y="1280" type="move" name="top0315"/>
    </contour>
    <contour>
      <point x="473.07011900026521" y="-19.891663198115097" type="curve" smooth="yes"/>
      <point x="767.65672196821083" y="-19.055603612878215"/>
      <point x="914.04134882011783" y="279.13404824976192"/>
      <point x="958.38309452415388" y="530.97161035511272" type="curve" smooth="yes"/>
      <point x="961.90395085957061" y="551.97882979263647" type="line" smooth="yes"/>
      <point x="999.82798025234524" y="788.81467855817846"/>
      <point x="958.18405051438253" y="1102.1853589574264"/>
      <point x="655.52450211451287" y="1101.8585401013747" type="curve" smooth="yes"/>
      <point x="492.39592179230448" y="1101.6823900466611"/>
      <point x="358.99541168446854" y="1016.7931774878359"/>
      <point x="264.10676907064067" y="888.73958344640175" type="curve"/>
      <point x="301.24930348315866" y="1081.7809967768324" type="line"/>
      <point x="247.18618775061435" y="1081.6727575545319" type="line"/>
      <point x="-10.798867521517991" y="-415.72490751071456" type="line"/>
      <point x="43.006724210718872" y="-415.72203556706091" type="line"/>
      <point x="145.71241911547736" y="168.60875955467324" type="line"/>
      <point x="206.4091696065824" y="39.625419201437978"/>
      <point x="333.94235581160444" y="-20.286518560899886"/>
    </contour>
    <contour>
      <point x="657.1016381650013" y="1047.7671060389951" type="curve" smooth="yes"/>
      <point x="925.71955193570705" y="1047.4385374716949"/>
      <point x="940.8623674380234" y="753.03552421566803"/>
      <point x="906.72180649519191" y="551.98830047851527" type="curve" smooth="yes"/>
      <point x="903.00980976035714" y="530.98267685238875" type="line" smooth="yes"/>
      <point x="861.56517531120414" y="307.64174037574924"/>
      <point x="737.97469929137878" y="35.078036205878881"/>
      <point x="473.42424505359952" y="34.178064001055183" type="curve" smooth="yes"/>
      <point x="316.97646484096526" y="33.645845471688432"/>
      <point x="193.19836169641849" y="113.31850058922913"/>
      <point x="159.6021575649558" y="269.24955529697513" type="curve"/>
      <point x="249.67354943688031" y="775.36134067591115" type="line"/>
      <point x="306.40100211083978" y="938.41572303386477"/>
      <point x="491.97778057628466" y="1047.96908255111"/>
    </contour>
  </outline>
</glyph>
<glyph name="q" format="1">
  <advance width="1087.37"/>
  <unicode hex="0071"/>
  <outline>
    <contour>
      <point x="640.109623826291" y="1290" type="move" name="top"/>
    </contour>
    <contour>
      <point x="724.22846203902168" y="-407" type="move" name="bottom"/>
    </contour>
    <contour>
      <point x="640.109623826291" y="1290" type="move" name="marktop"/>
    </contour>
    <contour>
      <point x="1260.1520635163638" y="1600" type="move" name="top_dd"/>
    </contour>
    <contour>
      <point x="913.37846203902154" y="-407" type="move" name="bottom_dd"/>
    </contour>
    <contour>
      <point x="1206.5896238262908" y="1290" type="move" name="top0315"/>
    </contour>
    <contour>
      <point x="1006.2000663519036" y="1081.7129703412393" type="line"/>
      <point x="952.50197459507535" y="1081.8106841514402" type="line"/>
      <point x="917.38780166314928" y="889.34091684112468" type="line"/>
      <point x="863.98014789691285" y="1028.4528090379747"/>
      <point x="744.44909782400782" y="1101.9965107414396"/>
      <point x="596.35609395623555" y="1101.8905120435945" type="curve" smooth="yes"/>
      <point x="298.29015944858065" y="1101.6771690759685"/>
      <point x="154.19714016415034" y="807.31135712929961"/>
      <point x="109.28699089635744" y="552.02662029705141" type="curve" smooth="yes"/>
      <point x="105.76583216829754" y="531.01940701509807" type="line" smooth="yes"/>
      <point x="68.521387538369538" y="298.10884935599199"/>
      <point x="111.13877787972888" y="-19.484704716793615"/>
      <point x="410.02691623405292" y="-19.869749148158864" type="curve" smooth="yes"/>
      <point x="564.53846402250497" y="-20.068799573462261"/>
      <point x="701.86035266676402" y="50.032810411595122"/>
      <point x="798.74019661281579" y="168.52572964069557" type="curve"/>
      <point x="694.37734005920629" y="-415.72270431029358" type="line"/>
      <point x="748.20165856085976" y="-415.72056762002723" type="line"/>
    </contour>
    <contour>
      <point x="161.91525239662724" y="531.01049959860029" type="curve" smooth="yes"/>
      <point x="165.62634811829025" y="552.0160304093157" type="line" smooth="yes"/>
      <point x="207.04856197662554" y="775.33446096234115"/>
      <point x="331.0787004795456" y="1048.017429279279"/>
      <point x="595.98592269917185" y="1047.7853920532875" type="curve" smooth="yes"/>
      <point x="767.69779069457127" y="1047.6349863935791"/>
      <point x="874.08172484318811" y="938.03884694894589"/>
      <point x="901.11525843909908" y="774.86737777780968" type="curve"/>
      <point x="811.13203396906363" y="268.74185476782367" type="line"/>
      <point x="723.95735094160591" y="123.41808617550987"/>
      <point x="580.54689073097211" y="33.450093262617159"/>
      <point x="408.45774872500886" y="34.217874517501961" type="curve" smooth="yes"/>
      <point x="140.46913806826495" y="35.413514343387895"/>
      <point x="127.94976331177699" y="331.05996726219792"/>
    </contour>
  </outline>
</glyph>
<glyph name="r" format="1">
  <advance width="664.4499999999999"/>
  <unicode hex="0072"/>
  <outline>
    <contour>
      <point x="519.82962382629103" y="1290" type="move" name="top"/>
    </contour>
    <contour>
      <point x="92.643621096992646" y="19" type="move" name="bottom"/>
    </contour>
    <contour>
      <point x="837.23206351636372" y="1600" type="move" name="top_dd"/>
    </contour>
    <contour>
      <point x="490.45846203902158" y="-407" type="move" name="bottom_dd"/>
    </contour>
    <contour>
      <point x="783.66962382629094" y="1290" type="move" name="top0315"/>
    </contour>
    <contour>
      <point x="643.18076024063714" y="1049.1824956506364" type="curve" smooth="yes"/>
      <point x="665.03640733802285" y="1049.1217828517836"/>
      <point x="686.65357659122219" y="1046.3420647567646"/>
      <point x="708.28365533412102" y="1043.6123329161446" type="curve"/>
      <point x="721.4915330877418" y="1090.3448416821807" type="line"/>
      <point x="696.17994637734478" y="1097.5024996567618"/>
      <point x="671.48244378558525" y="1101.6298149803044"/>
      <point x="645.05060837692679" y="1101.8278266809464" type="curve" smooth="yes"/>
      <point x="473.12870368231313" y="1103.1157640564584"/>
      <point x="344.18402117358335" y="998.57119623111612"/>
      <point x="260.72490788708416" y="856.28150157046082" type="curve"/>
      <point x="303.22695884596465" y="1081.7439712465073" type="line"/>
      <point x="249.20722916462182" y="1081.6805065335795" type="line"/>
      <point x="63.224427732585738" y="0.0" type="line"/>
      <point x="117.0337230917756" y="0.0" type="line"/>
      <point x="239.72672918652853" y="708.48585205807728" type="line"/>
      <point x="288.82866416931205" y="885.43596568535952"/>
      <point x="452.74711987447324" y="1049.7115012321606"/>
    </contour>
  </outline>
</glyph>
<glyph name="s" format="1">
  <advance width="988.43"/>
  <unicode hex="0073"/>
  <outline>
    <contour>
      <point x="604.14222716291704" y="1290" type="move" name="top"/>
    </contour>
    <contour>
      <point x="402.38080082092051" y="-5" type="move" name="bottom"/>
    </contour>
    <contour>
      <point x="1144.2303292216191" y="1600" type="move" name="top_dd"/>
    </contour>
    <contour>
      <point x="831.53906847382962" y="-407" type="move" name="bottom_dd"/>
    </contour>
    <contour>
      <point x="1095.9322271629171" y="1290" type="move" name="top0315"/>
    </contour>
    <contour>
      <point x="760.989723192003" y="264.95546339835641" type="curve" smooth="yes"/>
      <point x="730.76094914355224" y="105.47989257861096"/>
      <point x="548.99005969604082" y="35.537643611942386"/>
      <point x="404.89780987765039" y="34.232324410781928" type="curve" smooth="yes"/>
      <point x="248.46823053339688" y="32.815242410848803"/>
      <point x="97.617827797685493" y="98.513002716659372"/>
      <point x="106.11246377360543" y="274.85025405196473" type="curve"/>
      <point x="52.768720623707381" y="275.01337652254023" type="line"/>
      <point x="32.949706187969014" y="68.354198933704112"/>
      <point x="225.16573594843737" y="-20.104720397552818"/>
      <point x="405.53112306978562" y="-19.831363270001173" type="curve" smooth="yes"/>
      <point x="584.57645975202092" y="-19.560006776839632"/>
      <point x="785.87270097887119" y="67.662442801178088"/>
      <point x="815.09758065128392" y="263.8229840432748" type="curve" smooth="yes"/>
      <point x="845.02665289464983" y="464.71014169595151"/>
      <point x="664.98620960573851" y="536.28392142236544"/>
      <point x="502.04534694763697" y="578.95234261842597" type="curve" smooth="yes"/>
      <point x="370.7004175162408" y="613.34691178616822"/>
      <point x="195.78070365188722" y="661.78254954886359"/>
      <point x="228.19710684892175" y="831.01263759580968" type="curve" smooth="yes"/>
      <point x="257.49487372844402" y="983.96186019969275"/>
      <point x="425.42823194870931" y="1047.7316637524452"/>
      <point x="564.50418077082895" y="1047.68820932265" type="curve" smooth="yes"/>
      <point x="719.43651212557893" y="1047.6398005490778"/>
      <point x="862.06539733177362" y="963.09389127197846"/>
      <point x="842.56045134093063" y="793.2207789368166" type="curve"/>
      <point x="896.94848891824984" y="793.04820347703151" type="line"/>
      <point x="918.54360607216893" y="1000.3890330885297"/>
      <point x="755.44440394128185" y="1102.2053570740609"/>
      <point x="563.91744224232184" y="1101.8220487685842" type="curve" smooth="yes"/>
      <point x="394.88823142663193" y="1101.4837658459132"/>
      <point x="200.67964693192383" y="1014.3753049190459"/>
      <point x="173.56772533762165" y="829.17707765302453" type="curve" smooth="yes"/>
      <point x="144.32877907265433" y="629.44940447561248"/>
      <point x="329.29421171858695" y="571.76805532597325"/>
      <point x="487.44589338102378" y="532.00202347464608" type="curve" smooth="yes"/>
      <point x="616.51070685515197" y="499.54966236442726"/>
      <point x="792.22174067675405" y="429.72376687800806"/>
    </contour>
  </outline>
</glyph>
<glyph name="t" format="1">
  <advance width="628.56"/>
  <unicode hex="0074"/>
  <outline>
    <contour>
      <point x="296.94076189018176" y="0" type="move" name="bottom"/>
    </contour>
    <contour>
      <point x="630.50078097570918" y="1560" type="move" name="caron"/>
    </contour>
    <contour>
      <point x="339.99414174746551" y="659" type="move" name="cross"/>
    </contour>
    <contour>
      <point x="420.43513970538197" y="1540" type="move" name="top"/>
    </contour>
    <contour>
      <point x="610.03962382629106" y="1290" type="move" name="marktop"/>
    </contour>
    <contour>
      <point x="801.34206351636374" y="1600" type="move" name="top_dd"/>
    </contour>
    <contour>
      <point x="454.5684620390216" y="-407" type="move" name="bottom_dd"/>
    </contour>
    <contour>
      <point x="790.97513970538193" y="1540" type="move" name="top0315"/>
    </contour>
    <contour>
      <point x="450.88259423772672" y="-8.3950568960664089" type="curve"/>
      <point x="449.04144870744744" y="43.051792825926285" type="line"/>
      <point x="413.03032566603605" y="38.586409639617941"/>
      <point x="376.86848714914356" y="33.940611671454249"/>
      <point x="340.49817801629047" y="34.407551129879693" type="curve" smooth="yes"/>
      <point x="209.2911340129547" y="36.092050039271136"/>
      <point x="208.44736768532007" y="154.54643684726994"/>
      <point x="225.70597298199709" y="258.88626130520504" type="curve" smooth="yes"/>
      <point x="359.37879620165882" y="1026.9192237665882" type="line"/>
      <point x="598.84002039769609" y="1027.2626517761487" type="line"/>
      <point x="606.28412862558298" y="1081.743588241558" type="line"/>
      <point x="368.91664096203004" y="1082.086114706083" type="line"/>
      <point x="418.63967144018602" y="1373.7068609192663" type="line"/>
      <point x="363.85362457524832" y="1373.7047578789723" type="line"/>
      <point x="313.69928043562157" y="1082.0900766150153" type="line"/>
      <point x="118.87182158772676" y="1081.7477220773292" type="line"/>
      <point x="111.45915438995617" y="1027.2594938156944" type="line"/>
      <point x="304.01201147692086" y="1026.9433982347957" type="line"/>
      <point x="171.5858049434558" y="259.02611795375196" type="line" smooth="yes"/>
      <point x="149.06636646826863" y="114.07475066572184"/>
      <point x="171.81941340560991" y="-18.626428976290949"/>
      <point x="342.31740326889746" y="-19.947792410847104" type="curve" smooth="yes"/>
      <point x="378.98959678670178" y="-20.232002773785979"/>
      <point x="415.22727331341054" y="-16.798458288886174"/>
    </contour>
  </outline>
</glyph>
<glyph name="w" format="1">
  <advance width="1503.5"/>
  <unicode hex="0077"/>
  <outline>
    <contour>
      <point x="863.72797001684012" y="1293" type="move" name="top"/>
    </contour>
    <contour>
      <point x="643.98858252534535" y="10" type="move" name="bottom"/>
    </contour>
    <contour>
      <point x="863.72797001684012" y="1293" type="move" name="marktop"/>
    </contour>
    <contour>
      <point x="1676.2820635163639" y="1600" type="move" name="top_dd"/>
    </contour>
    <contour>
      <point x="1329.5084620390217" y="-407" type="move" name="bottom_dd"/>
    </contour>
    <contour>
      <point x="1623.2379700168401" y="1293" type="move" name="top0315"/>
    </contour>
    <contour>
      <point x="1496.5558916808227" y="1080.9650455605906" type="line"/>
      <point x="1432.8666081667657" y="1081.0861075042401" type="line"/>
      <point x="1088.1698261216086" y="317.3148033826775" type="line"/>
      <point x="987.84272328523389" y="82.93938024710431" type="line"/>
      <point x="958.53421486464686" y="308.29911390063751" type="line"/>
      <point x="855.33756248225177" y="1082.1654838334355" type="line"/>
      <point x="800.73164046695263" y="1081.5204924429493" type="line"/>
      <point x="432.30202592668763" y="312.92642500512721" type="line"/>
      <point x="321.60438629425386" y="84.394722895198001" type="line"/>
      <point x="305.77805139600804" y="308.16364555144634" type="line"/>
      <point x="223.42839264666634" y="1082.4329651932139" type="line"/>
      <point x="163.09847886624385" y="1082.5243307374319" type="line"/>
      <point x="282.87636448793751" y="0.0" type="line"/>
      <point x="336.58124713857819" y="0.0" type="line"/>
      <point x="730.02214557415755" y="808.82437658624917" type="line"/>
      <point x="817.87232187884172" y="1003.202917239925" type="line"/>
      <point x="832.37724382883607" y="817.76058369626321" type="line"/>
      <point x="952.28929920610426" y="0.0" type="line"/>
      <point x="1005.8548583976292" y="0.0" type="line"/>
    </contour>
  </outline>
</glyph>
<glyph name="y" format="1">
  <advance width="948.66"/>
  <unicode hex="0079"/>
  <outline>
    <contour>
      <point x="623.16797001684017" y="1293" type="move" name="top"/>
    </contour>
    <contour>
      <point x="564.52119585459627" y="-158" type="move" name="bottom"/>
    </contour>
    <contour>
      <point x="623.16797001684017" y="1293" type="move" name="marktop"/>
    </contour>
    <contour>
      <point x="1121.4420635163638" y="1600" type="move" name="top_dd"/>
    </contour>
    <contour>
      <point x="774.66846203902162" y="-407" type="move" name="bottom_dd"/>
    </contour>
    <contour>
      <point x="735.86023142988358" y="654" type="move" name="rhotichook"/>
    </contour>
    <contour>
      <point x="1068.3979700168402" y="1293" type="move" name="top0315"/>
    </contour>
    <contour>
      <point x="317.09462033066649" y="-180.13185940096164" type="curve" smooth="yes"/>
      <point x="999.97055875452611" y="1080.783966421842" type="line"/>
      <point x="938.87486679001427" y="1080.9560085954056" type="line"/>
      <point x="406.36993876889449" y="104.61258291441854" type="line"/>
      <point x="395.37519359280526" y="84.263605023349029" type="line"/>
      <point x="181.27152335507884" y="1082.6133135028745" type="line"/>
      <point x="124.2879586248405" y="1082.7796491717736" type="line"/>
      <point x="357.6117971416395" y="11.059981818947449" type="line"/>
      <point x="260.77186370829213" y="-169.87351934536517" type="line" smooth="yes"/>
      <point x="203.43718359681063" y="-275.28550542281039"/>
      <point x="124.04811324020214" y="-385.36030540554316"/>
      <point x="-8.9507221557583847" y="-384.03446816578816" type="curve" smooth="yes"/>
      <point x="-31.697328953087826" y="-383.8077120571337"/>
      <point x="-54.214058963458463" y="-379.14514865082049"/>
      <point x="-76.517402307591638" y="-375.2679608344958" type="curve"/>
      <point x="-82.515859072453864" y="-425.83884430997131" type="line"/>
      <point x="-56.335079676789888" y="-432.63671638996647"/>
      <point x="-29.978723446085549" y="-437.0350392822981"/>
      <point x="-2.7832834395682369" y="-436.78775461185705" type="curve" smooth="yes"/>
      <point x="161.28185655802" y="-435.29593120082018"/>
      <point x="246.92816972511324" y="-310.31406859910584"/>
    </contour>
  </outline>
</glyph>
<glyph name="z" format="1">
  <advance width="948.66"/>
  <unicode hex="007A"/>
  <outline>
    <contour>
      <point x="614.43797001684015" y="1293" type="move" name="top"/>
    </contour>
    <contour>
      <point x="420.88858252534544" y="10" type="move" name="bottom"/>
    </contour>
    <contour>
      <point x="1121.4420635163638" y="1600" type="move" name="top_dd"/>
    </contour>
    <contour>
      <point x="774.66846203902162" y="-407" type="move" name="bottom_dd"/>
    </contour>
    <contour>
      <point x="1068.3979700168402" y="1293" type="move" name="top0315"/>
    </contour>
    <contour>
      <point x="188.99869895113983" y="1027.2626176581723" type="line"/>
      <point x="845.0524079564052" y="1026.6293149041719" type="line"/>
      <point x="-12.252524559526819" y="44.229690367383633" type="line"/>
      <point x="-18.828635083361903" y="0.0" type="line"/>
      <point x="800.13182214506082" y="0.0" type="line"/>
      <point x="807.5059987932143" y="53.743861211635874" type="line"/>
      <point x="64.523655371343452" y="54.373763679655248" type="line"/>
      <point x="920.94188667601406" y="1033.7767260997448" type="line"/>
      <point x="928.22131330758293" y="1081.3540159963954" type="line"/>
      <point x="196.5552587613675" y="1081.7530179570185" type="line"/>
    </contour>
  </outline>
</glyph>
<glyph name="braceleft" format="1">
  <advance width="640.1999999999999"/>
  <unicode hex="007B"/>
  <outline>
    <contour>
      <point x="260.77960899570297" y="265.06279071836093" type="curve" smooth="yes"/>
      <point x="222.12511674963537" y="20.018192367577328" type="line" smooth="yes"/>
      <point x="191.67770838508073" y="-189.36647229938404"/>
      <point x="254.81872647944533" y="-363.98436426415424"/>
      <point x="463.4214675138827" y="-440.01525844895247" type="curve"/>
      <point x="487.94513093318585" y="-395.91482994595935" type="line"/>
      <point x="304.86610197517285" y="-323.419064381184"/>
      <point x="247.74437090394414" y="-167.33886731279355"/>
      <point x="276.01207606353933" y="19.99966187658142" type="curve" smooth="yes"/>
      <point x="314.29852733348235" y="264.98050886162576" type="line" smooth="yes"/>
      <point x="333.050549072622" y="399.96518336448958"/>
      <point x="299.59450599836487" y="530.51122548465935"/>
      <point x="158.18951794736938" y="574.98546862288583" type="curve"/>
      <point x="309.2188217437099" y="618.19752835862971"/>
      <point x="386.95936280595106" y="733.67746522395657"/>
      <point x="411.81759602929606" y="884.86462993982889" type="curve" smooth="yes"/>
      <point x="450.05735857138302" y="1131.9777745668739" type="line" smooth="yes"/>
      <point x="483.24399697092576" y="1328.4838197895492"/>
      <point x="594.94161663856153" y="1484.9181132835738"/>
      <point x="786.70654962417029" y="1550.6644692117245" type="curve"/>
      <point x="777.87818483199237" y="1597.0278629520431" type="line"/>
      <point x="555.15119045630252" y="1524.2954919158128"/>
      <point x="431.92025478354401" y="1360.2136136855934"/>
      <point x="395.39584830260378" y="1132.0590313667697" type="curve" smooth="yes"/>
      <point x="356.83058960699748" y="885.06169015362525" type="line" smooth="yes"/>
      <point x="328.72563833524976" y="725.12611402933737"/>
      <point x="238.17823682832937" y="617.62065236803426"/>
      <point x="70.84053340573648" y="608.60390428177288" type="curve"/>
      <point x="62.049111473299959" y="543.09776536009167" type="line"/>
      <point x="231.99305726042013" y="533.96774639510261"/>
      <point x="284.492390039236" y="424.23634432377116"/>
    </contour>
  </outline>
</glyph>
<glyph name="bar" format="1">
  <advance width="393.82"/>
  <unicode hex="007C"/>
  <outline>
    <contour>
      <point x="361.84326794351449" y="1455.7792212018906" type="line"/>
      <point x="308.03185104827185" y="1455.7761032536591" type="line"/>
      <point x="39.90293991908031" y="-269.77978503393007" type="line"/>
      <point x="93.714356814323097" y="-269.77666708569882" type="line"/>
    </contour>
  </outline>
</glyph>
<glyph name="braceright" format="1">
  <advance width="640.1999999999999"/>
  <unicode hex="007D"/>
  <outline>
    <contour>
      <point x="372.98473447128413" y="884.93677368888848" type="curve" smooth="yes"/>
      <point x="411.97048759590734" y="1131.981573697444" type="line" smooth="yes"/>
      <point x="442.46375043868085" y="1341.4191212713556"/>
      <point x="381.4520721164331" y="1519.2747975763057"/>
      <point x="171.9972386246925" y="1595.9191602799119" type="curve"/>
      <point x="152.42434607263999" y="1552.7988278979817" type="line"/>
      <point x="338.35106865836576" y="1482.4729727994986"/>
      <point x="386.02419132195121" y="1317.052689267362"/>
      <point x="358.04910152139661" y="1131.9972358609657" type="curve" smooth="yes"/>
      <point x="319.50145937511382" y="885.02071096468217" type="line" smooth="yes"/>
      <point x="300.86150607764995" y="749.75700455087929"/>
      <point x="335.06519967791411" y="621.27879315249436"/>
      <point x="476.19830446466915" y="576.90655553852844" type="curve"/>
      <point x="325.09052826655227" y="533.64778967289192"/>
      <point x="246.72192042690369" y="416.19225362678441"/>
      <point x="221.99389365234055" y="265.11742586873675" type="curve" smooth="yes"/>
      <point x="184.02530799180005" y="20.02110064391389" type="line" smooth="yes"/>
      <point x="150.56000377223185" y="-177.17287816906233"/>
      <point x="33.860052526854588" y="-326.05724879914396"/>
      <point x="-155.73498766995371" y="-393.48153611932821" type="curve"/>
      <point x="-142.9289933535685" y="-441.14732223806033" type="line"/>
      <point x="79.240574619598789" y="-368.67087703935647"/>
      <point x="202.21856444911782" y="-208.01700248535778"/>
      <point x="238.68970560531375" y="19.940940611471426" type="curve" smooth="yes"/>
      <point x="276.94336893698534" y="264.93798790302202" type="line" smooth="yes"/>
      <point x="305.05862943271836" y="424.85197275514281"/>
      <point x="395.56839080283703" y="534.24433047570255"/>
      <point x="563.24539380539488" y="543.39337969019277" type="curve"/>
      <point x="572.03487655902927" y="608.89903119802545" type="line"/>
      <point x="403.28675077075718" y="617.93497829801026"/>
      <point x="349.37568635897577" y="726.24312844903488"/>
    </contour>
  </outline>
</glyph>
<glyph name="asciitilde" format="1">
  <advance width="1369.6399999999999"/>
  <unicode hex="007E"/>
  <outline>
    <contour>
      <point x="1177.2234657832512" y="752.52502013446554" type="line"/>
      <point x="1150.2534958988192" y="620.84044738923239"/>
      <point x="1076.0843148161487" y="497.68307075422098"/>
      <point x="927.07886155537619" y="496.32613897687605" type="curve" smooth="yes"/>
      <point x="831.65017467156486" y="495.45710891878599"/>
      <point x="768.34159105546769" y="558.50173737895898"/>
      <point x="707.27993421801216" y="623.87906326883058" type="curve" smooth="yes"/>
      <point x="632.98107514270464" y="703.42916024609485"/>
      <point x="553.2835980897836" y="774.81601141285228"/>
      <point x="438.09629961836686" y="773.85222265702521" type="curve" smooth="yes"/>
      <point x="258.31768066312065" y="772.34798899770215"/>
      <point x="161.62442758374414" y="624.16353098942955"/>
      <point x="133.41626711686791" y="462.59686091280264" type="curve"/>
      <point x="188.32921581341799" y="462.4808787504511" type="line"/>
      <point x="215.66357819279779" y="595.55633526661927"/>
      <point x="287.87485154348195" y="718.60984117236922"/>
      <point x="438.67375686745208" y="719.68149812093486" type="curve" smooth="yes"/>
      <point x="535.482854111238" y="720.36947487728321"/>
      <point x="598.24566248142764" y="659.73272738636979"/>
      <point x="660.57508468306753" y="593.11556039885249" type="curve" smooth="yes"/>
      <point x="735.2325713656694" y="513.32226083779256"/>
      <point x="811.82213872386967" y="441.93258783117767"/>
      <point x="927.82305882857622" y="443.14726681273282" type="curve" smooth="yes"/>
      <point x="1103.8100420175988" y="444.99007710522056"/>
      <point x="1204.9057942551874" y="592.40351157247619"/>
      <point x="1233.0234617034255" y="751.40323452367841" type="curve"/>
    </contour>
  </outline>
</glyph>
<glyph name="exclamdown" format="1">
  <advance width="393.82"/>
  <unicode hex="00A1"/>
  <outline>
    <contour>
      <point x="324.13566042873674" y="1046.4620030668432" type="curve" smooth="yes"/>
      <point x="328.62867595998819" y="1075.4371735098271"/>
      <point x="306.84264410608347" y="1102.4681682304151"/>
      <point x="277.17778456264529" y="1102.6569356096061" type="curve" smooth="yes"/>
      <point x="248.8970155382668" y="1102.8368955599447"/>
      <point x="219.19057469471022" y="1077.4649960107233"/>
      <point x="214.80967675225571" y="1049.5596236432427" type="curve" smooth="yes"/>
      <point x="210.25111981542665" y="1020.5226019067115"/>
      <point x="232.79294168701227" y="992.4893406368127"/>
      <point x="262.55304597114844" y="992.34430291728449" type="curve" smooth="yes"/>
      <point x="291.04474477649956" y="992.2054468507614"/>
      <point x="319.83787832332479" y="1018.7458805284391"/>
    </contour>
    <contour>
      <point x="7.82023728366066" y="-358.72853275607622" type="line"/>
      <point x="61.631747014529154" y="-358.72524354365476" type="line"/>
      <point x="242.86715982477057" y="695.72853136861784" type="line"/>
      <point x="189.05565009390205" y="695.72524215619649" type="line"/>
    </contour>
  </outline>
</glyph>
<glyph name="cent" format="1">
  <advance width="1076.7"/>
  <unicode hex="00A2"/>
  <outline>
    <contour>
      <point x="901.2891952905527" y="327.1558569492928" type="curve"/>
      <point x="846.99570159161362" y="327.29673475689049" type="line"/>
      <point x="794.55708089474865" y="148.16031133333493"/>
      <point x="644.21784016918207" y="33.606278877758648"/>
      <point x="455.97108873645141" y="34.210166273188399" type="curve" smooth="yes"/>
      <point x="181.77404073928682" y="35.089778483700861"/>
      <point x="131.74931845750518" y="297.63639853634874"/>
      <point x="169.60283382684258" y="520.02346853842596" type="curve" smooth="yes"/>
      <point x="177.13090547969398" y="562.00383795596497" type="line" smooth="yes"/>
      <point x="221.89608359124688" y="800.09540640848866"/>
      <point x="369.02484547863418" y="1047.5663558258943"/>
      <point x="639.65679364240862" y="1047.8136538920164" type="curve" smooth="yes"/>
      <point x="831.31526530970359" y="1047.9887875734639"/>
      <point x="936.33731856975635" y="909.06791168550421"/>
      <point x="917.48286074144244" y="725.17084333726962" type="curve"/>
      <point x="970.86147774972915" y="725.02674896550036" type="line"/>
      <point x="989.8713352832184" y="929.63469981029561"/>
      <point x="879.54884538479462" y="1081.220810855837"/>
      <point x="671.04573158405537" y="1100.6827794037126" type="curve"/>
      <point x="710.67271570911464" y="1317.6911024054532" type="line"/>
      <point x="655.85961407351488" y="1317.6948666949772" type="line"/>
      <point x="616.28217292018178" y="1101.2781077362249" type="line"/>
      <point x="327.18641365847606" y="1078.0096737232736"/>
      <point x="169.48466969916979" y="826.82942744742718"/>
      <point x="122.61647891563614" y="562.03684267639687" type="curve" smooth="yes"/>
      <point x="115.53919819292854" y="520.01778508503708" type="line" smooth="yes"/>
      <point x="76.680190713194861" y="276.35690101721946"/>
      <point x="142.80272998236586" y="5.5755171566611104"/>
      <point x="427.39454697707993" y="-18.882044214378986" type="curve"/>
      <point x="386.30204872065389" y="-244.70760788917966" type="line"/>
      <point x="441.11208326933684" y="-244.70610036656535" type="line"/>
      <point x="482.20055144557728" y="-19.117852480891784" type="line"/>
      <point x="687.91177120394104" y="-1.5742610251924276"/>
      <point x="851.50594327796045" y="123.75156414478184"/>
    </contour>
  </outline>
</glyph>
<glyph name="sterling" format="1">
  <advance width="1115.5"/>
  <unicode hex="00A3"/>
  <outline>
    <contour>
      <point x="-7.3084061498352355" y="0.0" type="line"/>
      <point x="927.16324219655894" y="0.0" type="line"/>
      <point x="933.56648014192683" y="53.796297848290664" type="line"/>
      <point x="199.00200351304767" y="53.257135231834901" type="line"/>
      <point x="271.79414632818612" y="130.82694153051466"/>
      <point x="299.24116945330593" y="232.84255933997758"/>
      <point x="314.65653416132022" y="335.91792263847975" type="curve" smooth="yes"/>
      <point x="362.13892053145969" y="666.92867769809959" type="line"/>
      <point x="719.76197283139675" y="667.25183400020717" type="line"/>
      <point x="727.11206312486536" y="720.7445086863396" type="line"/>
      <point x="369.61643023929457" y="721.06953597667132" type="line"/>
      <point x="415.9422065925703" y="1038.9966833109675" type="line" smooth="yes"/>
      <point x="449.87570622173939" y="1233.1369124777516"/>
      <point x="573.16427011949463" y="1421.2007119435818"/>
      <point x="788.84198910088082" y="1421.788052067554" type="curve" smooth="yes"/>
      <point x="990.16587157961203" y="1422.3363033874032"/>
      <point x="1064.3239933239227" y="1272.1422970587241"/>
      <point x="1036.526338530382" y="1089.324867421278" type="curve"/>
      <point x="1090.2223372212068" y="1089.1752016093976" type="line"/>
      <point x="1119.7270557189036" y="1301.8601630440135"/>
      <point x="1018.6897673808581" y="1476.2035452847003"/>
      <point x="788.20459884319303" y="1475.8139708976482" type="curve" smooth="yes"/>
      <point x="542.80851089369378" y="1475.3991935340789"/>
      <point x="397.78493050261818" y="1261.2877965457506"/>
      <point x="361.25657270191874" y="1039.0949333250662" type="curve" smooth="yes"/>
      <point x="315.99158618850043" y="721.06454647301075" type="line"/>
      <point x="111.63337923715007" y="720.74524704319322" type="line"/>
      <point x="104.38706988268017" y="667.24858105131511" type="line"/>
      <point x="307.86603206079593" y="666.94191585617034" type="line"/>
      <point x="260.02774217303863" y="336.04347289541391" type="line" smooth="yes"/>
      <point x="244.4303246597174" y="239.51381886349452"/>
      <point x="213.46311347168415" y="97.396255695740919"/>
      <point x="113.87248309945149" y="53.903982703010733" type="curve"/>
      <point x="0.019269228444642295" y="53.681726132845071" type="line"/>
    </contour>
  </outline>
</glyph>
<glyph name="currency" format="1">
  <advance width="1456.94"/>
  <unicode hex="00A4"/>
  <outline>
    <contour>
      <point x="1238.1080617425584" y="11.165138768889268" type="line"/>
      <point x="1092.6577093371868" y="197.65697051340285" type="line"/>
      <point x="1201.5902129290064" y="310.98157736028179"/>
      <point x="1275.767861934165" y="452.24068361077184"/>
      <point x="1301.5056471278401" y="607.94171181296679" type="curve" smooth="yes"/>
      <point x="1325.6507808451051" y="754.00797655051997"/>
      <point x="1303.5946559242523" y="900.83989868907884"/>
      <point x="1226.9594149304835" y="1028.1823841479261" type="curve"/>
      <point x="1448.3173493909055" y="1222.5105325947256" type="line"/>
      <point x="1411.4849765513493" y="1264.5745043134841" type="line"/>
      <point x="1191.1252521557783" y="1071.4547653055997" type="line"/>
      <point x="1098.9524162573862" y="1177.8384869725746"/>
      <point x="968.31428215876565" y="1233.9513370781353"/>
      <point x="827.78728044169634" y="1233.9062127673915" type="curve" smooth="yes"/>
      <point x="672.17896148349746" y="1233.8562457286503"/>
      <point x="529.1146514939436" y="1168.7026185863176"/>
      <point x="409.34322998958658" y="1072.9668542534707" type="curve"/>
      <point x="261.25674787524753" y="1263.9324850391604" type="line"/>
      <point x="218.2159463806629" y="1226.817686619986" type="line"/>
      <point x="369.31850762938996" y="1033.0227366337201" type="line"/>
      <point x="251.88983754539314" y="917.98931378161797"/>
      <point x="172.13284369998803" y="770.86388903597026"/>
      <point x="145.20283937831346" y="608.05056897806412" type="curve" smooth="yes"/>
      <point x="121.62187407858201" y="465.48485659421931"/>
      <point x="142.51401171317957" y="322.30784386158052"/>
      <point x="214.28954578877227" y="196.44348041916555" type="curve"/>
      <point x="8.0541497563790756" y="15.433047895785945" type="line"/>
      <point x="44.092919094060917" y="-25.636237873616178" type="line"/>
      <point x="248.35668549752677" y="153.36674617632809" type="line"/>
      <point x="340.66419171931324" y="40.545297510924499"/>
      <point x="474.89999074301181" y="-19.871534178881408"/>
      <point x="620.50455513636575" y="-19.90817321421023" type="curve" smooth="yes"/>
      <point x="782.79902665797567" y="-19.949011994921033"/>
      <point x="931.10460930845181" y="51.915424282752639"/>
      <point x="1052.7293760838124" y="155.22273746489785" type="curve"/>
      <point x="1193.9101476858409" y="-26.934926591781142" type="line"/>
    </contour>
    <contour>
      <point x="200.43542403397601" y="608.02645254962135" type="curve" smooth="yes"/>
      <point x="253.68106296752438" y="901.06138766279173"/>
      <point x="517.63445963517188" y="1180.9800147425158"/>
      <point x="828.56718588382455" y="1180.8869104768428" type="curve" smooth="yes"/>
      <point x="1134.3174153619457" y="1180.79535803417"/>
      <point x="1297.7297022805942" y="885.98284335153744"/>
      <point x="1247.2336568341723" y="607.97236928624034" type="curve" smooth="yes"/>
      <point x="1194.0630633901305" y="315.23693309460077"/>
      <point x="930.98386205483393" y="33.050541398320235"/>
      <point x="619.72137729102019" y="33.113259420454952" type="curve" smooth="yes"/>
      <point x="312.89247599296266" y="33.175084095014704"/>
      <point x="149.80098274456148" y="329.36212407282505"/>
    </contour>
  </outline>
</glyph>
<glyph name="yen" format="1">
  <advance width="1006.86"/>
  <unicode hex="00A5"/>
  <outline>
    <contour>
      <point x="861.46522135539556" y="326.25286954008385" type="line"/>
      <point x="869.00442063045875" y="380.73851149987121" type="line"/>
      <point x="489.705543092325" y="381.09236996277633" type="line"/>
      <point x="531.89400359787487" y="620.90012350943914" type="line"/>
      <point x="912.57664982375138" y="621.2395489212513" type="line"/>
      <point x="920.1079132554587" y="675.70997845335637" type="line"/>
      <point x="567.48640706360379" y="676.33541203365803" type="line"/>
      <point x="1119.1456344717674" y="1454.5209795596406" type="line"/>
      <point x="1055.6271318152051" y="1454.8127674416987" type="line"/>
      <point x="551.47842279253916" y="738.31769348629064" type="line"/>
      <point x="516.83642896520382" y="686.99340771304287" type="line"/>
      <point x="509.23937313866065" y="687.04082212161302" type="line"/>
      <point x="494.51943078843192" y="737.74587933280861" type="line"/>
      <point x="238.72080872538447" y="1456.7555706083499" type="line"/>
      <point x="179.3213231883023" y="1457.0461665943753" type="line"/>
      <point x="465.18068823016131" y="676.02124792857114" type="line"/>
      <point x="107.78087514866714" y="675.74544235531221" type="line"/>
      <point x="100.23422092174762" y="621.25900879429264" type="line"/>
      <point x="477.59556713961047" y="620.90659392830571" type="line"/>
      <point x="435.4035685508527" y="381.09816570232579" type="line"/>
      <point x="56.661639301646758" y="380.74092748657455" type="line"/>
      <point x="49.12516126156315" y="326.25501907995078" type="line"/>
      <point x="426.39675960346312" y="325.91956558825649" type="line"/>
      <point x="370.63828843088243" y="0.0" type="line"/>
      <point x="424.45025636807725" y="0.0" type="line"/>
      <point x="480.72665896988258" y="325.90769525795378" type="line"/>
    </contour>
  </outline>
</glyph>
<glyph name="brokenbar" format="1">
  <advance width="386.06"/>
  <unicode hex="00A6"/>
  <outline>
    <contour>
      <point x="367.75164140956451" y="1455.7270887950231" type="line"/>
      <point x="313.93999333486647" y="1455.7239511694904" type="line"/>
      <point x="184.15436676495409" y="698.27291120497489" type="line"/>
      <point x="237.96601483965213" y="698.27604883050731" type="line"/>
    </contour>
    <contour>
      <point x="70.262686881042882" y="-269.72587477250568" type="line"/>
      <point x="198.99990552586786" y="481.72918081974291" type="line"/>
      <point x="145.18822904953402" y="481.72587477250568" type="line"/>
      <point x="16.451010404709095" y="-269.72918081974325" type="line"/>
    </contour>
  </outline>
</glyph>
<glyph name="section" format="1">
  <advance width="1186.31"/>
  <unicode hex="00A7"/>
  <outline>
    <contour>
      <point x="890.03431352291193" y="-149.14734890678801" type="curve" smooth="yes"/>
      <point x="915.40898636883719" y="8.2469823023357662"/>
      <point x="827.81467466737172" y="101.71810037800097"/>
      <point x="691.79323490095726" y="162.76346321860674" type="curve"/>
      <point x="841.90944358333786" y="189.71500761404207"/>
      <point x="1005.4489375835956" y="263.3659356888918"/>
      <point x="1033.3780805611709" y="430.81159838163683" type="curve" smooth="yes"/>
      <point x="1075.2982662654404" y="682.13879739702622"/>
      <point x="817.31018161032739" y="747.26304046167024"/>
      <point x="628.5920415732935" y="803.97392686949161" type="curve" smooth="yes"/>
      <point x="460.65158420831602" y="854.44100014095238"/>
      <point x="265.32014011011915" y="922.96818429850134"/>
      <point x="306.7075589899033" y="1132.0272615141205" type="curve" smooth="yes"/>
      <point x="347.5590460306957" y="1338.3792016638711"/>
      <point x="555.66088898362625" y="1422.4616380566977"/>
      <point x="747.1256497428501" y="1421.7836289059321" type="curve" smooth="yes"/>
      <point x="972.0025122126051" y="1420.9873018432113"/>
      <point x="1097.717159564872" y="1263.3520584385692"/>
      <point x="1064.907480466617" y="1045.26832854081" type="curve"/>
      <point x="1118.5203394469881" y="1045.1748949503688" type="line"/>
      <point x="1155.7171902294697" y="1305.5597885133011"/>
      <point x="1012.1665051615422" y="1476.0993990808445"/>
      <point x="746.4955919495718" y="1475.9039875703843" type="curve" smooth="yes"/>
      <point x="527.05867747019147" y="1475.7425830026402"/>
      <point x="290.05230502115535" y="1366.3274611644692"/>
      <point x="251.93972086763978" y="1129.1472956355949" type="curve" smooth="yes"/>
      <point x="228.11863690641815" y="980.90521857668182"/>
      <point x="305.09991114605725" y="885.77052738645307"/>
      <point x="433.35794119196714" y="823.88563988529563" type="curve"/>
      <point x="282.30069215613355" y="794.91280027604398"/>
      <point x="135.34136322825964" y="716.53885505773042"/>
      <point x="107.98502211006046" y="551.19700972479382" type="curve" smooth="yes"/>
      <point x="66.27133011619469" y="299.07927292236843"/>
      <point x="326.00151455621852" y="220.26289549281393"/>
      <point x="518.4681154460053" y="166.02800874419043" type="curve" smooth="yes"/>
      <point x="681.27008029908552" y="120.15227713444321"/>
      <point x="875.15149430612735" y="52.462444154864244"/>
      <point x="834.48804590046598" y="-151.03843836106995" type="curve" smooth="yes"/>
      <point x="793.85082235007962" y="-354.40807816637403"/>
      <point x="585.50232971629487" y="-440.26823228239226"/>
      <point x="396.92672304869131" y="-440.85747525696388" type="curve" smooth="yes"/>
      <point x="162.25604101201017" y="-441.59075170332733"/>
      <point x="13.799622398814023" y="-301.37099013307238"/>
      <point x="49.517988709168108" y="-62.308425669945144" type="curve"/>
      <point x="-4.3343088766234814" y="-64.173452156940471" type="line"/>
      <point x="-42.19671311408257" y="-337.19114139572167"/>
      <point x="131.31412060169572" y="-495.48004685027706"/>
      <point x="397.57768040959638" y="-494.94061155877296" type="curve" smooth="yes"/>
      <point x="619.1612258093927" y="-494.49169551298928"/>
      <point x="851.4639076912157" y="-388.39233414092007"/>
    </contour>
    <contour>
      <point x="534.29486300998042" y="215.10280622374418" type="curve" smooth="yes"/>
      <point x="362.83789817592015" y="266.47427374076278"/>
      <point x="116.6988798431147" y="326.81588940007839"/>
      <point x="162.79466903229144" y="553.03834561196868" type="curve" smooth="yes"/>
      <point x="196.64594460035784" y="719.16889331743255"/>
      <point x="352.7256110844927" y="784.38722287530356"/>
      <point x="506.44186695826818" y="795.94407726895668" type="curve"/>
      <point x="539.39759988872072" y="785.12023230774719"/>
      <point x="572.64514149959962" y="775.69058787319989"/>
      <point x="605.93134408273158" y="765.97461779977209" type="curve" smooth="yes"/>
      <point x="769.53371437988108" y="718.22042505942977"/>
      <point x="1024.3861542539451" y="647.43430940072017"/>
      <point x="978.33902053847669" y="427.96671720782678" type="curve" smooth="yes"/>
      <point x="942.51483312222626" y="257.22323069478273"/>
      <point x="748.06244194233693" y="202.37208917615996"/>
      <point x="597.29621692252363" y="196.43712124542037" type="curve"/>
      <point x="576.33828645536391" y="202.81667514091797"/>
      <point x="555.27809009496514" y="208.81586903433475"/>
    </contour>
  </outline>
</glyph>
<glyph name="dieresis" format="1">
  <advance width="878.8199999999999"/>
  <unicode hex="00A8"/>
  <outline>
    <contour>
      <point x="544.46962815058191" y="1293" type="move" name="_top"/>
    </contour>
    <contour>
      <point x="583.92230946832171" y="1540" type="move" name="mkmktop_acc"/>
    </contour>
    <contour>
      <point x="296.29508992991816" y="1422.3940816268203" type="curve" smooth="yes"/>
      <point x="292.24673991408974" y="1393.4088091434944"/>
      <point x="314.45794036776255" y="1366.4850117080305"/>
      <point x="344.01984775530639" y="1366.3129303674" type="curve" smooth="yes"/>
      <point x="372.32404791725691" y="1366.1481702033993"/>
      <point x="401.76955129252417" y="1391.5677713130297"/>
      <point x="405.73818388403714" y="1419.5881087906041" type="curve" smooth="yes"/>
      <point x="409.85248948465988" y="1448.6369634671146"/>
      <point x="386.86305948056463" y="1476.5574425516943"/>
      <point x="357.20901998963558" y="1476.684048584689" type="curve" smooth="yes"/>
      <point x="328.68965665505982" y="1476.8058101900995"/>
      <point x="300.18159014814836" y="1450.2205460855403"/>
    </contour>
    <contour>
      <point x="727.9450899299178" y="1422.3940816268196" type="curve" smooth="yes"/>
      <point x="723.89673991409279" y="1393.4088091435165"/>
      <point x="746.10794036753327" y="1366.4850117080325"/>
      <point x="775.66984775530568" y="1366.3129303674004" type="curve" smooth="yes"/>
      <point x="803.97404791726819" y="1366.1481702033996"/>
      <point x="833.41955129251903" y="1391.5677713129928"/>
      <point x="837.38818388403695" y="1419.5881087906034" type="curve" smooth="yes"/>
      <point x="841.50248948465514" y="1448.6369634670825"/>
      <point x="818.51305948083598" y="1476.5574425516934"/>
      <point x="788.85901998963482" y="1476.684048584689" type="curve" smooth="yes"/>
      <point x="760.33965665495737" y="1476.8058101900999"/>
      <point x="731.83159014815396" y="1450.2205460855835"/>
    </contour>
  </outline>
</glyph>
<glyph name="copyright" format="1">
  <advance width="1616.02"/>
  <unicode hex="00A9"/>
  <outline>
    <contour>
      <point x="138.67362953173136" y="729.02047153473256" type="curve" smooth="yes"/>
      <point x="82.284012235372501" y="354.99870531288911"/>
      <point x="311.76873648992739" y="-20.942586943484503"/>
      <point x="715.75539741613068" y="-20.947483778728468" type="curve" smooth="yes"/>
      <point x="1125.4880287525921" y="-20.952450262485954"/>
      <point x="1459.4087429121896" y="340.10228922479916"/>
      <point x="1518.0422292199926" y="728.97898385387339" type="curve" smooth="yes"/>
      <point x="1574.5571263077513" y="1103.8044933147555"/>
      <point x="1344.197658836006" y="1475.9624591073887"/>
      <point x="940.49301048275231" y="1475.9474549688362" type="curve" smooth="yes"/>
      <point x="531.63077153518384" y="1475.9322591426123"/>
      <point x="197.27543621930153" y="1117.7152755069403"/>
    </contour>
    <contour>
      <point x="194.89512048048454" y="729.01656949735207" type="curve" smooth="yes"/>
      <point x="252.70991946090075" y="1085.3114819642067"/>
      <point x="564.24082323554546" y="1420.9959060154517"/>
      <point x="940.8991645813511" y="1420.9310833874194" type="curve" smooth="yes"/>
      <point x="1311.926385540173" y="1420.8672298711315"/>
      <point x="1517.1172646737648" y="1069.7086734131829"/>
      <point x="1461.8226156947153" y="728.98252032463017" type="curve" smooth="yes"/>
      <point x="1404.078386591392" y="373.1620312047142"/>
      <point x="1092.1886247775253" y="34.027937140288032"/>
      <point x="715.34922641658397" y="34.06962681842576" type="curve" smooth="yes"/>
      <point x="343.30686286392324" y="34.110785801423752"/>
      <point x="139.62403321618325" y="388.39777385901181"/>
    </contour>
    <contour>
      <point x="1041.4079787248295" y="615.51513679198911" type="line"/>
      <point x="1010.6396347778807" y="464.96877965759671"/>
      <point x="922.59360281257386" y="355.73462330183617"/>
      <point x="759.02622566878142" y="357.37037295701668" type="curve" smooth="yes"/>
      <point x="577.25596799380696" y="359.18815986236353"/>
      <point x="536.71689720381414" y="540.31794551835821"/>
      <point x="558.89487129311533" y="689.00775052426241" type="curve" smooth="yes"/>
      <point x="571.90214932958224" y="768.9878404631387" type="line" smooth="yes"/>
      <point x="600.04681872922959" y="928.13063684325789"/>
      <point x="703.5869602294465" y="1100.7900491410016"/>
      <point x="884.28415904942301" y="1101.6961645135227" type="curve" smooth="yes"/>
      <point x="1045.9915396338799" y="1102.5070544684006"/>
      <point x="1098.0323088324324" y="987.75857215422434"/>
      <point x="1078.8107403705619" y="842.29677774022707" type="curve"/>
      <point x="1130.456266754697" y="842.120371759151" type="line"/>
      <point x="1150.9430347431453" y="1017.4800985498412"/>
      <point x="1074.1711705283133" y="1155.7536243310667"/>
      <point x="883.58124902901125" y="1154.7869278721728" type="curve" smooth="yes"/>
      <point x="671.40243987955455" y="1153.7107298138308"/>
      <point x="546.89828198645284" y="957.38437448032926"/>
      <point x="516.04262438322223" y="768.08791371589723" type="curve" smooth="yes"/>
      <point x="504.17320153771266" y="689.02151638230214" type="line" smooth="yes"/>
      <point x="479.38973110162505" y="508.39079935839408"/>
      <point x="546.11617449553307" y="302.63100997543989"/>
      <point x="759.38681947956286" y="302.17409077766189" type="curve" smooth="yes"/>
      <point x="951.20970973250508" y="301.76312207103848"/>
      <point x="1061.6751002219592" y="437.37703820626137"/>
      <point x="1093.4810431119652" y="615.36796165743851" type="curve"/>
    </contour>
  </outline>
</glyph>
<glyph name="ordfeminine" format="1">
  <advance width="871.06"/>
  <unicode hex="00AA"/>
  <outline>
    <contour>
      <point x="679.34110847446209" y="704.34609177300331" type="curve"/>
      <point x="735.97284925153838" y="704.54998069097485" type="line"/>
      <point x="729.32932973842355" y="765.71981942260061"/>
      <point x="731.20239793448434" y="825.31826816431953"/>
      <point x="741.26924796563821" y="886.04930450415293" type="curve" smooth="yes"/>
      <point x="795.36017619860229" y="1199.9890796912591" type="line" smooth="yes"/>
      <point x="817.43343768156717" y="1347.6321439861858"/>
      <point x="754.36459322358746" y="1476.014083111495"/>
      <point x="591.36729586757747" y="1475.8213864942941" type="curve" smooth="yes"/>
      <point x="442.60358000772646" y="1475.6455169229978"/>
      <point x="305.45221226548011" y="1394.4948486421304"/>
      <point x="273.24993619004022" y="1243.8613137983116" type="curve"/>
      <point x="327.54854168157937" y="1243.6150424435516" type="line"/>
      <point x="360.45378660666353" y="1368.8391475346195"/>
      <point x="466.78807967806523" y="1423.0843182077633"/>
      <point x="591.86896542906095" y="1421.5055865272786" type="curve" smooth="yes"/>
      <point x="724.34333476962388" y="1419.8335366175386"/>
      <point x="761.19054313709535" y="1318.050426218557"/>
      <point x="740.37646650150793" y="1201.3094561717667" type="curve" smooth="yes"/>
      <point x="726.28977267423295" y="1132.0405085663949" type="line"/>
      <point x="559.98989611520199" y="1131.9328016415623" type="line" smooth="yes"/>
      <point x="408.16668463472354" y="1129.3408889406312"/>
      <point x="240.54124490112932" y="1069.5842967071112"/>
      <point x="214.1391484938311" y="900.24894574802511" type="curve" smooth="yes"/>
      <point x="192.73519735707109" y="762.97024174887974"/>
      <point x="298.16488833259456" y="690.2396572334826"/>
      <point x="425.4757283926225" y="691.32745836230038" type="curve" smooth="yes"/>
      <point x="527.5851295243483" y="692.19992705201776"/>
      <point x="616.19835040551288" y="749.23099580339908"/>
      <point x="681.41165484361102" y="823.92946835291548" type="curve"/>
      <point x="676.6401301953606" y="783.52209863638802"/>
      <point x="675.63467633184325" y="744.87391876189133"/>
    </contour>
    <contour>
      <point x="426.1594127741771" y="746.4094868885519" type="curve" smooth="yes"/>
      <point x="325.9775708751643" y="745.53549433030253"/>
      <point x="246.68236418547426" y="795.43752693200406"/>
      <point x="268.78690456750019" y="903.93285387828564" type="curve" smooth="yes"/>
      <point x="297.0637896751802" y="1042.723791928046"/>
      <point x="438.73350177794322" y="1075.8384694295157"/>
      <point x="561.54119085493039" y="1077.8403875080451" type="curve" smooth="yes"/>
      <point x="719.76870582933623" y="1077.945951169009" type="line"/>
      <point x="687.40806810623178" y="899.69807348527274" type="line"/>
      <point x="634.17903352885503" y="814.25442729149347"/>
      <point x="528.56880946384433" y="747.30291277197489"/>
    </contour>
  </outline>
</glyph>
<glyph name="macron" format="1">
  <advance width="786.67"/>
  <unicode hex="00AF"/>
  <outline>
    <contour>
      <point x="506.86582452914411" y="1282" type="move" name="_top"/>
    </contour>
    <contour>
      <point x="547.06230946832181" y="1540" type="move" name="mkmktop_acc"/>
    </contour>
    <contour>
      <point x="808.59607109347849" y="1435.797369776393" type="line"/>
      <point x="257.18474733991241" y="1435.7993037773065" type="line"/>
      <point x="250.68345303276078" y="1383.2026302236065" type="line"/>
      <point x="802.09477678632686" y="1383.2006962226919" type="line"/>
    </contour>
  </outline>
</glyph>
<glyph name="twosuperior" format="1">
  <advance width="716.16"/>
  <unicode hex="00B2"/>
  <outline>
    <contour>
      <point x="651.2511844928955" y="712.70448655630116" type="line"/>
      <point x="193.35312262701348" y="713.38013254150144" type="line"/>
      <point x="479.91444321998961" y="960.98392153500595" type="line" smooth="yes"/>
      <point x="563.8971270737934" y="1035.5253411649185"/>
      <point x="681.19771292715052" y="1129.6428706746583"/>
      <point x="700.09403713222002" y="1247.8393846659958" type="curve" smooth="yes"/>
      <point x="721.9943952884654" y="1384.8261319898752"/>
      <point x="618.87294034840772" y="1464.3267180655216"/>
      <point x="490.05089867026277" y="1463.750834683955" type="curve" smooth="yes"/>
      <point x="343.46805018995275" y="1463.0955537602649"/>
      <point x="221.4546199812267" y="1370.8029933486578"/>
      <point x="191.45433064708243" y="1226.806168484565" type="curve"/>
      <point x="245.70799639469104" y="1226.565737702605" type="line"/>
      <point x="275.52995123678051" y="1344.6163548446898"/>
      <point x="368.90460806512237" y="1414.7690293156211"/>
      <point x="491.41946122153365" y="1414.5213682500421" type="curve" smooth="yes"/>
      <point x="594.54740424052068" y="1414.3128973944597"/>
      <point x="667.22473971939723" y="1355.0346294319422"/>
      <point x="645.9764761449552" y="1247.1280753724177" type="curve" smooth="yes"/>
      <point x="626.02963587022634" y="1145.8306309539155"/>
      <point x="523.91232108876284" y="1067.1001706634181"/>
      <point x="451.58010645901572" y="1003.1209139328001" type="curve" smooth="yes"/>
      <point x="122.71521783179149" y="708.27265154592476" type="line"/>
      <point x="116.13661970208702" y="664.0" type="line"/>
      <point x="643.64076562204752" y="664.0" type="line"/>
    </contour>
  </outline>
</glyph>
<glyph name="threesuperior" format="1">
  <advance width="716.16"/>
  <unicode hex="00B3"/>
  <outline>
    <contour>
      <point x="410.31399801849841" y="1040.9309939366997" type="line" smooth="yes"/>
      <point x="515.51793077598472" y="1038.655750576261"/>
      <point x="637.80789550036252" y="1004.7489247479291"/>
      <point x="612.56890366911784" y="874.11301863095582" type="curve" smooth="yes"/>
      <point x="589.98984041691381" y="757.24478526623727"/>
      <point x="479.78357572597974" y="700.88488077499096"/>
      <point x="368.52154467370974" y="701.39710371841966" type="curve" smooth="yes"/>
      <point x="257.70010177487825" y="701.90729830267969"/>
      <point x="164.97193580950159" y="762.15945741378357"/>
      <point x="177.94340683206019" y="880.6969672100256" type="curve"/>
      <point x="124.86462184116365" y="880.96650454082192" type="line"/>
      <point x="111.24178533748241" y="731.85637229492158"/>
      <point x="230.58412846253731" y="652.77200490171094"/>
      <point x="370.0795904842181" y="653.24725994734899" type="curve" smooth="yes"/>
      <point x="507.09413367264858" y="653.71406260911567"/>
      <point x="644.19516867258039" y="729.97288435416897"/>
      <point x="666.59420371507326" y="874.70163668235568" type="curve" smooth="yes"/>
      <point x="681.95871384791212" y="973.97762680608321"/>
      <point x="621.17442548278416" y="1038.0995608077053"/>
      <point x="531.39365920645446" y="1066.5423897873088" type="curve"/>
      <point x="614.8128250204644" y="1097.4289047353586"/>
      <point x="696.7584506358063" y="1150.9784136694741"/>
      <point x="712.53069521700502" y="1245.687900465736" type="curve" smooth="yes"/>
      <point x="736.02328962832985" y="1386.7566969046134"/>
      <point x="626.30856540910713" y="1464.3623494382007"/>
      <point x="495.89780969856906" y="1463.7349376640973" type="curve" smooth="yes"/>
      <point x="359.04137468534361" y="1463.0765154486803"/>
      <point x="235.81872318472517" y="1383.4938733797455"/>
      <point x="205.52348406270983" y="1246.9271561067962" type="curve"/>
      <point x="258.96739523871793" y="1246.665959002215" type="line"/>
      <point x="289.44316554885819" y="1354.633321021317"/>
      <point x="386.6308726111123" y="1414.6414840506943"/>
      <point x="497.24642832484835" y="1414.4913818279665" type="curve" smooth="yes"/>
      <point x="597.32151613293934" y="1414.3555827260884"/>
      <point x="681.90245217848974" y="1358.2734175557603"/>
      <point x="658.93518225210732" y="1249.1333246511022" type="curve" smooth="yes"/>
      <point x="635.12529742217214" y="1135.9891394380693"/>
      <point x="515.10064594111861" y="1093.1797947094105"/>
      <point x="412.26763162972725" y="1090.0524438884995" type="curve" smooth="yes"/>
      <point x="345.64397616974782" y="1089.6980858685715" type="line"/>
      <point x="337.9184430182712" y="1041.3312644278299" type="line"/>
    </contour>
  </outline>
</glyph>
<glyph name="mu" format="1">
  <advance width="1087.37"/>
  <unicode hex="00B5"/>
  <outline>
    <contour>
      <point x="419.70646053220173" y="-19.910702209991371" type="curve" smooth="yes"/>
      <point x="587.90306651421724" y="-19.800555914498641"/>
      <point x="719.55782441760005" y="64.84082534140299"/>
      <point x="807.60713674802219" y="204.54303161760558" type="curve"/>
      <point x="771.11525998664695" y="0.0" type="line"/>
      <point x="822.2126991559046" y="0.0" type="line"/>
      <point x="1008.1476860363898" y="1081.7259608572106" type="line"/>
      <point x="954.34492795247434" y="1081.7203131759695" type="line"/>
      <point x="838.74795836974749" y="413.22907325907494" type="line" smooth="yes"/>
      <point x="790.37901871102645" y="193.55874868798028"/>
      <point x="644.53491767122625" y="34.23801680538606"/>
      <point x="410.38535138362442" y="34.185383607764592" type="curve" smooth="yes"/>
      <point x="178.20785057034576" y="34.133193699932114"/>
      <point x="158.84787105442211" y="256.27602031229139"/>
      <point x="189.66603739026527" y="439.98483019805536" type="curve" smooth="yes"/>
      <point x="300.05437799840325" y="1081.7221803617542" type="line"/>
      <point x="248.17795242852981" y="1081.7208564439195" type="line"/>
      <point x="-9.8312584630377557" y="-415.72328184247317" type="line"/>
      <point x="42.032509025679033" y="-415.71964750584755" type="line"/>
      <point x="145.08117681961039" y="171.30862428410862" type="line"/>
      <point x="186.21739916602792" y="44.27826264905498"/>
      <point x="287.7087633515589" y="-19.997143058622846"/>
    </contour>
  </outline>
</glyph>
<glyph name="periodcentered" format="1">
  <advance width="457.84"/>
  <unicode hex="00B7"/>
  <outline>
    <contour>
      <point x="191.44966296376663" y="707.53914746968917" type="curve" smooth="yes"/>
      <point x="186.9564882847688" y="678.5643306527146"/>
      <point x="208.74219018829345" y="651.53074090312862"/>
      <point x="238.40750750475263" y="651.34197087239511" type="curve" smooth="yes"/>
      <point x="266.68850803718647" y="651.16200969811439"/>
      <point x="296.39500486396378" y="676.53645802993674"/>
      <point x="300.77564362547412" y="704.44148102045449" type="curve" smooth="yes"/>
      <point x="305.33402920499174" y="733.47876560865609"/>
      <point x="282.79190549039635" y="761.50958270933916"/>
      <point x="253.03224469858333" y="761.65457103457857" type="curve" smooth="yes"/>
      <point x="224.54088971891954" y="761.79338020552984"/>
      <point x="195.74768231524359" y="735.2554799699501"/>
    </contour>
  </outline>
</glyph>
